<svg width="393" height="420" viewBox="0 0 393 420" fill="none" xmlns="http://www.w3.org/2000/svg">
<path d="M221.566 232.4L184.588 177.588C184.1 176.857 183.766 176.035 183.605 175.173C183.444 174.311 183.459 173.425 183.65 172.568C183.841 171.712 184.203 170.903 184.716 170.189C185.229 169.475 185.881 168.871 186.633 168.414C281.55 110.837 406.651 189.026 391.79 301.838C375.462 423.938 219.134 461.938 147.262 365.594C146.742 364.886 146.371 364.081 146.171 363.228C145.971 362.374 145.946 361.49 146.097 360.626C146.249 359.763 146.573 358.939 147.052 358.203C147.531 357.467 148.153 356.835 148.883 356.343L200.452 321.797C206.898 317.498 210.604 317.959 212.765 320.531C258.158 374.154 342.846 315.157 303.783 253.013C288.922 229.483 254.453 221.384 230.135 234.55C228.694 235.317 227.017 235.522 225.432 235.125C223.847 234.727 222.468 233.756 221.566 232.4V232.4Z" fill="#0083FF"/>
<path d="M188.183 99.934L243.126 63.161C243.854 62.6691 244.474 62.036 244.951 61.2993C245.428 60.5627 245.752 59.7376 245.903 58.8734C246.054 58.0091 246.029 57.1234 245.829 56.269C245.63 55.4146 245.26 54.6091 244.742 53.9005C179.026 -35.0157 34.1278 -9.96244 4.77109 99.934C-26.5864 219.053 103.037 313.387 206.036 251.368C206.79 250.914 207.444 250.312 207.958 249.597C208.472 248.883 208.836 248.072 209.027 247.213C209.217 246.354 209.231 245.466 209.068 244.601C208.904 243.737 208.567 242.915 208.075 242.185L173.447 190.848C169.292 184.47 165.675 183.624 162.751 185.161C100.498 217.554 44.824 130.982 104.499 88.099C127.161 71.922 162.212 77.4168 179.488 98.7428C180.526 99.9902 181.995 100.804 183.604 101.025C185.213 101.245 186.847 100.856 188.183 99.934V99.934Z" fill="#0083FF"/>
</svg>