<svg width="137" height="136" viewBox="0 0 137 136" fill="none" xmlns="http://www.w3.org/2000/svg">
<path d="M113.174 89.5793C110.104 95.4201 105.908 100.633 100.829 104.92C95.7496 109.206 89.8864 112.48 83.5768 114.554L83.4711 114.587C74.1387 117.649 64.1728 117.986 54.7912 115.554C45.4096 113.123 37.0187 108.029 30.6439 100.896C26.128 95.8403 22.7442 89.8917 20.7047 83.4234L20.6726 83.3235C20.3488 82.2692 20.052 81.2137 19.795 80.1582C16.8683 68.0281 18.7451 55.1375 25.0466 44.0881C31.3481 33.0388 41.605 24.6536 53.747 20.6251L53.8527 20.5917C66.5336 16.3929 80.2582 17.287 92.0154 23.0777L89.7825 27.3102L87.3267 31.9648C77.9253 27.3402 66.9532 26.6302 56.8169 29.9907L56.7161 30.0271C47.1183 33.2101 38.9891 39.7995 33.9347 48.4934C28.8803 57.1872 27.2685 67.353 29.4178 76.9819C29.6541 78.0438 29.9375 79.1024 30.2679 80.1576L30.3001 80.2575C30.7078 81.5446 31.1753 82.7949 31.7025 84.0085C35.5822 92.939 42.7193 100.048 51.7329 103.961C60.7465 107.874 70.9961 108.311 80.4987 105.19L80.6021 105.158C85.6468 103.49 90.3342 100.867 94.3967 97.4373C98.4592 94.0077 101.817 89.8393 104.279 85.1699L108.868 87.442L113.174 89.5793Z" fill="#F6F4FB"/>
<path d="M86.335 40.6732L101.738 89.3692C99.0818 93.218 95.7758 96.5962 91.9693 99.3515L81.8656 67.4112L73.7857 70.0821L69.8097 71.3988L58.4701 75.1487L63.2072 90.1232L51.5382 93.9836L48.4553 84.2119C47.9294 82.5527 47.38 80.8203 46.8073 79.0144C46.4064 77.7491 45.9943 76.4478 45.5709 75.1106C45.248 74.0885 44.9176 73.0452 44.5795 71.9806C43.9519 70.001 43.2994 67.9421 42.6219 65.8038C41.6514 62.7446 40.6293 59.5188 39.5555 56.1263C38.4608 52.6749 37.3091 49.0391 36.1003 45.2191C38.7965 41.4467 42.1238 38.1478 45.9343 35.4689L55.635 65.0217L78.2699 57.4638L74.6495 44.5316L86.335 40.6732Z" fill="#F6F4FB"/>
<path d="M99.2069 37.8715C98.9245 38.2251 98.5593 38.5061 98.144 38.6894C97.7287 38.8727 97.2764 38.9524 96.8277 38.9215C95.8413 38.8917 94.8216 38.4609 93.7686 37.6291C93.2277 37.2139 92.7379 36.7385 92.3083 36.2118C91.9585 35.7662 91.6458 35.2928 91.3733 34.7963L92.836 33.0285L93.0462 33.2006C93.1818 33.8274 93.4255 34.424 93.7667 34.9648C94.0827 35.4864 94.487 35.9495 94.9625 36.3346C95.0785 36.4261 95.2377 36.5335 95.4405 36.6624C95.6093 36.7747 95.7923 36.8654 95.9851 36.9325C96.1603 36.9853 96.3448 37.0053 96.5291 36.9914C96.622 36.9787 96.7117 36.9472 96.7925 36.8989C96.8734 36.8506 96.9436 36.7865 96.9988 36.7107C97.0652 36.6297 97.1124 36.5352 97.1367 36.4345C97.1609 36.3338 97.1617 36.2295 97.1388 36.1296C97.074 35.8542 96.9446 35.5992 96.7609 35.3847C96.5389 35.1005 96.2987 34.8063 96.037 34.507C95.7891 34.2209 95.5612 33.9185 95.3547 33.6015C94.9005 32.9101 94.6806 32.2841 94.695 31.7236C94.714 31.3646 94.8068 31.0114 94.9675 30.6853C95.1283 30.3592 95.3538 30.067 95.6302 29.8266C95.9067 29.5861 96.2284 29.4023 96.5758 29.2864C96.9232 29.1705 97.2891 29.1249 97.6512 29.1523C98.6233 29.2026 99.591 29.6079 100.554 30.3682C101.035 30.7497 101.476 31.1771 101.872 31.6444C102.225 32.0549 102.538 32.4978 102.807 32.9676L101.373 34.6291L101.163 34.4569C101.044 33.9413 100.843 33.4494 100.567 32.9992C100.276 32.5077 99.8972 32.0736 99.4482 31.7174C99.2863 31.5962 99.1172 31.4845 98.9417 31.3828C98.769 31.2818 98.5832 31.2037 98.389 31.1504C98.2234 31.0983 98.0468 31.0856 97.8733 31.1132C97.708 31.136 97.5566 31.2211 97.4512 31.3506C97.3749 31.4349 97.3213 31.5366 97.2954 31.6459C97.2696 31.7552 97.2723 31.8685 97.3034 31.975C97.4456 32.3255 97.6501 32.6468 97.9076 32.9242C98.1321 33.192 98.3468 33.4538 98.5501 33.7016C98.7741 33.9743 98.9824 34.2594 99.174 34.5556C99.5427 35.0639 99.7587 35.6667 99.7982 36.297C99.7994 36.8704 99.5893 37.43 99.2069 37.8715Z" fill="#F6F4FB"/>
<path d="M114.628 48.9221L104.572 50.5228L103.288 48.1544L110.095 40.5708L111.3 42.7961L106.445 48.0062L113.441 46.7668L114.628 48.9221Z" fill="#F6F4FB"/>
<path d="M108.539 65.788L107.919 60.3306L109.6 60.1027L109.776 61.6326L115.89 60.8066L115.716 59.2789L117.397 59.0511L118.01 64.5104L116.328 64.7382L116.155 63.2127L110.058 64.0279L110.232 65.5534L108.539 65.788Z" fill="#F6F4FB"/>
<path d="M113.691 82.784L114.427 79.9137L106.97 78.2425L107.573 75.8777L115.024 77.5551L115.761 74.6848L117.549 75.087L115.483 83.172L113.691 82.784Z" fill="#F6F4FB"/>
</svg>
