<svg xmlns:dc="http://purl.org/dc/elements/1.1/" xmlns:cc="http://creativecommons.org/ns#" xmlns:rdf="http://www.w3.org/1999/02/22-rdf-syntax-ns#" xmlns:svg="http://www.w3.org/2000/svg" xmlns="http://www.w3.org/2000/svg" xmlns:sodipodi="http://sodipodi.sourceforge.net/DTD/sodipodi-0.dtd" xmlns:inkscape="http://www.inkscape.org/namespaces/inkscape" version="1.1" id="svg2" xml:space="preserve" width="1862.9867" height="343.33334" viewBox="0 0 1862.9867 343.33334" sodipodi:docname="ABI_Logo_FullColor-White.eps"><metadata id="metadata8"><rdf:RDF><cc:Work rdf:about=""><dc:format>image/svg+xml</dc:format><dc:type rdf:resource="http://purl.org/dc/dcmitype/StillImage"/></cc:Work></rdf:RDF></metadata><defs id="defs6"><clipPath clipPathUnits="userSpaceOnUse" id="clipPath20"><path d="M 264.516,977.191 C 182.121,1006.72 99.3164,1028.05 17.2539,1042.12 42.0742,909.211 87.918,777.922 156.91,653.102 358.426,288.512 709.891,59.582 1091.91,0 1078.01,399.391 754.352,801.582 264.516,977.191 Z m 46.652,405.039 c 646.625,56.4 1144.322,560.25 1204.312,1172.88 -281.71,49.87 -581.652,7.42 -851.535,-141.75 C 271.785,2196.6 36.2578,1806.41 0,1391.24 c 100.887,-14.61 205.055,-18.26 311.168,-9.01 z M 1291.88,980.789 c -16.54,-359.648 96.94,-695.09 298.77,-961.1093 111.48,26.6094 221.3,68.2109 326.5,126.3513 626.09,346.059 853.09,1134.159 507.03,1760.259 -74.55,134.88 -169.7,251.11 -279.23,347.21 C 1662.4,2028.28 1318.03,1549.63 1291.88,980.789 Z" id="path18"/></clipPath><linearGradient x1="0" y1="0" x2="1" y2="0" gradientUnits="userSpaceOnUse" gradientTransform="matrix(2586.07,0,0,-2586.07,0,1287.52)" spreadMethod="pad" id="linearGradient26"><stop style="stop-opacity:1;stop-color:#cd9f28" offset="0" id="stop22"/><stop style="stop-opacity:1;stop-color:#ecd80b" offset="1" id="stop24"/></linearGradient></defs><sodipodi:namedview pagecolor="#ffffff" bordercolor="#666666" borderopacity="1" objecttolerance="10" gridtolerance="10" guidetolerance="10" inkscape:pageopacity="0" inkscape:pageshadow="2" inkscape:window-width="640" inkscape:window-height="480" id="namedview4"/><g id="g10" inkscape:groupmode="layer" inkscape:label="ink_ext_XXXXXX" transform="matrix(1.3333333,0,0,-1.3333333,0,343.33333)"><g id="g12" transform="scale(0.1)"><g id="g14"><g id="g16" clip-path="url(#clipPath20)"><path d="M 264.516,977.191 C 182.121,1006.72 99.3164,1028.05 17.2539,1042.12 42.0742,909.211 87.918,777.922 156.91,653.102 358.426,288.512 709.891,59.582 1091.91,0 1078.01,399.391 754.352,801.582 264.516,977.191 Z m 46.652,405.039 c 646.625,56.4 1144.322,560.25 1204.312,1172.88 -281.71,49.87 -581.652,7.42 -851.535,-141.75 C 271.785,2196.6 36.2578,1806.41 0,1391.24 c 100.887,-14.61 205.055,-18.26 311.168,-9.01 z M 1291.88,980.789 c -16.54,-359.648 96.94,-695.09 298.77,-961.1093 111.48,26.6094 221.3,68.2109 326.5,126.3513 626.09,346.059 853.09,1134.159 507.03,1760.259 -74.55,134.88 -169.7,251.11 -279.23,347.21 C 1662.4,2028.28 1318.03,1549.63 1291.88,980.789" style="fill:url(#linearGradient26);fill-opacity:1;fill-rule:nonzero;stroke:none" id="path28"/></g></g><path d="m 6859.37,228.961 h 373.45 V 2386.99 H 6859.37 V 228.961" style="fill:#ffffff;fill-opacity:1;fill-rule:nonzero;stroke:none" id="path30"/><path d="m 8359.76,1795.67 c -185.88,0 -363.77,-70.16 -478.58,-257.37 v 224.57 H 7544.99 V 228.949 h 359.55 v 812.491 c 0,63.56 5.64,124.38 16.9,168.9 41.36,165.45 159.22,261.54 332.75,261.54 179.26,0 282.58,-89.75 315.8,-269.16 7.99,-42.9 11.84,-104.06 11.84,-160.98 V 228.949 h 359.64 v 907.691 c 0,101.86 -10.19,193.91 -33.94,272.49 -78,260.68 -286.37,386.54 -547.77,386.54" style="fill:#ffffff;fill-opacity:1;fill-rule:nonzero;stroke:none" id="path32"/><path d="m 10142.7,580.301 c -39,-9.199 -104.1,-12.621 -146.17,-12.621 h -413.39 v 608.47 h 444.66 c 39.9,0 85.5,-4 117.7,-11.22 174.8,-38.78 241.8,-176.692 241.8,-292.578 0,-153.293 -98.5,-257.653 -244.6,-292.051 z M 9583.14,2048.23 h 331.58 c 75.62,0 155.98,-10.43 207.58,-34.23 90,-41.45 138.5,-118.94 138.5,-235.4 0,-117.02 -51.7,-197 -143.4,-238.21 -45.9,-20.61 -112.9,-31.51 -190.38,-31.51 h -70.88 -273 z m 839.76,-665.89 c 146,112.11 207.4,240.71 207.4,424.42 0,274.94 -170.4,481.13 -430.1,551.36 -67.4,18.16 -176.9,28.82 -304.4,28.82 H 9213.69 V 228.961 h 764.02 c 148.89,0 248.69,14.18 346.49,48.668 256,90.371 432.6,289.152 432.6,580.82 0,243.531 -115.8,416.961 -333.9,523.891" style="fill:#ffffff;fill-opacity:1;fill-rule:nonzero;stroke:none" id="path34"/><path d="m 13586.7,1762.89 -384.1,-1095.82 -389.7,1095.82 h -389.6 l 609.2,-1533.929 h 331.9 l 608,1533.929 h -385.7" style="fill:#ffffff;fill-opacity:1;fill-rule:nonzero;stroke:none" id="path36"/><path d="m 11246.8,1116.57 c 25.8,220.75 204.8,365.87 422.3,365.87 228.5,0 402.2,-151.25 427.8,-365.87 z m 419,679.08 c -436.6,0 -775.9,-351.36 -775.9,-810.49 0,-423.801 334.1,-788.98 791.2,-788.98 333.9,0 592.5,192.109 724.6,503.308 H 12040 c -82.4,-123.207 -192.8,-190.078 -352.8,-190.078 -238.3,0 -394.2,140.18 -441.5,355.871 h 1197.1 c 9,51.028 11.5,93.821 10.9,145.679 -3.9,412.28 -320,784.69 -787.9,784.69" style="fill:#ffffff;fill-opacity:1;fill-rule:nonzero;stroke:none" id="path38"/><path d="m 5911.81,567.949 h -444.45 v 620.291 c 56.34,2.37 111.62,3.64 165.05,3 404.17,-5.23 639.32,-122.87 639.33,-332.22 0,-188.411 -168.46,-291.071 -359.93,-291.071 z M 5467.36,2048.23 h 316.96 c 72.41,0 133.1,-8.24 174.68,-21.8 120.41,-39.25 186.07,-129.94 186.07,-276.19 0,-135.39 -68.16,-224.37 -176.34,-265.29 -102.97,17.5 -218.1,27.1 -346.54,27.21 -48.17,0.04 -101.16,-0.72 -154.83,-2.41 z M 3466.5,719.102 3945.96,1960.18 4224.88,1216.09 C 3936.32,1083.76 3679.07,913.949 3466.5,719.102 Z m 2837.44,660.218 c 155.55,113.79 210.59,283.96 210.59,427.44 0,274.94 -170.41,481.13 -430.05,551.38 -67.41,18.14 -176.89,28.8 -304.42,28.8 h -682.14 v -910.57 c -190.42,-28.84 -374.61,-73.88 -550.44,-132.68 l -425.79,1043.32 h -10.84 -324.9 -6.94 L 2898.29,228.961 h 359.35 c 310.52,328.309 681.24,563.898 1067.31,720.187 l 269.97,-720.187 h 407.49 l -341.07,835.749 c 145.99,41.57 292.21,72.48 436.58,93.52 V 228.961 l 185.43,-0.172 -0.06,-0.359 h 651.21 c 460.17,0 707.03,269.961 707.03,629.89 0,218.29 -108.1,403.83 -337.59,521" style="fill:#ffffff;fill-opacity:1;fill-rule:nonzero;stroke:none" id="path40"/></g></g></svg>