<svg width="618" height="182" viewBox="0 0 618 182" fill="none" xmlns="http://www.w3.org/2000/svg">
<path d="M141.406 0H82.1152L100.442 56.9223H159.733L111.766 90.8739L130.081 148.129C160.963 125.708 171.058 91.768 159.733 56.9223L141.406 0ZM4.49751 56.9223H63.8001L82.1152 0H22.8241L4.49751 56.9223C-6.81574 91.768 3.26728 125.697 34.1488 148.129L52.4753 90.8739L4.49751 56.9223ZM34.1488 148.129L82.1152 182L130.081 148.129L82.1152 113.741L34.1488 148.129ZM481.609 55.5239C467.571 55.5239 458.614 61.874 454.429 72.1902H453.371V25.309H432.32V147.842H453.843V94.645C453.843 81.4862 462.04 73.8981 473.584 73.8981C484.874 73.8981 491.542 81.0621 491.542 93.3842V147.853H513.053V89.785C513.053 67.8001 500.579 55.5239 481.609 55.5239V55.5239ZM571.287 25.1027C542.153 25.1027 524.631 47.8326 524.574 87.3205C524.516 126.809 542.038 149.951 571.287 149.951C600.536 149.951 618 127.026 618 87.3205C617.954 47.8899 600.375 25.1027 571.241 25.1027H571.287ZM546.775 87.3205C546.832 58.5155 556.249 43.3508 571.287 43.3508C581.565 43.3508 589.2 50.3887 593.051 63.9831L547.166 97.2241C546.855 94.1063 546.717 90.8166 546.729 87.3205H546.775ZM571.287 131.474C560.663 131.474 552.834 123.989 549.143 109.443L595.281 76.0301C595.665 79.7815 595.857 83.5498 595.856 87.3205C595.81 116.424 586.394 131.474 571.241 131.474H571.287ZM335.456 109.546C335.456 123.416 325.534 130.293 316.014 130.293C305.667 130.293 298.768 123.003 298.768 111.437V56.8191H277.257V114.796C277.257 136.666 289.732 149.057 307.69 149.057C321.372 149.057 330.995 141.882 335.157 131.68H336.111V147.865H356.979V56.8191H335.456V109.546ZM228.601 55.4436C209.401 55.4436 194.661 63.9716 189.901 80.5692L209.987 83.4119C212.126 77.1878 218.185 71.8578 228.705 71.8578C238.696 71.8578 244.168 76.9585 244.168 85.8992V86.2546C244.168 92.4213 237.684 92.7194 221.576 94.4387C203.871 96.33 186.993 101.603 186.993 122.155C186.993 140.059 200.122 149.538 217.541 149.538C231.866 149.538 240.432 142.844 244.352 135.199H245.065V147.704H265.76V86.736C265.691 62.6764 246.019 55.4436 228.601 55.4436ZM244.237 115.048C244.237 125.181 236.028 133.778 223.071 133.778C214.103 133.778 207.676 129.686 207.676 121.799C207.676 113.569 214.873 110.131 224.497 108.767C230.142 107.999 241.443 106.566 244.237 104.319V115.048ZM402.899 34.1121H381.41V56.8191H368.338V73.8752H381.41V124.31C381.284 141.435 393.77 149.859 409.947 149.378C413.648 149.302 417.325 148.762 420.892 147.773V130.786C419.259 131.004 415.442 131.497 412.683 131.554C407.268 131.68 402.933 129.663 402.933 121.009V73.921H420.949V56.8191H402.933L402.899 34.1121Z" fill="#635DFF"/>
</svg>
