<svg xmlns="http://www.w3.org/2000/svg" height="82.549" width="237.317"><defs><clipPath id="a" clipPathUnits="userSpaceOnUse"><path d="M0 61.912h177.988V0H0z"/></clipPath></defs><g clip-path="url(#a)" transform="matrix(1.33333 0 0 -1.33333 0 82.55)"><path d="M91.762 20.637l-5.541 9.604 5.199 5.66h-5.285l-5.406-6.076v11.45h-4.66V20.636h4.66v3.713l2.233 2.39 3.496-6.103zm69.232 0l-5.541 9.604 5.199 5.66h-5.225l-5.466-6.076v11.45h-4.66V20.636h4.66v3.713l2.233 2.39 3.496-6.103zM52.319 25.743c0-1.399-1.353-2.323-2.893-2.323-1.457 0-2.168.75-2.168 1.784 0 1.094.803 1.89 2.424 1.89 1.002 0 1.904-.172 2.637-.342zm6.359-4.843v3.234c-.2-.05-.501-.11-.793-.11-.616 0-.907.304-.907.874v5.35c0 4.001-2.682 6.14-7.128 6.14-2.883 0-5.37-1.053-6.921-2.43l2.595-2.923c1.038.903 2.42 1.492 3.747 1.492 2.054 0 3.047-1.028 3.047-2.734v-.5c-.986.238-2.198.46-3.7.46-3.754 0-6.184-1.794-6.184-4.797 0-3.064 2.028-4.676 5.178-4.676 2.16 0 4.068.881 5.087 2.028.61-1.506 1.917-1.913 3.216-1.913.856 0 1.878.147 2.763.505m39.2 10.772h3.609c2.245 0 3.322 1.256 3.322 2.765 0 1.773-1.035 2.744-3.322 2.744h-3.608zm6.92-11.035l-3.915 6.943h-3.004v-6.943h-4.854v20.637h8.735c4.726 0 8.036-2.25 8.036-6.7 0-2.846-1.414-4.83-3.904-6.075l4.526-7.862zm39.4 11.593c-1.295 2.696-3.706 4.197-7.348 4.197-4.31 0-8.152-2.707-8.152-8.057 0-5.23 3.382-8.122 8.087-8.122 3.307 0 6.087 1.32 7.385 4.17l-3.793 1.958c-.68-1.274-1.756-2.06-3.435-2.06-2.165 0-3.595 1.558-3.595 4.061 0 2.51 1.614 4.027 3.563 4.027 1.507 0 2.674-.698 3.373-2.177zm-69.291 0c-1.297 2.696-3.707 4.197-7.35 4.197-4.31 0-8.152-2.707-8.152-8.057 0-5.23 3.382-8.122 8.088-8.122 3.307 0 6.086 1.32 7.384 4.17l-3.793 1.958c-.68-1.274-1.756-2.06-3.434-2.06-2.165 0-3.596 1.558-3.596 4.061 0 2.51 1.615 4.027 3.563 4.027 1.507 0 2.675-.698 3.374-2.177zM28.83 26.884c0-1.354-.932-2.247-2.702-2.247h-4.236v4.494h4.236c1.688 0 2.702-.858 2.702-2.247m-.443 8.298c0-1.4-.896-2.215-2.605-2.215h-3.888v4.305h3.888c1.569 0 2.605-.696 2.605-2.09m5.6-8.598c0 2.316-1.201 4.105-3.353 4.89 2.039 1.105 2.756 2.587 2.756 4.311 0 3.012-2.181 5.49-7.045 5.49h-9.352V20.636h9.748c4.898 0 7.246 2.44 7.246 5.947m88.624 1.775c0-2.606-1.737-4.075-3.772-4.075-2.036 0-3.773 1.47-3.773 4.075 0 2.635 1.735 4.042 3.773 4.042 2.037 0 3.772-1.406 3.772-4.042m4.638.001c0 4.973-3.862 8.09-8.41 8.09-4.55 0-8.411-3.116-8.411-8.09 0-4.977 3.86-8.123 8.41-8.123 4.55 0 8.41 3.147 8.41 8.123M35.872 41.274h4.704V20.638H35.87z" fill="#0d0d0d"/><path d="M163.894 20.655c-.769 0-1.3.458-1.3 1.325 0 .86.531 1.317 1.3 1.317.761 0 1.292-.458 1.292-1.317 0-.867-.53-1.325-1.292-1.325m0 2.854c-.98 0-1.546-.613-1.546-1.529 0-.916.565-1.53 1.546-1.53.973 0 1.546.614 1.546 1.53s-.573 1.53-1.546 1.53" fill="#231f20"/><path d="M163.903 21.996h-.32v.532h.36c.189 0 .279-.098.279-.262 0-.204-.115-.27-.32-.27m.606.287c0 .294-.196.482-.564.482h-.638V21.26h.278v.499h.335l.27-.5h.31l-.293.54c.188.074.302.222.302.484" fill="#231f20"/></g></svg>