<?xml version="1.0" encoding="utf-8"?>
<!-- Generator: Adobe Illustrator 25.2.3, SVG Export Plug-In . SVG Version: 6.00 Build 0)  -->
<svg version="1.1" id="Layer_1" xmlns="http://www.w3.org/2000/svg" xmlns:xlink="http://www.w3.org/1999/xlink" x="0px" y="0px"
	 viewBox="0 0 325.2 522" style="enable-background:new 0 0 325.2 522;" xml:space="preserve">
<style type="text/css">
	.st0{fill:#E83F3F;}
</style>
<g>
	<polygon class="st0" points="80.1,306.9 53.4,306.9 0,229.6 54.1,148.6 101.7,148.6 47.6,227.4 101.7,306.9 	"/>
	<polygon class="st0" points="245.1,306.9 271.8,306.9 325.2,229.6 271.1,148.6 223.5,148.6 277.6,227.4 223.5,306.9 	"/>
	<path class="st0" d="M193.3,266c-5.4,8.2-13.3,13.3-22.1,13.3c-16.4,0-29.7-17.9-29.7-40s13.3-40,29.7-40c8.6,0,16.3,5,21.8,12.9
		l26.4-18.4c-11.8-16.8-29.9-27.6-50.2-27.6c-35.6,0-64.4,33.1-64.4,73.8s28.8,73.8,64.4,73.8c22,0,41.5-12.7,53.1-32L193.3,266z"/>
	<path class="st0" d="M164.2,0c-34.5,0-62.6,33-62.6,73.8s28,73.8,62.6,73.8s62.6-33,62.6-73.8C226.8,33,198.8,0,164.2,0z
		 M164.9,115.7c-15.4,0-27.9-18.2-27.9-40.6s12.5-40.6,27.9-40.6s27.9,18.2,27.9,40.6S180.3,115.7,164.9,115.7z"/>
	<polygon class="st0" points="144.1,334.3 189.1,334.3 242.7,522 199.9,522 167.1,388.6 132.9,522 91.9,522 	"/>
</g>
</svg>