<svg width="64" height="32" viewBox="0 0 64 32" fill="none" xmlns="http://www.w3.org/2000/svg">
<path d="M45.3105 9.09856C46.7428 9.09856 47.9039 7.96551 47.9039 6.56783C47.9039 5.17015 46.7428 4.03711 45.3105 4.03711C43.8782 4.03711 42.717 5.17015 42.717 6.56783C42.717 7.96551 43.8782 9.09856 45.3105 9.09856Z" fill="white"/>
<path d="M43.3362 12.5878V27.0045C43.3362 27.7841 44.3571 27.988 45.3781 27.988C46.399 27.988 47.42 27.7841 47.42 27.0045V12.5878C47.42 11.5443 46.399 11.4004 45.3781 11.4004C44.3689 11.4004 43.3362 11.5443 43.3362 12.5878Z" fill="white"/>
<path d="M51.9163 5.1874V27.0044C51.9163 27.784 52.9372 27.9879 53.9582 27.9879C54.9791 27.9879 56.0001 27.784 56.0001 27.0044V5.1874C56.0001 4.14393 54.9791 4 53.9582 4C52.9489 4 51.9163 4.14393 51.9163 5.1874Z" fill="white"/>
<path d="M22.589 19.4243C22.589 14.8906 26.133 10.8486 31.2494 10.8486C36.3425 10.8486 39.9686 14.8186 39.9686 19.4003C39.9686 24.3298 35.9435 28 31.2964 28C26.1447 27.988 22.589 23.946 22.589 19.4243ZM31.2377 24.4977C33.9602 24.4977 36.0021 22.2069 36.0021 19.3883C36.0021 16.5697 33.9602 14.3389 31.2377 14.3389C28.5152 14.3389 26.5085 16.6057 26.5085 19.4243C26.5085 22.2429 28.5152 24.4977 31.2377 24.4977Z" fill="white"/>
<path d="M20.2429 23.5709C20.2429 25.7658 15.2321 27.9847 11.7468 27.9847C7.47522 27.9847 3.47357 25.6458 1.43168 21.8797C0.469402 20.1286 0 18.1376 0 16.1466C0 13.8318 0.645427 11.517 1.91281 9.53797C2.92203 7.95477 4.83484 5.84383 8.20279 4.7164C9.04772 4.42855 10.5733 4.02075 12.2866 4.02075C17.098 4.02075 20.1256 7.46302 20.1256 10.4735C20.1256 12.5365 18.4827 15.475 14.4576 15.475C12.6152 15.475 11.9932 14.6834 11.9932 13.7718C11.9932 12.5485 13.108 11.1212 13.9178 11.1212C14.2581 11.1212 14.4693 11.469 15.1265 11.373C15.7719 11.2771 16.1122 10.8333 16.1122 10.2816C16.1122 9.23812 14.9035 7.84682 12.3335 7.84682C11.5121 7.84682 10.5498 7.99075 9.43497 8.33857C7.14664 9.04622 5.89099 10.7254 5.22209 11.7688C4.37717 13.0882 3.95471 14.6354 3.95471 16.1586C3.95471 17.466 4.27156 18.7733 4.89351 19.9247C6.24304 22.3955 8.89516 23.9427 11.7468 23.9427C15.678 23.9427 16.7811 21.7838 17.5791 21.436C18.9873 20.8003 20.2429 22.5394 20.2429 23.5709Z" fill="white"/>
</svg>
