<svg width="390" height="390" viewBox="0 0 390 390" fill="none" xmlns="http://www.w3.org/2000/svg">
<path d="M195.146 0.771484L0.693359 195.23L195.146 389.683L389.6 195.23L195.146 0.771484ZM195.146 377.298L12.9486 195.1L195.146 12.9017L377.344 195.1L195.146 377.298Z" fill="white"/>
<path d="M194.958 205.938C174.525 205.938 157.963 211.432 157.963 218.203V252.958C157.963 263.349 169.098 291.969 194.958 297.938C220.817 291.969 231.952 263.349 231.952 252.958V218.203C231.952 211.432 215.39 205.938 194.958 205.938ZM194.958 210.026C216.541 210.026 227.843 216.104 227.843 218.203V252.958C227.843 261.417 218.942 284.698 199.067 292.411V279.536H190.848V292.411C170.973 284.698 162.072 261.417 162.072 252.958V218.203C162.072 216.104 173.374 210.026 194.958 210.026ZM178.515 224.339C174.411 224.339 169.994 226.135 166.182 232.516C170.197 229.734 173.609 228.427 176.458 228.427C181.984 228.427 184.739 234.865 185.583 235.708C186.786 236.906 188.734 236.906 189.947 235.708C191.15 234.51 191.15 232.568 189.947 231.365C189.192 230.62 185.583 224.339 178.515 224.339ZM211.4 224.339C204.338 224.339 200.723 230.62 199.968 231.365C198.765 232.568 198.765 234.51 199.968 235.708C201.182 236.906 203.13 236.906 204.338 235.708C205.176 234.865 207.932 228.427 213.458 228.427C216.307 228.427 219.718 229.734 223.734 232.516C219.921 226.135 215.505 224.339 211.4 224.339ZM176.458 236.604C173.088 236.604 170.124 237.818 168.239 239.672C170.124 241.521 173.088 242.734 176.458 242.734C179.833 242.734 182.796 241.521 184.682 239.672C182.796 237.818 179.833 236.604 176.458 236.604ZM213.458 236.604C210.083 236.604 207.119 237.818 205.234 239.672C207.119 241.521 210.083 242.734 213.458 242.734C216.827 242.734 219.791 241.521 221.676 239.672C219.791 237.818 216.827 236.604 213.458 236.604ZM166.182 255.005L176.458 271.359H190.848L194.958 267.271L199.067 271.359H213.458L223.734 255.005L211.4 265.224H203.182L197.015 259.094H192.9L186.739 265.224H178.515L166.182 255.005Z" fill="white"/>
<path d="M73.6094 192.422H328.609" stroke="white" stroke-width="5.00211" stroke-linecap="round"/>
<path d="M89.9941 162.083C89.9941 165.964 91.6764 169.521 94.0775 172.083C96.515 174.641 100.036 176.198 103.833 176.198C110.354 176.198 115.468 171.88 117.072 165.521H113.109C111.671 169.76 108.072 172.203 103.833 172.203C101.156 172.203 98.4733 171.083 96.7129 169.24C94.9577 167.401 93.916 164.88 93.916 162.083C93.916 159.203 94.9941 156.724 96.7546 154.885C98.515 153.047 101.156 151.766 103.833 151.766C107.952 151.766 111.39 154.005 112.869 158.203H116.869C115.27 151.885 110.234 147.766 103.833 147.766C100.036 147.766 96.3952 149.526 93.9577 152.047C91.5566 154.604 89.9941 158.125 89.9941 162.083Z" fill="white"/>
<path d="M136.142 154.047L132.423 163.682L129.902 170.719L127.465 163.641L123.543 154.047H119.387L127.824 174.88L124.783 182.677H128.944L140.298 154.047H136.142Z" fill="white"/>
<path d="M148.092 157.167V148.006H144.176V176.001H148.092V173.084C149.655 175.443 152.613 176.318 155.29 176.36C162.853 176.36 166.488 171.042 166.488 165.084C166.488 159.245 162.691 154.006 155.374 154.006C152.691 154.006 149.973 154.605 148.092 157.167ZM148.092 165.162C148.092 160.006 151.733 157.443 155.374 157.443C160.171 157.443 162.572 161.282 162.572 165.162C162.572 169.084 160.129 172.881 155.332 172.881C151.733 172.881 148.092 170.36 148.092 165.162Z" fill="white"/>
<path d="M192.52 164.245C192.077 157.443 186.801 154.047 181.441 154.047C175.723 154.047 170.207 157.766 170.207 165.203C170.207 172.641 175.801 176.401 181.363 176.401C185.801 176.401 190.238 174.042 191.879 169.323H187.842C186.561 171.76 184.082 172.922 181.4 172.922C178.16 172.922 174.124 170.359 174.124 166.125H192.441C192.52 165.76 192.561 165.365 192.561 164.922C192.561 164.682 192.561 164.484 192.52 164.245ZM188.4 162.885H174.285C175.082 159.042 178.285 157.484 181.441 157.484C184.561 157.484 187.639 159.005 188.4 162.885Z" fill="white"/>
<path d="M201.556 157.048V154.407H197.676V176.001H201.556V164.282C201.556 160.324 204.592 157.407 208.233 157.407C208.874 157.407 209.551 157.485 210.233 157.683V154.245C209.353 154.048 208.514 153.928 207.671 153.928C205.275 153.928 203.113 154.886 201.556 157.048Z" fill="white"/>
<path d="M236.539 163.885V147.807H224.945V151.484H232.503V163.885C232.503 169.119 230.341 172.4 223.143 172.4C222.706 172.4 222.227 172.4 221.742 172.359V176.161C222.143 176.161 222.586 176.197 222.945 176.197C232.82 176.197 236.539 171.88 236.539 163.885Z" fill="white"/>
<path d="M258.57 173.161V175.999H262.289V154.166H258.372V166.124C258.372 169.921 256.133 172.838 252.013 172.838C247.294 172.838 246.258 170.041 246.258 165.999V154.166H242.336V165.999C242.336 172.202 245.174 176.317 251.732 176.317C254.534 176.317 256.971 175.52 258.57 173.161Z" fill="white"/>
<path d="M272.284 157.047V154.365H268.367V176H272.284V164.245C272.284 160.484 274.523 157.526 278.643 157.526C283.362 157.526 284.44 160.323 284.44 164.401V176H288.32V164.365C288.32 158.167 285.523 154.047 278.924 154.047C276.206 154.047 273.883 154.724 272.284 157.047Z" fill="white"/>
<path d="M301.714 160.766L298.396 164.725V148.006H294.475V176.001H298.396V169.402L301.193 166.402L308.475 176.001H312.99V175.641L303.714 163.683L312.433 154.365H307.714L301.714 160.766Z" fill="white"/>
</svg>
