<svg xmlns="http://www.w3.org/2000/svg" height="213.053" width="947.333"><path d="M108.447 135.239c8.534-.667 19.347-4.252 19.347-28.52 0-24.266-12.574-29.332-19.453-29.439-.841 0-5.334 0-6.227.173v57.786zm-35.32 24.4l.294-106.666h37.466c29.04 0 46.373 18.507 45.773 54.214-.587 34.225-18.667 52.453-45.92 52.453H73.128" fill="#e33241"/><path d="M156.887 165.267c-32.79 28.357-82.358 24.763-110.716-8.026-28.357-32.788-24.765-82.357 8.024-110.714 32.79-28.358 82.36-24.766 110.717 8.024 28.217 32.627 24.817 81.91-7.612 110.354h38.333c32.239-49.209 18.482-115.236-30.728-147.473C115.695-14.807 49.67-1.049 17.431 48.16-14.808 97.37-1.051 163.397 48.159 195.635c32.635 21.38 74.348 23.209 108.728 4.765v-35.133" fill="#e33241"/><path d="M195.793 188.773c0 8.049-6.524 14.574-14.573 14.574-8.048 0-14.573-6.525-14.573-14.574 0-8.048 6.525-14.573 14.573-14.573h.013c8.044.006 14.56 6.53 14.56 14.573" fill="#e33241"/><path d="M300.287 81.36a30.504 30.504 0 0 0-1.334-9.427 19.904 19.904 0 0 0-3.88-7.12 16.828 16.828 0 0 0-6.213-4.493 20.96 20.96 0 0 0-8.36-1.573h-10.92v45.266h10.92a21.231 21.231 0 0 0 8.36-1.56 16.973 16.973 0 0 0 6.213-4.493 20 20 0 0 0 3.88-7.133 30.645 30.645 0 0 0 1.334-9.467zm16.72 0a36.75 36.75 0 0 1-2.667 14.08 32.68 32.68 0 0 1-7.413 11.16 33.594 33.594 0 0 1-11.52 7.346 40.662 40.662 0 0 1-14.959 2.667h-27.321V46.187h27.346a40.408 40.408 0 0 1 14.96 2.666 33.981 33.981 0 0 1 11.52 7.347 32.58 32.58 0 0 1 7.414 11.133 36.749 36.749 0 0 1 2.64 14.027m62.266 0a29.879 29.879 0 0 0-1.333-9.2 19.365 19.365 0 0 0-3.8-6.92 16.43 16.43 0 0 0-6.079-4.36 21.081 21.081 0 0 0-8.174-1.507 21.328 21.328 0 0 0-8.254 1.507 16.536 16.536 0 0 0-6.106 4.36 19.362 19.362 0 0 0-3.799 6.92 29.879 29.879 0 0 0-1.333 9.2 29.895 29.895 0 0 0 1.333 9.24 19.426 19.426 0 0 0 3.799 6.933 16.302 16.302 0 0 0 6.106 4.32 21.334 21.334 0 0 0 8.254 1.494 21.09 21.09 0 0 0 8.174-1.494 16.19 16.19 0 0 0 6.079-4.32 19.43 19.43 0 0 0 3.8-6.933 29.935 29.935 0 0 0 1.333-9.24zm16.347 0a36.94 36.94 0 0 1-2.573 13.893 32.854 32.854 0 0 1-18.534 18.668 41.185 41.185 0 0 1-29.333 0 32.912 32.912 0 0 1-18.6-18.668 38.83 38.83 0 0 1 0-27.8 32.747 32.747 0 0 1 18.6-18.573 38.515 38.515 0 0 1 14.667-2.667 38.038 38.038 0 0 1 14.666 2.667 33.593 33.593 0 0 1 11.28 7.44 33.152 33.152 0 0 1 7.254 11.16 36.815 36.815 0 0 1 2.573 13.88m86.187-35.173v70.4h-14.4V76.093c0-.933.026-1.946.08-3.04 0-1.106.133-2.213.268-3.346l-18.667 36.2a6.24 6.24 0 0 1-2.333 2.559 6.578 6.578 0 0 1-3.36.867h-2.268a6.578 6.578 0 0 1-3.36-.867 6.248 6.248 0 0 1-2.346-2.56l-18.666-36.293c.092 1.16.172 2.294.238 3.414.068 1.12.095 2.133.095 3.066v40.494h-14.401v-70.4h14.333c.487.029.968.128 1.428.293.424.168.81.421 1.132.747.396.426.728.906.987 1.426l18.12 35.707c.653 1.226 1.333 2.493 1.866 3.813.535 1.32 1.16 2.667 1.707 4 .552-1.413 1.125-2.8 1.72-4.16.6-1.333 1.227-2.666 1.907-3.867l18.08-35.56a5.765 5.765 0 0 1 .986-1.426c.323-.325.708-.58 1.135-.747a5.007 5.007 0 0 1 1.425-.293h1.854l12.44.067M535.3 89.666l-6.519-19.28c-.494-1.226-1-2.666-1.548-4.32a155.656 155.656 0 0 1-1.64-5.333c-.492 1.96-1 3.787-1.545 5.454a80.296 80.296 0 0 1-1.547 4.346L516.02 89.72zm25.947 26.921h-12.654a5.502 5.502 0 0 1-3.466-1 6.184 6.184 0 0 1-1.974-2.534l-4.158-12.267h-26.748l-4.146 12.267a5.964 5.964 0 0 1-1.908 2.44 5.343 5.343 0 0 1-3.412 1.094H490.02l27.255-70.4h16.72l27.252 70.4m24.641 0H569.46v-70.4h16.428v70.4m72.025-70.4v70.4h-8.506a7.314 7.314 0 0 1-3.174-.613 7.7 7.7 0 0 1-2.533-2.094l-33.24-41.987c.12 1.254.213 2.467.268 3.64.053 1.174.065 2.28.065 3.307v37.747h-14.398v-70.4h8.6a13.51 13.51 0 0 1 1.786.093c.459.055.908.176 1.334.36.405.187.78.439 1.106.747.436.414.842.858 1.214 1.333L643.913 91a57.756 57.756 0 0 1-.333-4 70.596 70.596 0 0 1-.093-3.6V46.187h14.426m11.734 61.599a8.515 8.515 0 0 1 .693-3.453 8.407 8.407 0 0 1 1.907-2.773 8.788 8.788 0 0 1 2.854-1.84 9.076 9.076 0 0 1 3.599-.694 8.95 8.95 0 0 1 3.547.693 9.065 9.065 0 0 1 2.88 1.84 8.47 8.47 0 0 1 2.666 6.227 8.611 8.611 0 0 1-5.506 8.12 9.195 9.195 0 0 1-3.547.681 9.35 9.35 0 0 1-3.6-.681 8.488 8.488 0 0 1-4.759-4.652 8.634 8.634 0 0 1-.734-3.468m77.72-6.2c.514.008 1 .236 1.333.627l3.707 4a29.502 29.502 0 0 1-10.267 7.64 35.06 35.06 0 0 1-14.585 2.747 34.242 34.242 0 0 1-13.454-2.573 29.668 29.668 0 0 1-10.308-7.227 32.645 32.645 0 0 1-6.666-11.08 41.488 41.488 0 0 1-2.359-14.28 40.196 40.196 0 0 1 2.453-14.267 32.804 32.804 0 0 1 6.894-11.146 30.911 30.911 0 0 1 10.666-7.24 35.53 35.53 0 0 1 13.692-2.56 33.561 33.561 0 0 1 12.975 2.346 32.73 32.73 0 0 1 9.892 6.4l-3.065 4.267a2.88 2.88 0 0 1-.748.8 2.231 2.231 0 0 1-1.227.307 3.825 3.825 0 0 1-2.12-.934 31.727 31.727 0 0 0-3.267-2.093 25.242 25.242 0 0 0-5.04-2.093 25.954 25.954 0 0 0-7.453-.934 24.847 24.847 0 0 0-9.747 1.854 21.08 21.08 0 0 0-7.626 5.333 24.656 24.656 0 0 0-4.974 8.547 34.127 34.127 0 0 0-1.773 11.386 33.083 33.083 0 0 0 1.853 11.493 25.348 25.348 0 0 0 5.04 8.534 21.437 21.437 0 0 0 7.547 5.333 24.011 24.011 0 0 0 9.333 1.827c1.86.013 3.718-.108 5.56-.36a22.135 22.135 0 0 0 4.56-1.134 18.69 18.69 0 0 0 3.894-1.946c1.27-.838 2.47-1.78 3.586-2.813a2.442 2.442 0 0 1 1.694-.76m66.986-20.161a34.936 34.936 0 0 0-1.733-11.4 23.999 23.999 0 0 0-4.905-8.533 21.392 21.392 0 0 0-7.695-5.333 28.18 28.18 0 0 0-20.173 0 21.635 21.635 0 0 0-7.72 5.333 24.095 24.095 0 0 0-4.934 8.534 35.306 35.306 0 0 0-1.733 11.4 34.962 34.962 0 0 0 1.733 11.373 24.166 24.166 0 0 0 4.934 8.52 21.348 21.348 0 0 0 7.72 5.333 28.372 28.372 0 0 0 20.173 0 21.188 21.188 0 0 0 7.695-5.333 24.135 24.135 0 0 0 4.905-8.52 34.636 34.636 0 0 0 1.733-11.374zm9.574 0a39.637 39.637 0 0 1-2.454 14.214 32.536 32.536 0 0 1-6.918 11.133 31.156 31.156 0 0 1-10.762 7.24 38.657 38.657 0 0 1-27.745 0 31.138 31.138 0 0 1-10.735-7.24 32.562 32.562 0 0 1-6.853-11.133 39.725 39.725 0 0 1-2.453-14.214 39.75 39.75 0 0 1 2.453-14.213 32.718 32.718 0 0 1 6.921-11.146 31.062 31.062 0 0 1 10.734-7.294 38.49 38.49 0 0 1 27.745 0 31.062 31.062 0 0 1 10.76 7.294 32.715 32.715 0 0 1 6.92 11.146 39.69 39.69 0 0 1 2.387 14.213m80.294-35.239v70.4h-8.348V64.853c0-.693 0-1.426.068-2.213.066-.787.107-1.587.174-2.413l-24.174 44a3.654 3.654 0 0 1-3.44 2.213h-1.333a3.677 3.677 0 0 1-3.44-2.214L839.033 60.04c.184 1.597.282 3.204.295 4.813v51.734h-8.361v-70.4h7.028a6.317 6.317 0 0 1 1.972.24 2.84 2.84 0 0 1 1.333 1.333l24.32 43.333c.387.787.775 1.6 1.161 2.454.387.853.72 1.72 1.054 2.666.318-.893.666-1.76 1.025-2.666.353-.847.75-1.675 1.187-2.48l23.866-43.28a2.667 2.667 0 0 1 1.334-1.334 6.455 6.455 0 0 1 1.986-.24l6.988-.026" fill="#100f0d"/><path d="M926.781 55.48a2.998 2.998 0 0 0 2.039-.533c.419-.396.639-.959.6-1.534a2.4 2.4 0 0 0-.133-.853 1.339 1.339 0 0 0-.399-.6 1.69 1.69 0 0 0-.748-.347 4.712 4.712 0 0 0-1.16-.12h-1.72v4zm.199-5.573c1.18-.09 2.357.2 3.36.826a2.862 2.862 0 0 1 1.08 2.427 3.224 3.224 0 0 1-.692 2.093 3.586 3.586 0 0 1-2.081 1.187c.144.096.274.213.386.347.116.141.219.293.307.453l2.988 4.387h-1.948a.697.697 0 0 1-.64-.32l-2.667-4a.863.863 0 0 0-.28-.267 1.18 1.18 0 0 0-.506-.093h-1.04V61.6h-2.04V49.907zm.16 14.293a8.152 8.152 0 0 0 2.227-.293 8.201 8.201 0 0 0 3.681-2.147 8.233 8.233 0 0 0 1.333-1.707 8.774 8.774 0 0 0 .84-2.013c.192-.732.29-1.484.292-2.24a8.301 8.301 0 0 0-.653-3.307 8.58 8.58 0 0 0-1.773-2.666 8.287 8.287 0 0 0-2.667-1.814 8.137 8.137 0 0 0-3.267-.666 8.06 8.06 0 0 0-2.212.306 7.979 7.979 0 0 0-3.654 2.187 8.033 8.033 0 0 0-1.334 1.707 8.797 8.797 0 0 0-.826 2.026 9.146 9.146 0 0 0-.28 2.267 8.936 8.936 0 0 0 .28 2.24c.19.703.468 1.379.826 2.013.366.627.815 1.2 1.334 1.707.498.51 1.058.959 1.666 1.333a8.529 8.529 0 0 0 1.988.84 7.978 7.978 0 0 0 2.199.227zm0-18.013a9.53 9.53 0 0 1 2.56.333 9.696 9.696 0 0 1 2.295.973c.709.438 1.364.962 1.946 1.56a9.797 9.797 0 0 1 2.466 4.24 9.58 9.58 0 0 1 .333 2.56 9.456 9.456 0 0 1-.333 2.534 9.033 9.033 0 0 1-.972 2.293 9.684 9.684 0 0 1-1.494 1.947 10.178 10.178 0 0 1-1.946 1.493 9.191 9.191 0 0 1-2.295.973 9.59 9.59 0 0 1-2.56.347 9.534 9.534 0 0 1-2.547-.387 9.141 9.141 0 0 1-2.28-.973 9.346 9.346 0 0 1-3.44-3.44 9.183 9.183 0 0 1-.973-2.28 9.595 9.595 0 0 1 0-5.107 9.253 9.253 0 0 1 .973-2.293 9.62 9.62 0 0 1 1.494-1.907 10.15 10.15 0 0 1 1.946-1.506 9.592 9.592 0 0 1 2.28-.974 9.428 9.428 0 0 1 2.547-.386" fill="#939494"/><text style="-inkscape-font-specification:Lato-Medium" transform="translate(250.832 183.415) scale(1.33333)" font-weight="500" font-size="48" font-family="Lato" fill="#100f0d"><tspan y="0" x="0 13.272503 40.128014 52.247108 79.247108 103.22272 120.81352 138.18951 165.04591 190.46191 207.90923 228.76472 255.62025 267.30774 294.30777 305.44345 343.33798 355.02747 372.4025 399.25803">In partnership with</tspan></text><path d="M854.748 159.217c.153.1.216.178.279.179 3.352.017 6.702.07 10.054.017.956-.014 1.531-.724 1.724-1.668.204-1.001.398-2.005.579-3.01.18-1.006-.555-1.979-1.57-1.991a327.37 327.37 0 0 0-7.927.003c-1.102.014-1.9.726-2.174 1.682-.452 1.574-.66 3.215-.965 4.788zm-2.055 8.806a7484.48 7484.48 0 0 1-.622 4.03c-.198 1.287.542 2.192 1.865 2.204 2.527.023 5.056.026 7.583 0 1.496-.014 2.39-1.052 2.826-3.23h10.378c-.351 2.053-.676 4.028-1.042 5.993-.044.244-.284.463-.458.67-1.746 2.038-3.468 4.095-5.268 6.083-.338.374-.992.65-1.503.652-6.2.044-12.401.048-18.604-.005-.52-.004-1.196-.36-1.528-.773a112.317 112.317 0 0 1-4.344-5.762c-.321-.456-.528-1.17-.441-1.708a2709.05 2709.05 0 0 1 3.973-23.896c.07-.413.352-.871.673-1.149a327.703 327.703 0 0 1 7.246-6.098 2.719 2.719 0 0 1 1.58-.571 958.163 958.163 0 0 1 16.35.006c.535.006 1.223.324 1.57.73 1.586 1.858 3.093 3.786 4.589 5.721.235.304.421.788.365 1.15-.46 2.997-.952 5.99-1.512 8.971-.096.52-.454 1.08-.858 1.434a152.156 152.156 0 0 1-5.807 4.864c-.476.376-1.18.648-1.781.654-4.66.054-9.322.03-13.982.03h-1.248m76.304-34.138c-.728 4.54-1.425 8.875-2.178 13.575 1.205-.945 2.09-1.715 3.057-2.367.487-.33 1.115-.617 1.684-.628 3.199-.059 6.4-.059 9.599.004.497.01 1.14.322 1.45.706 1.51 1.872 2.951 3.801 4.366 5.748.245.336.405.869.341 1.27-1.677 10.587-3.388 21.167-5.095 31.748-.018.114-.053.224-.102.423h-9.628c.445-2.792.87-5.504 1.309-8.215.907-5.6 1.779-11.205 2.759-16.793.268-1.526-.632-2.536-1.216-3.699-.106-.208-.608-.3-.93-.306-1.697-.028-3.425-.2-5.085.054-1.044.162-1.979.999-2.98 1.499-.98.49-1.308 1.284-1.472 2.34-1.245 8.02-2.55 16.03-3.841 24.043-.056.342-.154.68-.247 1.08h-10.14c.381-2.349.743-4.595 1.113-6.84 1.779-10.726 3.563-21.452 5.34-32.179.58-3.497 1.131-7 1.747-10.492.063-.356.483-.922.747-.93 3.072-.065 6.144-.04 9.402-.04m-16.694 23.732h-10.756c-.063-.155-.119-.226-.115-.294.22-3.95-.732-3.265-3.315-3.268h-5.332c-2.017.001-2.938.78-3.256 2.73-.837 5.131-1.681 10.262-2.517 15.394-.292 1.795.363 2.556 2.18 2.557 2.093.002 4.188.002 6.28.002 2.348-.002 3.147-.655 3.575-2.931.044-.23.081-.461.136-.773h10.978c-.34 1.958-.65 3.89-1.029 5.812-.07.352-.383.677-.635.971-1.701 1.971-3.386 3.958-5.152 5.87-.368.401-1.044.73-1.581.735-6.201.05-12.403.05-18.603-.001-.528-.005-1.209-.345-1.549-.751a110.306 110.306 0 0 1-4.496-5.795c-.341-.473-.528-1.24-.436-1.815 1.27-7.893 2.59-15.778 3.939-23.658.089-.53.396-1.123.79-1.481a254.782 254.782 0 0 1 6.774-5.92c.378-.32.97-.538 1.464-.542 5.965-.036 11.928-.037 17.893.005.455.004 1.067.296 1.333.657 1.384 1.867 2.694 3.79 3.992 5.72.223.331.419.802.366 1.173-.26 1.862-.607 3.714-.928 5.603m-72.791 13.532c-.312 1.902-.597 3.73-.928 5.547-.06.326-.268.652-.484.916-1.677 2.043-3.352 4.088-5.084 6.084-.283.327-.84.584-1.273.588a678.95 678.95 0 0 1-13.388-.002c-.422-.004-.972-.303-1.238-.642-1.46-1.86-2.892-3.748-4.233-5.694-.359-.52-.588-1.32-.49-1.93 1.086-6.844 2.247-13.677 3.387-20.514.071-.427.115-.858.194-1.443h-5.142c.515-3.23 1.003-6.28 1.52-9.53 1.335 0 2.662-.037 3.986.014.78.03 1.101-.219 1.224-1.026.43-2.84.97-5.667 1.416-8.506.133-.845.44-1.177 1.356-1.157 2.801.063 5.608.021 8.41.026.346.002.69.05 1.095.08-.599 3.536-1.179 6.975-1.787 10.573h9.063c-.495 3.095-.943 6.04-1.472 8.972-.04.222-.653.475-1.005.482-2.487.041-4.975.023-7.464.023h-1.376c-.476 2.762-.948 5.432-1.399 8.104-.528 3.146-1.032 6.296-1.561 9.442-.34 2.012.221 2.75 2.23 2.692 1.25-.034 2.658.463 3.636-.78.299-.377.603-.841.663-1.296.104-.797.344-1.167 1.24-1.149 2.644.056 5.29.017 7.939.025.304.002.609.062.965.1m-38.319-1.904c4.424-.004 7.788 3.36 7.774 7.77-.015 4.41-3.391 7.77-7.806 7.769-4.41-.003-7.752-3.367-7.749-7.8.004-4.462 3.295-7.735 7.781-7.739" fill="#231f20"/></svg>