<svg id="GD_REGISTRY_RGB_BLACK" xmlns="http://www.w3.org/2000/svg" viewBox="0 0 1837.6 297.5"><defs><style>.cls-1{fill:white;}</style></defs><path class="cls-1" d="M293.59,52.67C269.07,37.34,236.79,41,208,59.09,179.3,41,147,37.35,122.51,52.67,83.77,76.87,79.06,139.23,112,191.94c24.28,38.86,62.25,61.63,96.05,61.2,33.8.43,71.77-22.34,96.05-61.2C337,139.23,332.33,76.87,293.59,52.67ZM129.81,180.81A126.19,126.19,0,0,1,114.61,146a99.48,99.48,0,0,1-3.3-32.81c1.47-19.47,9.4-34.64,22.32-42.72s30-8.55,48.19-1.33a88,88,0,0,1,8.11,3.74,149,149,0,0,0-26.12,31.39c-20,32-26.1,67.62-19.12,96.05A130.22,130.22,0,0,1,129.81,180.81ZM301.5,146a126.49,126.49,0,0,1-15.2,34.81,130.29,130.29,0,0,1-14.88,19.5c6.24-25.44,2-56.62-13.3-85.86a3.85,3.85,0,0,0-5.53-1.51l-47.7,29.81a3.89,3.89,0,0,0-1.24,5.37l7,11.2a3.9,3.9,0,0,0,5.37,1.24l30.92-19.32c1,3,2,6,2.75,9A99.48,99.48,0,0,1,253,183c-1.47,19.47-9.4,34.64-22.32,42.72a43.62,43.62,0,0,1-22.11,6.4h-1a43.57,43.57,0,0,1-22.11-6.4c-12.93-8.08-20.86-23.25-22.33-42.72a99.75,99.75,0,0,1,3.3-32.81,129.85,129.85,0,0,1,39.82-63.73,99.49,99.49,0,0,1,28-17.34c18.14-7.22,35.25-6.74,48.18,1.33s20.85,23.25,22.32,42.72A99.73,99.73,0,0,1,301.5,146Z"/><path class="cls-1" d="M547.56,122.8c25.25,0,45.52,19.58,45.52,44.49,0,24.73-20.27,44-45.52,44-25.08,0-45.35-19.24-45.35-44,0-24.91,20.27-44.49,45.35-44.49m0,65.23c11.73,0,20.53-9.35,20.53-20.91S559.29,146,547.56,146c-11.56,0-20.36,9.52-20.36,21.08S536,188,547.56,188m164.66-39.46c0,35.72-25.67,60.29-62.6,60.29H603.48a3.75,3.75,0,0,1-3.78-4V92.4a3.7,3.7,0,0,1,3.78-3.78h46.14c36.93,0,62.6,24,62.6,59.95m-27,0c0-21-14.09-36.25-34.53-36.25H625.47v72.83h25.25c20.44,0,34.53-16,34.53-36.58m73.83-25.77c11.16,0,20.09,4.81,24,11.34V129a3.91,3.91,0,0,1,3.61-3.78h17.35a3.67,3.67,0,0,1,3.61,3.78v76.27a3.53,3.53,0,0,1-3.61,3.61H786.73a3.63,3.63,0,0,1-3.61-3.61v-5.33c-4,6.53-13,11.34-24.21,11.34-21.65,0-41.75-17.35-41.75-44.32,0-27.14,20.27-44.14,41.92-44.14m4.64,65.4c11.5,0,20.12-8.83,20.12-21.08S775.22,146,763.72,146s-20.12,8.82-20.12,21.08,8.62,21.08,20.12,21.08M856,122.8c11.34,0,20.44,4.81,24.39,11V92.22a3.66,3.66,0,0,1,3.78-3.6h17.35a3.52,3.52,0,0,1,3.61,3.6v113a3.53,3.53,0,0,1-3.61,3.61H884.12a3.63,3.63,0,0,1-3.6-3.61v-5.32c-4.64,6.52-13.06,11.33-24.22,11.33-21.65,0-41.75-17.35-41.75-44.31,0-27.15,19.93-44.15,41.4-44.15m5.16,65.62c11.45,0,20-8.92,20-21.3s-8.58-21.3-20-21.3-20,8.92-20,21.3,8.58,21.3,20,21.3m92.23-65.62c11.34,0,20.44,4.81,24.4,11V92.22a3.66,3.66,0,0,1,3.77-3.6h17.35a3.52,3.52,0,0,1,3.61,3.6v113a3.53,3.53,0,0,1-3.61,3.61H981.51a3.63,3.63,0,0,1-3.6-3.61v-5.32c-4.64,6.52-13.06,11.33-24.22,11.33C932,211.26,912,193.91,912,167c0-27.15,19.92-44.15,41.39-44.15m5.16,65.62c11.45,0,20-8.92,20-21.3s-8.58-21.3-20-21.3-20,8.92-20,21.3,8.58,21.3,20,21.3m132.06-63.22h-17.31c-2.75,0-4.12,1.89-4.63,4l-16,59.74-17.11-59.74c-1-3.19-2.54-4-4.78-4h-18.24c-4.3,0-5.09,2.93-4.23,5.85l23.16,74.2c.68,2.06,2.06,3.61,4.63,3.61h10.49l-2.23,7.36c-2.19,6.37-6.28,8.08-11.61,8.08-4.57,0-7.57-1.8-10.81-3.9a5.94,5.94,0,0,0-3.41-1.18c-1.56,0-2.63.7-4.08,2.84l-5.14,7.7c-1,1.6-1.55,2.48-1.55,4.18,0,2.73,2.73,4.45,6,6.32,5.64,3.21,12.82,4.82,20.71,4.82,17.34,0,28.51-9.44,33.49-25.24l25.9-88.79C1095,127.61,1094,125.2,1090.56,125.2Zm-617,67.25c-9.09,11.48-24.9,18.71-42.78,18.71-33.58,0-59.82-25.26-59.82-61.22,0-37.37,28.33-63.14,64.12-63.14,26.42,0,47.54,11.37,56.92,34.22a5.21,5.21,0,0,1,.43,1.9c0,1.09-.71,1.91-3,2.7l-16.73,6.44a4.29,4.29,0,0,1-3.16.05,4.89,4.89,0,0,1-2-2.29c-5.95-11.41-16.68-19.17-33.12-19.17-21.32,0-36.59,16.66-36.59,38.25,0,20.93,13,38.13,37.2,38.13,12.73,0,22.88-6,27.61-12.58H447.5a3.86,3.86,0,0,1-3.92-3.92V157.64a3.85,3.85,0,0,1,3.92-3.92h44.25a3.72,3.72,0,0,1,3.92,3.75V204.9a3.86,3.86,0,0,1-3.92,3.92H477.43a3.85,3.85,0,0,1-3.92-3.92Zm631.36-83.25a1.15,1.15,0,0,0-.37-.89,1.45,1.45,0,0,0-1-.33H1102v2.45h1.48a1.45,1.45,0,0,0,1-.34,1.15,1.15,0,0,0,.38-.89m-3.16,6.17h-1.53a.29.29,0,0,1-.21-.09.26.26,0,0,1-.1-.21v-8.62a.26.26,0,0,1,.1-.19.29.29,0,0,1,.21-.1h3.39a3.72,3.72,0,0,1,2.56.86,2.8,2.8,0,0,1,1,2.2,2.65,2.65,0,0,1-.47,1.53,3.07,3.07,0,0,1-1.26,1.1l2,3a.28.28,0,0,1,0,.32.31.31,0,0,1-.29.14h-1.52a.67.67,0,0,1-.33-.07,1.15,1.15,0,0,1-.27-.27l-1.72-2.75H1102v2.82a.26.26,0,0,1-.1.21.26.26,0,0,1-.21.09m1.64,1.75a6,6,0,0,0,4.46-1.83,6.6,6.6,0,0,0,0-9.08,6,6,0,0,0-4.46-1.86,6,6,0,0,0-4.49,1.86,6.57,6.57,0,0,0,0,9.08,6.08,6.08,0,0,0,4.49,1.83m-5.55-.85a7.37,7.37,0,0,1-1.69-2.51,7.85,7.85,0,0,1,0-6,7.6,7.6,0,0,1,4.22-4.16,8.11,8.11,0,0,1,3-.57,7.92,7.92,0,0,1,3,.58,7.69,7.69,0,0,1,2.51,1.64,7.62,7.62,0,0,1,2.28,5.52,7.91,7.91,0,0,1-.58,3,7.71,7.71,0,0,1-4.21,4.16,8.29,8.29,0,0,1-6,0,7.64,7.64,0,0,1-2.53-1.65"/><path class="cls-1" d="M1231.23,207.54h-7.81q-2.39,0-4.08-2.72l-27.85-47.9h-39.92v47.73a2.9,2.9,0,0,1-2.88,2.89h-6.46a2.9,2.9,0,0,1-2.89-2.89V91.53a2.9,2.9,0,0,1,2.89-2.89h48.24q18.51,0,29.3,9.26t10.78,24.37a34.4,34.4,0,0,1-6.28,19.62q-6.29,9.26-20.55,12.82l29.38,49.94a1.46,1.46,0,0,1,0,1.87A2.14,2.14,0,0,1,1231.23,207.54Zm-40.42-61q12.56,0,19.87-6.54t7.3-17.24q0-10.53-7.3-16.9t-19.87-6.37h-39.24v47.05Z"/><path class="cls-1" d="M1286,123q17.73,0,29.51,11.61t11.79,29.87v2.3c0,2-1,3-2.84,3h-68.06a31.39,31.39,0,0,0,9.4,20.92A29,29,0,0,0,1286.9,199q14.36,0,25-12.06c1.3-1.53,2.71-1.77,4.25-.71l5.14,3.2c1.42.94,1.65,2.18.71,3.72a36.11,36.11,0,0,1-14.53,12.23,47.77,47.77,0,0,1-20.92,4.43q-18.6,0-30.66-12.32t-12.05-30.93q0-18.42,12-31T1286,123Zm29.25,37.75q-1.24-12.57-9.31-19.93T1286,133.46a27.52,27.52,0,0,0-19.76,7.71,31.28,31.28,0,0,0-9.48,19.58Z"/><path class="cls-1" d="M1381.16,236.08q14.53,0,22.15-7.63t7.62-20.38v-16.3a30.3,30.3,0,0,1-12.23,12.67,36.12,36.12,0,0,1-18.6,4.87q-17.55,0-29.51-12.14t-12-30.92q0-18.78,12-30.93a39.59,39.59,0,0,1,29.33-12.14,36,36,0,0,1,18.78,5,30.57,30.57,0,0,1,12.23,12.94V128.32a2.94,2.94,0,0,1,.89-2.13,2.9,2.9,0,0,1,2.13-.88h6.38a2.61,2.61,0,0,1,2,.88,3.07,3.07,0,0,1,.8,2.13v79.93q0,17-11.16,27.65t-31.2,10.63q-16.12,0-26.49-7.26a31.71,31.71,0,0,1-13.2-19q-.72-2.66,1.94-3l6.39-1.77q3-.54,3.54,1.95a23.09,23.09,0,0,0,9.13,13.29Q1369.28,236.07,1381.16,236.08ZM1351,166.25q0,13.65,8.51,22.86a27.92,27.92,0,0,0,21.44,9.22q13.11,0,21.53-9.22t8.42-22.86q0-13.65-8.42-22.78T1381,134.35a27.94,27.94,0,0,0-21.44,9.21Q1351,152.79,1351,166.25Z"/><path class="cls-1" d="M1458.12,108.82a9.64,9.64,0,0,1-14,0,10,10,0,0,1,0-14.18,9.64,9.64,0,0,1,14,0,10.07,10.07,0,0,1,0,14.18Zm-3.81,98.72h-6.38a3,3,0,0,1-3-3V128.32a2.93,2.93,0,0,1,.88-2.13,2.9,2.9,0,0,1,2.13-.88h6.38a2.64,2.64,0,0,1,2,.88,3.11,3.11,0,0,1,.79,2.13v76.21a3.07,3.07,0,0,1-.79,2.13A2.64,2.64,0,0,1,1454.31,207.54Z"/><path class="cls-1" d="M1508.79,123q19,0,30,10.28,2.65,2.31.18,4.61l-3,3a3.63,3.63,0,0,1-5.14,0,37,37,0,0,0-22.87-7.79q-8.69,0-13.73,3.81t-5.05,9.48q0,9,13.82,11.87l15.42,3q12.59,2.47,18.61,8.06t6,15.33q0,9.93-8.77,17.55t-24.9,7.62q-20,0-32.43-11.7-3.9-3.72-.71-6.56l3-2.66q2.13-2,5,.54a36.84,36.84,0,0,0,25.7,10.27q9.57,0,15.07-4.25t5.49-9.92q0-10.81-16.84-14l-14.35-2.66q-22.7-4.08-22.69-22,0-10.63,9.22-17.28T1508.79,123Z"/><path class="cls-1" d="M1566,184.92V136h-12.77a2.65,2.65,0,0,1-2-.89,3.07,3.07,0,0,1-.79-2.13v-4.43a3.07,3.07,0,0,1,.79-2.13,2.65,2.65,0,0,1,2-.89H1566V98.75a3,3,0,0,1,3-3h6.39a2.68,2.68,0,0,1,2,.88,3.11,3.11,0,0,1,.79,2.13v26.77h26.42a2.62,2.62,0,0,1,2,.89,3.08,3.08,0,0,1,.8,2.13V133a3.08,3.08,0,0,1-.8,2.13,2.62,2.62,0,0,1-2,.89h-26.42v47q0,7.09,3.82,11a12.89,12.89,0,0,0,9.66,3.9,20.13,20.13,0,0,0,9.93-2.66c2.24-1.53,4-1.41,5.14.36l2.3,3.55c1.18,1.65,1,3-.53,4.07q-7.27,5.85-18.62,5.85a24.83,24.83,0,0,1-16.93-6.11Q1566,196.8,1566,184.92Z"/><path class="cls-1" d="M1686,246.62q-12.4,0-19.5-7.62-1.95-2,.18-4.43l2.83-3.19q2-2.31,5,0A17.72,17.72,0,0,0,1686,236q9.39,0,14-12.23l6-16.13h-3.36a3.14,3.14,0,0,1-3.37-2.3l-28-76.57a2.84,2.84,0,0,1,.26-2.3,2.18,2.18,0,0,1,2-1.06h8.15q2.31,0,3.37,2.83l24.64,69.3,23.92-69.3q1.06-2.83,3.55-2.83H1745a2.16,2.16,0,0,1,2,1.06,2.43,2.43,0,0,1,.09,2.3l-35.8,98.72Q1704.59,246.62,1686,246.62Z"/><path class="cls-1" d="M1657.5,125.22h2.83c1.89,0,2.84,1,2.84,3v6.38c0,1.89-.89,2.84-2.66,2.84h-3q-10.29,0-16.4,6.73T1635,165.63V204.8a2.62,2.62,0,0,1-.89,2,2.82,2.82,0,0,1-1.95.8h-6.38a3,3,0,0,1-3-3V128.41a3,3,0,0,1,3-3h5.85a2.7,2.7,0,0,1,2,.88,2.92,2.92,0,0,1,.89,2.13v12.23a24.49,24.49,0,0,1,8.59-10.9A23.66,23.66,0,0,1,1657.5,125.22Z"/></svg>