<svg xmlns="http://www.w3.org/2000/svg" viewBox="0 0 240 60"><symbol viewBox="0 0 240 60" id="sashido-logo-home"><path fill="#0092FF" d="M79.46 30.3c0 .2 0 .4.1.71s0 .4 0 .61c0 1.11-.2 2.12-.5 3.03-.3.91-.81 1.82-1.41 2.63s-1.31 1.51-2.02 2.12c-.82.6-1.62 1.1-2.63 1.61s-1.92.81-2.93 1.01c-1.01.2-2.02.3-3.03.3-.91 0-1.92 0-2.73-.1-.91-.1-1.72-.1-2.52-.1-.61 0-1.21 0-1.72.1-.5.1-1.01.3-1.51.5-.4-1.41-.81-2.63-1.21-3.84s-.81-2.12-1.21-2.93c-.4-.91-.81-1.82-1.21-2.52 1.21.61 2.42 1.11 3.64 1.51 1.21.4 2.42.61 3.43.81 1.11.2 2.12.3 3.03.4s1.62.1 2.22.1c.71 0 1.31 0 2.02-.1s1.41-.2 2.02-.4c-.2-.2-.3-.4-.5-.61-.2-.2-.3-.3-.5-.4-.2-.1-.4-.2-.5-.3-.3-.1-.71-.3-1.21-.4-.5-.1-1.11-.3-1.72-.4-.61-.1-1.31-.3-2.02-.5s-1.41-.4-2.12-.71c-.71-.3-1.31-.5-2.02-.91-.71-.4-1.21-.71-1.72-1.11-.4-.3-.71-.71-1.01-1.11-.3-.4-.5-.81-.61-1.21-.1-.4-.3-.81-.3-1.21-.1-.4-.1-.81-.1-1.21-.4.1-.71.3-1.01.4-.3.1-.5.2-.71.3l-.2.2c.4-1.11.91-2.12 1.51-2.93.71-.81 1.41-1.62 2.22-2.22.81-.61 1.72-1.11 2.63-1.62.91-.4 1.82-.81 2.73-1.01 2.12-.61 4.44-1.01 6.97-1.11.81 0 1.62 0 2.52-.1.71-.1 1.62-.1 2.63-.2 1.01-.1 2.02-.3 3.03-.5-.3.5-.61 1.01-.81 1.62-.2.61-.4 1.11-.5 1.72s-.2 1.11-.2 1.72c0 .61-.1 1.11-.1 1.51v1.52c0 .2 0 .4.1.61-1.82-.81-3.53-1.41-5.25-1.72-1.72-.3-3.33-.5-4.95-.5-.5 0-1.01 0-1.51.1s-1.01.1-1.51.1c.1.5.3.91.61 1.21.3.3.61.61.91.81.3.2.71.4 1.11.5.81.2 1.62.5 2.52.91.91.4 1.82.81 2.73 1.31.91.5 1.82 1.11 2.63 1.82.81.71 1.62 1.51 2.22 2.42.4-.3.81-.71 1.11-1.11.46-.22.77-.62 1.07-1.13zM109.35 33.64c-.5.3-.91.5-1.41.71-.5.2-1.01.4-1.41.71.5 1.11 1.11 2.12 1.72 3.13.61 1.01 1.21 1.92 1.92 2.93-1.72 0-3.33.2-4.85.5-1.51.3-3.03.91-4.54 1.62.1-.3.1-.5.2-.91v-1.01c0-.61-.1-1.31-.2-2.02s-.3-1.51-.5-2.32c-.5.1-1.11.1-1.62.2-.5 0-1.11.1-1.62.1-.91 0-1.82-.1-2.63-.2-.81-.1-1.72-.4-2.42-.71-.2.91-.4 1.92-.5 2.83-.2 1.01-.3 1.92-.5 3.03-.5-.3-1.11-.5-1.72-.81-.5-.2-1.21-.4-1.92-.5-.71-.2-1.62-.2-2.52-.2-.71 0-1.51.1-2.32.2s-1.62.4-2.52.71c.81-.91 1.51-1.72 2.22-2.63.71-.91 1.31-1.72 1.92-2.52.61-.81 1.01-1.62 1.51-2.32.5-.71.81-1.31 1.11-1.82-.3-.4-.61-.81-.81-1.31s-.5-1.01-.71-1.51c.4.2.81.4 1.21.61.4.2.81.4 1.21.5.5-1.11 1.11-2.22 1.72-3.33.61-1.11 1.21-2.12 1.92-3.13-.1-.3-.3-.71-.5-1.21-.2-.4-.4-.91-.71-1.41-.2-.5-.5-.91-.81-1.41-.3-.5-.5-.91-.81-1.31 1.01.3 2.02.5 3.13.71 1.01.2 2.12.3 3.23.3.61-.61 1.21-1.11 1.82-1.62.61-.5 1.31-.91 2.02-1.31-.2.5-.5.91-.71 1.41-.2.5-.5.91-.71 1.41.61 0 1.21-.1 1.82-.2l1.82-.3c.4 1.72.91 3.43 1.41 5.15.5 1.72 1.11 3.33 1.72 4.95.5-.3 1.01-.61 1.51-.91.5-.3 1.01-.71 1.51-1.11.3 1.21.71 2.32 1.11 3.43.2.98.7 1.89 1.21 2.9zm-11.01-2.13c-.91-2.22-2.02-4.44-3.23-6.77-.4 1.11-.71 2.22-1.11 3.43-.3 1.21-.71 2.42-1.01 3.64h1.62c.61 0 1.31 0 1.92-.1.5.11 1.1.01 1.81-.2zM137.12 30.3c0 .2 0 .4.1.71v.61c0 1.11-.2 2.12-.5 3.03-.3.91-.81 1.82-1.41 2.63s-1.31 1.51-2.02 2.12c-.81.61-1.62 1.11-2.63 1.62-.91.4-1.92.81-2.93 1.01-1.01.2-2.02.3-3.03.3-.91 0-1.92 0-2.73-.1s-1.72-.1-2.52-.1c-.61 0-1.21 0-1.72.1-.5.1-1.01.3-1.51.5-.4-1.41-.81-2.63-1.21-3.84-.4-1.11-.81-2.12-1.21-2.93-.4-.91-.81-1.82-1.21-2.52 1.21.61 2.42 1.11 3.64 1.51 1.21.4 2.42.61 3.43.81 1.11.2 2.12.3 3.03.4.91.1 1.62.1 2.22.1.71 0 1.31 0 2.02-.1s1.41-.2 2.02-.4c-.2-.2-.3-.4-.5-.61-.2-.2-.3-.3-.5-.4-.2-.1-.4-.2-.5-.3-.3-.1-.71-.3-1.21-.4-.5-.1-1.11-.3-1.72-.4-.61-.1-1.31-.3-2.02-.5s-1.41-.4-2.12-.71c-.71-.3-1.31-.5-2.02-.91-.71-.4-1.21-.71-1.72-1.11-.4-.3-.71-.71-1.01-1.11-.3-.4-.5-.81-.61-1.21-.1-.4-.3-.81-.3-1.21-.1-.4-.1-.81-.1-1.21-.4.1-.71.3-1.01.4-.3.1-.5.2-.71.3l-.61.3c.4-1.11.91-2.12 1.51-2.93.71-.81 1.41-1.62 2.22-2.22.81-.61 1.72-1.11 2.63-1.62.91-.4 1.82-.81 2.73-1.01 2.12-.61 4.44-1.01 6.97-1.11.81 0 1.62 0 2.52-.1.71-.1 1.62-.1 2.63-.2 1.01-.1 2.02-.3 3.03-.5-.3.5-.61 1.01-.81 1.62s-.4 1.11-.5 1.72c-.1.61-.2 1.11-.2 1.72 0 .61-.1 1.11-.1 1.51v1.52c0 .21 0 .4.1.61-1.82-.81-3.53-1.41-5.25-1.72-1.72-.3-3.33-.5-4.95-.5-.5 0-1.01 0-1.51.1s-1.01.1-1.51.1c.1.5.3.91.61 1.21.3.3.61.61.91.81.3.2.71.4 1.11.5.81.2 1.62.5 2.52.91.91.3 1.82.81 2.73 1.31.91.5 1.82 1.11 2.63 1.82.81.71 1.62 1.51 2.22 2.42.4-.3.81-.71 1.11-1.11.77-.33 1.17-.73 1.48-1.24zM149.84 41.41c-.81-.2-1.62-.4-2.42-.4-.81-.1-1.62-.1-2.42-.1s-1.62 0-2.42.1c-.81.1-1.62.2-2.52.4.91-2.22 1.51-4.44 2.02-6.77.5-2.32.71-4.64.71-7.07 0-1.51-.1-2.93-.3-4.44-.2-1.51-.5-3.03-.81-4.54.71.2 1.31.4 2.02.5.61.2 1.31.3 1.92.4.71.1 1.31.2 2.02.3.71.1 1.41.1 2.12.1.1 1.62.1 3.33.1 4.95s.1 3.23.1 4.85c1.01-.1 2.02-.2 2.93-.3 1.01-.1 1.92-.3 2.93-.4.1-1.92.3-3.74.61-5.65s.61-3.74 1.11-5.65c.61.2 1.11.4 1.72.61.5.2 1.11.3 1.62.4.61.1 1.11.2 1.72.2.61.1 1.21.1 1.92.1h.9c-.71 1.41-1.21 2.83-1.72 4.24-.4 1.41-.81 2.93-.91 4.34.5-.1 1.01-.2 1.62-.4.5-.1 1.01-.3 1.62-.4-.1.71-.2 1.41-.2 2.12 0 .71-.1 1.41-.1 2.12s0 1.41.1 2.22c.1.81.1 1.41.2 2.22-.5 0-1.11 0-1.62-.1-.5 0-1.01-.1-1.51-.1.1.91.3 1.92.5 2.83.2.91.5 1.92.81 2.83-.4 0-.71-.1-1.11-.1h-1.01c-.5 0-1.01 0-1.51.1-.5 0-1.01.1-1.51.2l-1.51.3c-.5.1-1.01.3-1.51.4l-.3-3.94c-.1-1.31-.1-2.63-.1-3.94-1.01-.3-1.92-.5-2.93-.81-.91-.3-1.92-.61-2.83-1.01 0 1.51 0 3.03-.1 4.64.15 1.52.05 3.03.05 4.65zM179.12 17.98c-.3 2.12-.61 4.24-.71 6.46-.2 2.22-.3 4.34-.3 6.56 0 1.72 0 3.33.1 4.95s.2 3.23.4 4.85c-.4 0-.81-.1-1.21-.1h-1.21c-.91 0-1.92.1-2.83.2-.91.1-1.92.3-2.93.5.3-1.82.61-3.64.81-5.45s.3-3.74.3-5.65c0-1.62-.1-3.33-.2-4.95-.2-1.62-.4-3.23-.71-4.85l2.12-.3c.71-.1 1.41-.3 2.12-.5.71-.2 1.41-.4 2.12-.71.62-.4 1.32-.7 2.13-1.01zM208.61 28.18c.1 1.21.1 2.42-.2 3.53-.3 1.11-.71 2.22-1.31 3.23-.61 1.01-1.31 2.02-2.22 2.83-.91.81-1.82 1.62-2.93 2.22-1.11.61-2.22 1.11-3.43 1.41-1.21.3-2.42.5-3.74.5-.81 0-1.72-.1-2.63-.3-.91-.2-1.72-.61-2.63-1.11-.91.1-1.82.3-2.83.5s-2.02.5-3.03.91c.91-2.73 1.62-5.45 2.12-8.28.5-2.73.81-5.55.81-8.38-.4.2-.71.3-1.11.61-.4.2-.71.4-1.11.71 0-.3.1-.5.1-.81v-.81c0-1.21-.2-2.42-.5-3.53-.4-1.11-.91-2.12-1.62-3.13.4-.1.81-.2 1.31-.3.5-.1 1.11-.2 1.62-.3.61-.1 1.21-.2 1.82-.2.61-.1 1.21-.1 1.82-.2.61-.1 1.11-.1 1.62-.1h1.31c1.51 0 2.93.1 4.24.4 1.31.2 2.52.61 3.64 1.01 1.11.4 2.12 1.01 3.03 1.62.91.61 1.62 1.31 2.22 2.12.61.81 1.11 1.62 1.41 2.52.3.91.5 1.82.5 2.73v1c.3-.1.5-.2.71-.2s.8-.1 1.01-.2zm-6.97 1.21c-.2-.61-.5-1.21-.81-1.72-.4-.5-.81-.91-1.21-1.31-.5-.4-1.01-.71-1.51-.91-.5-.3-1.11-.5-1.62-.61-.5-.2-1.11-.3-1.62-.4-.5-.1-1.01-.1-1.51-.2-.1 2.52-.1 4.95-.1 7.47 0 2.22 0 4.54.1 6.77 1.01-.3 1.92-.71 2.83-1.21.91-.5 1.62-1.11 2.22-1.92.61-.71 1.11-1.62 1.41-2.63.3-1.01.4-2.02.3-3.23h.71c.3-.1.51-.1.81-.1zM233.24 18.59c-.4.4-.81.71-1.11 1.11-.4.4-.71.81-1.01 1.21 1.11.2 2.12.61 3.03 1.11.91.5 1.82 1.11 2.52 1.92.71.81 1.31 1.62 1.72 2.73.4 1.01.61 2.12.61 3.43 0 1.41-.2 2.63-.61 3.84-.4 1.11-1.01 2.12-1.72 3.03-.71.91-1.62 1.62-2.63 2.32-1.01.61-2.12 1.21-3.23 1.62-1.21.4-2.42.71-3.74.91-1.31.2-2.63.3-3.94.3h-1.41c-.5 0-1.01 0-1.41-.1-.5 0-.91-.1-1.31-.2s-.71-.1-1.01-.3c.4-.3.71-.61 1.01-.91s.61-.61.81-.91c-1.11-.2-2.12-.5-3.03-1.01-.91-.5-1.82-1.01-2.52-1.72-.71-.71-1.31-1.51-1.72-2.52s-.61-2.12-.61-3.33c0-1.51.2-2.83.71-4.04.5-1.21 1.11-2.22 2.02-3.13.81-.91 1.82-1.72 2.93-2.42 1.11-.71 2.32-1.21 3.64-1.62 1.31-.4 2.63-.71 4.04-.91 1.41-.2 2.83-.3 4.24-.3h1.82c.6-.21 1.31-.11 1.91-.11zm-1.21 10.1c0-.61-.1-1.11-.2-1.62-.1-.5-.3-.91-.61-1.31-.3-.4-.61-.71-.91-1.01-.3-.3-.71-.5-1.11-.71-.2.4-.3.71-.4 1.11-.1.4-.2.71-.4 1.11-.61-.2-1.11-.3-1.62-.4s-1.01-.1-1.41-.1c-.81 0-1.51.1-2.32.4-.81.3-1.51.71-2.12 1.21a6.36 6.36 0 0 0-1.51 1.82c-.4.71-.61 1.51-.61 2.42 0 .5.1.91.2 1.31s.3.81.61 1.21c.2.4.5.81.91 1.11.3.4.71.71 1.11 1.01.1-.4.3-.81.3-1.31.1-.4.1-.91.1-1.31.71.3 1.31.61 1.92.71.61.1 1.21.2 1.72.2.81 0 1.62-.1 2.32-.4.71-.3 1.41-.71 2.02-1.21.61-.5 1.11-1.11 1.41-1.92.5-.51.6-1.41.6-2.32z"/><path fill="#fff" d="M22.91 25.76c-7.37 0-13.43 3.84-13.43-3.64S15.54 9.6 22.91 9.6s13.43 5.05 13.43 12.52-5.96 3.64-13.43 3.64z"/><path fill="#0092FF" d="M25.64 6.98c0-1.51-1.21-3.23-2.73-3.23-1.51 0-2.73 1.72-2.73 3.23M23.01 56.25c3.23 0 5.96-2.22 6.97-5.35H15.94c1.12 3.13 3.84 5.35 7.07 5.35z"/><ellipse fill="#0092FF" cx="16.55" cy="20.31" rx="2.12" ry="2.73"/><path fill="#0092FF" d="M22.91 6.47c-8.89 0-16.06 7.17-16.06 16.06L7.97 40.2c.5 4.85 2.63 8.58 7.47 9.09h15.05c4.85-.5 6.97-4.24 7.47-9.09l1.11-17.67c0-8.89-7.27-16.06-16.16-16.06zm0 19.29c-7.37 0-13.43 3.84-13.43-3.64S15.54 9.6 22.91 9.6s13.43 5.05 13.43 12.52-5.96 3.64-13.43 3.64z"/><ellipse fill="#0092FF" cx="29.37" cy="20.31" rx="2.12" ry="2.73"/><path fill="#0092FF" d="M4.23 29.5h-.1c-.81 0-1.51.71-1.51 1.51v15.15c0 .81.71 1.51 1.51 1.51h.1c.81 0 1.51-.71 1.51-1.51V31.01c.11-.81-.6-1.51-1.51-1.51z"/><circle fill="#0092FF" cx="4.23" cy="46.06" r="3.23"/><path fill="#0092FF" d="M10.79 35.35H6.76c-2.32 0-4.14-1.82-4.14-4.14v-.3c0-2.32 1.82-4.14 4.14-4.14h4.04c2.32 0 4.14 1.82 4.14 4.14v.3c-.01 2.32-1.82 4.14-4.15 4.14zM41.79 29.5h-.1c-.81 0-1.51.71-1.51 1.51v15.15c0 .81.71 1.51 1.51 1.51h.1c.81 0 1.51-.71 1.51-1.51V31.01c.01-.81-.7-1.51-1.51-1.51z"/><circle fill="#0092FF" cx="41.69" cy="46.06" r="3.23"/><path fill="#0092FF" d="M39.17 35.35h-4.04c-2.32 0-4.14-1.82-4.14-4.14v-.3c0-2.32 1.82-4.14 4.14-4.14h4.04c2.32 0 4.14 1.82 4.14 4.14v.3c0 2.32-1.82 4.14-4.14 4.14z"/><circle fill="#fff" cx="22.91" cy="32.93" r="1.92"/><circle fill="#fff" cx="27.56" cy="32.93" r="1.31"/><circle fill="#fff" cx="18.37" cy="32.93" r="1.31"/></symbol><use xmlns:xlink="http://www.w3.org/1999/xlink" xlink:href="#sashido-logo-home"/></svg>