<svg xmlns="http://www.w3.org/2000/svg" viewBox="0 0 40 40"><path fill="#fff" d="M33.2,16.71a.39.39,0,0,0,0-.14.25.25,0,0,0,0-.08l0,0s0,0,0-.05L27.56,9a0,0,0,0,0,0,0,.57.57,0,0,0-.22-.16h0l-.06,0L20.05,8H20l-7.17.76-.06,0h-.05a.5.5,0,0,0-.22.16,0,0,0,0,0,0,0L6.89,16.4s0,0,0,.05l0,0a.25.25,0,0,0,0,.08.39.39,0,0,0,0,.14l0,.13s0,.06,0,.09,0,0,0,0,0,0,0,.06l12.71,14.8,0,0,.06.06h0A.55.55,0,0,0,20,32h0a.55.55,0,0,0,.24-.07h0l.06-.06,0,0L33.09,17s0,0,0-.06,0,0,0,0,0-.06,0-.09Zm-21-5.83L12,16.2H8.29Zm6.48-1.74-1.24,1.34L13,15.34l.3-5.63Zm2.54,0,5.42.57.3,5.63-4.48-4.86Zm5.15,7.06H13.58l6.42-7Zm-14.29,1,1.07,2.08L17.65,28,8.38,17.2Zm1.13,0H26.74L20,30.4ZM26.8,19.28l1.07-2.08h3.75L22.35,28ZM28,16.2l-.28-5.32,4,5.32Z"/></svg>