<svg id="Layer_1" data-name="Layer 1" xmlns="http://www.w3.org/2000/svg" viewBox="0 0 491.07 247.49"><defs><style>.cls-1,.cls-3{fill:#fff;}.cls-1{opacity:0;}.cls-2{fill:#ff5c39;}.cls-4{fill:#49c5b1;}.cls-5{fill:#333f48;}</style></defs><rect class="cls-1" width="491.07" height="247.49"/><path class="cls-2" d="M233.24,298.6a1.19,1.19,0,0,0-.91-.42H209.27a1.19,1.19,0,0,0-1.17,1l-13.45,85.2a1.24,1.24,0,0,0,.27,1,1.21,1.21,0,0,0,.91.41h23a1.19,1.19,0,0,0,1.18-1l13.45-85.2A1.23,1.23,0,0,0,233.24,298.6Z" transform="translate(-54.46 -176.25)"/><path class="cls-2" d="M275.32,362.9a1.17,1.17,0,0,0-.9-.42H262.54a8,8,0,0,1-5.94-3.08c-2.6-3.34-3.39-9.64-2.17-17.29.58-3.7,2.54-12.84,8.23-17.7a13,13,0,0,1,8.08-3.06h10.54a1.19,1.19,0,0,0,1.18-1l3.28-20.79a1.19,1.19,0,0,0-1.18-1.38H273.32a42.94,42.94,0,0,0-24,7.94c-10.73,7.65-17.48,19.81-20,36.15-2.31,14.59-.05,26.38,6.55,34.11,5.17,6.06,12.67,9.27,21.68,9.27h13.64a1.19,1.19,0,0,0,1.17-1l3.28-20.79A1.15,1.15,0,0,0,275.32,362.9Z" transform="translate(-54.46 -176.25)"/><path class="cls-2" d="M202.22,320.35l3.27-20.79a1.19,1.19,0,0,0-1.18-1.38H155.38a1.19,1.19,0,0,0-1.17,1L150.93,320a1.22,1.22,0,0,0,.27,1,1.19,1.19,0,0,0,.91.42h11.25l-9.94,63a1.18,1.18,0,0,0,1.17,1.37h23a1.19,1.19,0,0,0,1.18-1l10-63.4H201A1.21,1.21,0,0,0,202.22,320.35Z" transform="translate(-54.46 -176.25)"/><path class="cls-2" d="M151.33,298.6a1.19,1.19,0,0,0-.91-.42H132.14c-18.89.07-28.67,17.23-30.39,28.05a23,23,0,0,0,2.32,15.19c2.49,4.27,6.13,7.66,9.63,10.76l.07.06a11.36,11.36,0,0,1,2.88,2.85l.08.12a4.25,4.25,0,0,1,.84,3.65,4.41,4.41,0,0,1-1.32,2.49,5.87,5.87,0,0,1-3.46,1.12H97a1.19,1.19,0,0,0-1.17,1l-3.29,20.79a1.24,1.24,0,0,0,.27,1,1.22,1.22,0,0,0,.91.42h17c15.53,0,29.17-12.25,31.72-28.5.95-6,.35-10.82-1.87-15s-5.93-7.45-9.64-10.37c-.36-.35-.75-.7-1.17-1.06a15.14,15.14,0,0,1-2.16-2.15,4.66,4.66,0,0,1-1.2-3.69,3.87,3.87,0,0,1,1-2.08l.31-.3a4.67,4.67,0,0,1,2.78-1.12h16.56a1.2,1.2,0,0,0,1.18-1l3.28-20.79A1.16,1.16,0,0,0,151.33,298.6Z" transform="translate(-54.46 -176.25)"/><path class="cls-2" d="M507.2,298.6a1.19,1.19,0,0,0-.91-.42H488c-18.9.07-28.67,17.23-30.39,28.05a22.91,22.91,0,0,0,2.32,15.19c2.49,4.27,6.12,7.66,9.63,10.76l.07.06a11.29,11.29,0,0,1,2.87,2.85l.09.12a4.25,4.25,0,0,1,.83,3.65,4.34,4.34,0,0,1-1.31,2.49,5.89,5.89,0,0,1-3.47,1.12H452.91a1.19,1.19,0,0,0-1.18,1l-2.52,16-9.63-29.66c8.78-3.69,14.7-11.6,16.31-21.87,1.46-9.4.12-16.36-4.09-21.28-4.94-5.77-13.57-8.46-27.15-8.46H402.39a1.19,1.19,0,0,0-1.18,1l-13.44,85.2a1.17,1.17,0,0,0,.27,1,1.21,1.21,0,0,0,.91.41h23a1.19,1.19,0,0,0,1.18-1l3.62-22.71c.34-2.09.62-4.18.87-6.25l5.83,29a1.19,1.19,0,0,0,1.16.95h25a1.16,1.16,0,0,0,.49-.1h16.53c15.53,0,29.16-12.25,31.72-28.5.95-6,.35-10.82-1.88-15s-5.93-7.45-9.64-10.37c-.35-.35-.75-.7-1.17-1.06a15.14,15.14,0,0,1-2.16-2.15,4.69,4.69,0,0,1-1.19-3.69,3.87,3.87,0,0,1,1-2.08,2.94,2.94,0,0,1,.31-.3,4.65,4.65,0,0,1,2.78-1.12H503a1.19,1.19,0,0,0,1.18-1l3.29-20.79A1.23,1.23,0,0,0,507.2,298.6Zm-76.61,29.19c-.69,4.87-4.29,9.8-9.85,9.83h-.13l3-18.76c1.85,0,4.32.41,5.79,2.16C430.7,322.51,431.09,324.78,430.59,327.79Z" transform="translate(-54.46 -176.25)"/><path class="cls-2" d="M326.07,340.66,350.66,300a1.19,1.19,0,0,0-1-1.81H325.35a1.19,1.19,0,0,0-1.06.66l-15.07,29.84,4.54-29.12a1.19,1.19,0,0,0-.28-1,1.15,1.15,0,0,0-.9-.42H289.52a1.2,1.2,0,0,0-1.18,1l-13.44,85.2a1.24,1.24,0,0,0,.27,1,1.21,1.21,0,0,0,.91.41h23.05a1.18,1.18,0,0,0,1.17-1l5.25-33,6.87,33a1.2,1.2,0,0,0,1.17.94h24.75a1.19,1.19,0,0,0,1.14-1.54Z" transform="translate(-54.46 -176.25)"/><path class="cls-2" d="M388.05,363.69a1.19,1.19,0,0,0-.91-.42H368.76l1.66-10.61h16.72a1.19,1.19,0,0,0,1.18-1l3.28-20.11a1.21,1.21,0,0,0-.26-1,1.22,1.22,0,0,0-.91-.42H374.07l1.44-9.48h18.75a1.19,1.19,0,0,0,1.18-1l3.17-20.11a1.2,1.2,0,0,0-.28-1,1.15,1.15,0,0,0-.9-.42H354.6a1.19,1.19,0,0,0-1.18,1L340,384.39a1.17,1.17,0,0,0,.27,1,1.21,1.21,0,0,0,.91.41H384a1.18,1.18,0,0,0,1.17-1l3.17-20.12A1.21,1.21,0,0,0,388.05,363.69Z" transform="translate(-54.46 -176.25)"/><path class="cls-3" d="M260.1,234.23a141,141,0,0,0,1.27,16.52l-13.08-36.42H227.35v63.33l-13.44-63.33H187.74l-18.22,75.88h23l1.66-9.46H205.5l1.46,9.46h41.88V267.47c0-4.16-.32-8.34-.67-12.42l12.28,35.16H281.6V214.33H260.1Zm-57.27,28.54h-5.64l2.51-15.67c.24-1.43.46-2.87.66-4.31.15,1.42.31,2.85.49,4.26Z" transform="translate(-54.46 -176.25)"/><polygon class="cls-3" points="124.89 38.07 80.3 38.07 80.3 58.39 91.22 58.39 91.22 113.95 113.48 113.95 113.48 58.39 124.89 58.39 124.89 38.07"/><path class="cls-3" d="M118.28,214.35h-2.49c-16.9,0-23.2,15.06-23.2,24.55A21.61,21.61,0,0,0,96.74,252c2.68,3.64,6.36,6.59,10,9.32a14.86,14.86,0,0,1,3,2.51l0,.05A4.29,4.29,0,0,1,111,267v.11a3.69,3.69,0,0,1,0,.49v.06a2.82,2.82,0,0,1-2.74,2.21H92.59v20.33h19.3c12.22-1.5,21-11.92,21-24.94,0-5.3-1.2-9.44-3.75-13s-6.21-6.46-9.84-9c-.29-.23-.61-.46-.94-.71a19.06,19.06,0,0,1-2.45-2.06,6.74,6.74,0,0,1-1.33-1.92,3,3,0,0,1-.18-.53,3.24,3.24,0,0,1,0-.61.15.15,0,0,1,0-.07v-.18a2.74,2.74,0,0,1,2.73-2.57h15.8V214.33h-14Z" transform="translate(-54.46 -176.25)"/><path class="cls-3" d="M515.68,185.3H449.31a3.16,3.16,0,0,0-2.24.93L442.35,191v-2.48a3.18,3.18,0,0,0-3.17-3.18H419.29a3.2,3.2,0,0,0-2.24.93l-8.15,8.16A27.19,27.19,0,0,0,387,184h-1.51a26.83,26.83,0,0,0-19.72,8l-24.37,24.36-.19.21a37.14,37.14,0,0,0-9,14.92c-5.74-11.1-16.82-17.16-31.53-17.16H283.49v75.88H302c16.6,0,27.33-6.79,32-20.19,5,13.69,15,21.46,27.95,21.46a26.9,26.9,0,0,0,19.74-8l10.68-10.68c3.27,12.22,12.5,18.66,26.8,18.66,9.24,0,16.37-2.71,21.19-8l15.79-15.79v19.39a3.18,3.18,0,0,0,3.17,3.17h19.88a3.12,3.12,0,0,0,2.24-.93l25.07-25.07a3.13,3.13,0,0,0,.93-2.28V219.13l10.48-10.47a3.16,3.16,0,0,0,.92-2.4V188.48A3.18,3.18,0,0,0,515.68,185.3ZM305.76,270V235.12c4,.58,8.24,4.37,8.24,17.83S308.92,269.42,305.76,270Z" transform="translate(-54.46 -176.25)"/><path class="cls-4" d="M386.27,188c-20.17,0-28.07,20.09-28.07,38s7.9,38,28.07,38,28.08-20.07,28.08-38S406.45,188,386.27,188Zm0,18.52h0c7.51,0,7.8,14.92,7.8,19.5s-.29,19.49-7.8,19.49h0c-2.34,0-4-1.45-5.13-3.59l-.33-.67a18.17,18.17,0,0,1-1.1-3.17c-.1-.4-.2-.81-.29-1.23a55.52,55.52,0,0,1-.94-10.83h0C378.48,221.4,378.77,206.48,386.27,206.48Z" transform="translate(-54.46 -176.25)"/><polygon class="cls-4" points="418.26 12.98 418.26 30.91 429.18 30.91 429.18 86.48 449.06 86.48 449.06 30.91 460.47 30.91 460.47 12.98 418.26 12.98"/><path class="cls-4" d="M448.56,189.23v46.3a24.32,24.32,0,0,1-.49,6.44,4.26,4.26,0,0,1-4.58,3.5,4.4,4.4,0,0,1-4.58-3.6,23.67,23.67,0,0,1-.49-6.43V189.23H418.54v48.06c0,8.86,1.95,26.7,24.95,26.7s25-17.84,25-26.7V189.23Z" transform="translate(-54.46 -176.25)"/><path class="cls-5" d="M520.72,387.3q0-.36-.06-.72c0-.24,0-.48,0-.71a6.18,6.18,0,0,0-.12-.67,1.82,1.82,0,0,0-.23-.59,1.36,1.36,0,0,0-.41-.45,1.61,1.61,0,0,0-.69-.27v0a2,2,0,0,0,1.28-.9,3,3,0,0,0,.4-1.54,2.3,2.3,0,0,0-.78-1.84,3.15,3.15,0,0,0-2.15-.67H513.4v9.61h1.28v-4.11h3.12a1.63,1.63,0,0,1,.76.15,1.2,1.2,0,0,1,.46.37,1.63,1.63,0,0,1,.25.55c.05.21.1.44.14.67a5.51,5.51,0,0,1,.08.71c0,.25,0,.47,0,.69a5,5,0,0,0,.06.57.88.88,0,0,0,.19.4h1.42a1.77,1.77,0,0,1-.3-.56A4.54,4.54,0,0,1,520.72,387.3ZM518.9,383a1.77,1.77,0,0,1-.71.26,5.71,5.71,0,0,1-.84.07h-2.67V380h3.18a1.67,1.67,0,0,1,1.3.46,1.74,1.74,0,0,1,.41,1.19,1.65,1.65,0,0,1-.19.85A1.45,1.45,0,0,1,518.9,383Z" transform="translate(-54.46 -176.25)"/><path class="cls-5" d="M517,374.07a9.69,9.69,0,1,0,9.69,9.69A9.68,9.68,0,0,0,517,374.07Zm0,18.09a8.4,8.4,0,1,1,8.4-8.4A8.41,8.41,0,0,1,517,392.16Z" transform="translate(-54.46 -176.25)"/><path class="cls-5" d="M422.62,317.68l-3.4,21,1.47.11c6.1,0,10.29-5.31,11.07-10.85C433,320.51,428.94,317.34,422.62,317.68Zm93.06-140.16H419.29a10.88,10.88,0,0,0-7.75,3.21l-2.74,2.75A35.3,35.3,0,0,0,387,176.25h-1.51a34.86,34.86,0,0,0-25.16,10.18l-.16.16-24.31,24.3-.26.28-.39.39h0l-.21.23a34.53,34.53,0,0,0-2.33,2.62c-.68.8-1.39,1.68-2,2.54-7.52-6.74-17.8-10.39-30-10.39H115.79c-22.57,0-31,19.83-31,32.33a29.53,29.53,0,0,0,5.66,17.75,39.09,39.09,0,0,0,4.92,5.46H93.78a9,9,0,0,0-9,9V289a9,9,0,0,0,9,9h16.15a39.22,39.22,0,0,0-5.71,5.48A45.67,45.67,0,0,0,94.06,325a30.38,30.38,0,0,0,3.14,20.13c0,.08.09.16.14.24a43.06,43.06,0,0,0,7.57,9.35H97a9,9,0,0,0-8.87,7.57l-3.28,20.8a9,9,0,0,0,8.86,10.37h372.9c19.33,0,36.27-15.07,39.41-35.07,1.23-7.78.37-14.1-2.68-19.87a34.57,34.57,0,0,0-7.54-9.36H503a9,9,0,0,0,8.86-7.57l3.28-20.8a9,9,0,0,0-8.86-10.37H491.35L512,269.73a11,11,0,0,0,3.21-7.84V222.36l8.2-8.2a11,11,0,0,0,3.21-8V188.48A11,11,0,0,0,515.68,177.52ZM213,215.52,228.54,289V215.52h18.91l15.89,44.25.2-.19c-.78-8.48-2.25-16.87-2.25-25.35V215.52H280.4V289H261.29l-14.81-42.4-.2.2c.49,6.92,1.37,13.74,1.37,20.66V289H208l-1.46-9.45H193.16L191.5,289H171l17.65-73.49Zm-77,0h42.21v17.94h-11.4V289H146.87V233.46H136ZM93.78,289V271.08h14.38a4,4,0,0,0,3.9-3.16s0,0,0-.05a4.41,4.41,0,0,0,.08-.73v-.08a5.52,5.52,0,0,0-1.53-4,15.77,15.77,0,0,0-3.25-2.73c-3.83-2.92-7.18-5.65-9.67-9a20.37,20.37,0,0,1-3.92-12.44c0-8.29,5.35-23.36,22-23.36h15.88v17.94h-14.6a3.93,3.93,0,0,0-3.92,3.68,1.1,1.1,0,0,0,0,.18s0,.05,0,.08,0,.07,0,.11a3.83,3.83,0,0,0,.33,1.57,8,8,0,0,0,1.56,2.26,29.61,29.61,0,0,0,3.55,2.92c4.11,2.83,7.36,5.47,9.57,8.67s3.53,7,3.53,12.34c0,11.36-6.95,20.83-17.57,23.23a23.47,23.47,0,0,1-5.16.51Zm53.34,31.16H130.53a5.9,5.9,0,0,0-3.53,1.41l0,0c-.12.11-.25.23-.37.36a5,5,0,0,0-1.34,2.73,5.85,5.85,0,0,0,1.42,4.58,33.19,33.19,0,0,0,3.49,3.38c4.15,3.27,7.41,6.33,9.38,10s2.72,8.07,1.75,14.29c-2.4,15.27-15.06,27.49-30.55,27.49h-17L97,363.67h15.74a6.86,6.86,0,0,0,4.28-1.43,5.67,5.67,0,0,0,1.68-3.19,5.4,5.4,0,0,0-1.09-4.58,12.71,12.71,0,0,0-3.17-3.17c-3.81-3.38-7.09-6.54-9.38-10.47a21.56,21.56,0,0,1-2.18-14.4c1.53-9.6,10.36-27.05,29.34-27.05h18.16Zm30.52,64.3h-23l10.15-64.3H152.09l3.28-20.8H204.3L201,320.17H187.8Zm18.19,0,13.43-85.1h23.06l-13.44,85.1Zm75.3,0H257.49c-18.22,0-31.52-13.86-27.05-42,5.78-36.87,32.07-43.09,42.87-43.09h11.24l-3.28,20.8H271a14.06,14.06,0,0,0-9.13,3.32c-5.16,4.41-7.69,12.28-8.65,18.43-1.47,9.24-.72,20.88,9.24,21.76h11.93Zm42.43,0-8.11-39h-.11l-6.2,39H276.09l13.42-85.1h23.06l-5.65,36.27H307l18.31-36.27h24.29L324.77,340.5l13.53,44Zm73.58-20-3.15,20H341.17l13.42-85.1h42.83l-3.16,20.12H374.49l-1.82,11.87h17.75l-3.28,20.11H369.4l-2,13Zm37.49,20-7.1-35.37-.34.22c-.45,4.18-.9,8.36-1.58,12.54L412,384.47H389l13.42-85.1h22.27c20,0,33.56,5.88,30.06,28.37-1.47,9.38-6.9,17.74-16.62,21.36l11.5,35.37Zm81.66-85.1L503,320.17H486.42a5.91,5.91,0,0,0-3.54,1.41l0,0-.37.36a5,5,0,0,0-1.34,2.73,5.85,5.85,0,0,0,1.42,4.58,33.19,33.19,0,0,0,3.49,3.38c4.15,3.27,7.42,6.33,9.38,10s2.73,8.07,1.75,14.29c-2.4,15.27-15.06,27.49-30.55,27.49h-17l3.29-20.8h15.74a6.86,6.86,0,0,0,4.28-1.43,5.67,5.67,0,0,0,1.68-3.19,5.37,5.37,0,0,0-1.09-4.58,12.83,12.83,0,0,0-3.16-3.17c-3.82-3.38-7.1-6.54-9.39-10.47a21.62,21.62,0,0,1-2.18-14.4c1.53-9.6,10.36-27.05,29.34-27.05h18.16Zm11.37-93.08a2,2,0,0,1-.57,1.52l-10.83,10.83v43.3a2,2,0,0,1-.58,1.44l-25.07,25.07a2,2,0,0,1-1.4.57H459.33a2,2,0,0,1-2-2V264.78l-17.79,17.8,0,0c-4.58,5.09-11.43,7.67-20.34,7.67-14.54,0-23.5-6.83-26.12-19.82l-12.12,12.12-.08.07a25.71,25.71,0,0,1-18.9,7.63c-15.2,0-24.24-10.76-28-24.33C328.9,286.81,312.19,289,302,289H284.68V215.52h16c15.92,0,26.65,7.06,31.62,19,0,.1.09.2.13.3h0c.27-1,.57-2,.89-2.91h0a35.77,35.77,0,0,1,8.8-14.53l.16-.18,24.26-24.26a.46.46,0,0,1,.07-.07,25.73,25.73,0,0,1,18.91-7.64H387a26,26,0,0,1,21.75,11l9.11-9.11a2,2,0,0,1,1.4-.58h19.89a2,2,0,0,1,2,2v5.36l6.75-6.76a2,2,0,0,1,1.4-.58h66.37a2,2,0,0,1,2,2Zm-213.1,27.55v37.43c9.07-.09,10.63-11.4,10.63-18.32C315.19,245,313.63,233.84,304.56,233.84ZM202,246.9c-.58-4.58-1-9.25-1.46-13.83h-.19c-.59,4.58-1.08,9.25-1.85,13.83L195.8,264h8.38Z" transform="translate(-54.46 -176.25)"/></svg>