<svg width="513" height="71" viewBox="0 0 513 71" fill="none" xmlns="http://www.w3.org/2000/svg">
<path d="M102.5 66.1C95.2999 66.1 88.6999 65.3 82.8999 59.5L90.3999 52C94.1999 55.8 99.0999 56.3 102.7 56.3C106.7 56.3 110.8 55 110.8 51.5C110.8 49.2 109.6 47.6 105.9 47.3L98.6999 46.6C90.3999 45.8 85.2999 42.2 85.2999 33.7C85.2999 24.2 93.6999 19 103.1 19C110.3 19 116.3 20.2 120.7 24.4L113.6 31.6C110.9 29.2 106.9 28.5 102.9 28.5C98.2999 28.5 96.3999 30.6 96.3999 32.9C96.3999 34.6 97.0999 36.5 101.2 36.9L108.4 37.6C117.5 38.5 122.1 43.3 122.1 51.1C122.1 61.3 113.4 66.1 102.5 66.1Z" fill="white"/>
<path d="M142.1 65.6001C132.7 65.6001 128.8 59 128.8 52.4V29.6H123.9V20.9H128.8V7.30005H140.3V20.9H148.4V29.6H140.3V51.7C140.3 54.3 141.5 55.9 144.3 55.9H148.5V65.6001H142.1Z" fill="white"/>
<path d="M153.5 11.7V2.30005H165.3V11.7H153.5ZM153.7 65.6001V19.6H165.2V65.6001H153.7Z" fill="white"/>
<path d="M191.1 66.1C181.9 66.1 170.5 61.2 170.5 42.5C170.5 23.9 181.9 19 191.1 19C197.5 19 202.2 20.9 206.3 25.2L198.5 33C196.1 30.4 194.1 29.4 191.1 29.4C188.4 29.4 186.2 30.4 184.6 32.4C182.8 34.6 182 37.7 182 42.6C182 47.5 182.8 50.6 184.6 52.9C186.3 54.9 188.4 55.9 191.1 55.9C194.1 55.9 196.1 54.8 198.5 52.3L206.3 60C202.2 64.1 197.5 66.1 191.1 66.1Z" fill="white"/>
<path d="M238 65.6L226.7 46.4L221.8 51.8999V65.6H210.3V2.69995H221.8V38.4L237.1 19.6H251L234.6 38.2L252.3 65.7L238 65.6Z" fill="white"/>
<path d="M261.8 46.0999C261.8 51.9999 265.4 56.2999 271.9 56.2999C276.9 56.2999 279.4 54.8999 282.3 51.9999L289.3 58.7999C284.6 63.4999 280.1 65.9999 271.8 65.9999C260.9 65.9999 250.5 61.0999 250.5 42.3999C250.5 27.3999 258.6 18.8999 270.6 18.8999C283.4 18.8999 290.7 28.2999 290.7 40.8999V45.9999L261.8 46.0999ZM278.3 33.2999C277.1 30.5999 274.5 28.4999 270.6 28.4999C266.7 28.4999 264.1 30.4999 262.9 33.2999C262.2 34.9999 261.9 36.1999 261.8 38.1999H279.3C279.2 36.1999 279 34.9999 278.3 33.2999Z" fill="white"/>
<path d="M321.1 32.1001C319.3 30.3001 317.8 29.4001 315 29.4001C311.5 29.4001 307.6 32.1001 307.6 37.9001V65.6001H296.1V19.6001H307.3V24.0001C309.5 21.3001 313.9 19.1001 318.9 19.1001C323.4 19.1001 326.6 20.2001 329.8 23.4001L321.1 32.1001Z" fill="white"/>
<path d="M47.5001 70.7C46.8001 71 45.9001 70.9 45.0001 71C44.2001 71 43.1001 71.0001 42.6001 70.6001C42.3001 70.4001 42.3001 69.9001 42.3001 69.6001C42.3001 69.3001 42.4001 68.8 42.4001 68.5C42.5001 68.1 42.6001 67.5 42.4001 67.2C42.2001 66.9 41.5001 67 41.1001 66.8C40.7001 66.6 40.6001 66 40.5001 65.4C40.5001 65.2 40.3001 65 40.3001 64.9C40.2001 64 40.5001 62.7 40.7001 61.8C40.9001 60.8 41.2001 59.9 41.4001 58.9C41.7001 57.5 41.7001 55.9 41.6001 54.4C41.6001 53.6 41.4001 53 41.6001 52.4C41.7001 51.8 42.0001 51.3 42.1001 50.7C42.1001 50.5 42.1001 50.3001 42.1001 50.1001C42.1001 49.9001 42.2001 49.8001 42.2001 49.6001C42.2001 49.2001 42.1001 48.7 42.1001 48.2C42.0001 46.9 42.1001 45 42.2001 43.9C42.2001 43.5 42.4001 43.1 42.1001 42.9C40.7001 42.9 39.5001 43.1 38.2001 43.3C34.8001 43.7 30.4001 43.8 27.1001 43.1C26.8001 43 26.5001 43 26.2001 43C23.8001 42.5 21.7001 41.4 20.0001 40.1C19.7001 39.9 19.4001 39.7 19.1001 39.4C18.8001 39.2 18.5001 38.9 18.2001 38.7C16.9001 38.1 15.1001 38.8 14.5001 39.7C14.3001 40 14.1001 40.5 13.9001 40.9C13.7001 41.3 13.5001 41.7 13.4001 42.1C12.5001 44.1 11.5001 46.1001 10.6001 48.1001C10.1001 49.3001 9.50013 50.6 9.10013 51.9C8.30013 54.7 9.00013 58.4001 9.70013 61.1001C9.80013 61.3001 9.90014 61.6 10.0001 61.9C10.2001 62.5 10.6001 63.4 11.1001 63.8C11.4001 64 11.8001 64.2 12.1001 64.4C12.5001 64.7 12.7001 65.3 13.0001 65.9C13.1001 66.1 13.3001 66.4 13.4001 66.7C13.7001 67.3 13.9001 67.8 13.2001 68.2C12.7001 68.5 11.9001 68.5001 11.2001 68.6001C10.9001 68.7001 11.0001 69.1 10.8001 69.3C10.7001 69.4 10.2001 69.6 10.0001 69.7C9.10014 70 7.50014 70 6.80014 69.7C6.40014 69.6 6.00014 69.3 5.90014 69C5.70014 68.4 6.20014 67.7 5.80014 67.3C5.60014 67.1 5.20014 67.1 4.90014 67C4.40014 66.8 4.00013 66.3 3.70013 65.8C3.20013 64.4 3.50014 62.3001 3.40014 60.6001C3.40014 60.1001 3.30014 59.6 3.30014 59C3.30014 58 3.00014 57 2.90014 56C2.80014 55.5 2.70013 55.1 2.60013 54.7C2.40013 54 2.30013 53.2 2.10013 52.5C1.90013 51.7 1.90013 50.9 2.10013 50.3C2.20013 50.1 2.40014 49.9 2.50014 49.7C2.70014 49.3 2.70013 48.9 2.70013 48.5C2.60013 48.3 2.10014 48.5 2.00014 48.3C1.70014 46.1 1.40013 44 1.20013 41.7C1.10013 40.9 1.10013 40.2 1.10013 39.4C1.00013 37.9 1.10014 36.3 0.900137 34.8C0.800137 34.1 0.700134 33.4 0.600134 32.7C0.300134 30.7 -0.199868 28.2 0.200132 26.1C0.500132 24.8 0.900132 23.7 1.70013 22.7C2.20013 22 2.80014 21.4 3.40014 20.7C4.00014 20.1 4.70014 19.5 5.40014 19C5.90014 18.7 6.40014 18.3 6.90014 18C8.00014 17.5 9.50013 17 11.1001 16.9C12.7001 16.8 14.5001 16.8 16.0001 17.1C17.5001 17.4 19.0001 17.6 20.5001 17.9C21.9001 18.2 23.3001 18.6 24.7001 18.9C24.9001 18.9 25.0001 19.1 25.2001 19.1C25.6001 19.2 26.1001 19.2 26.6001 19.4C27.9001 19.7 29.5001 19.9 31.1001 19.9C32.8001 19.9 34.3001 19.9 35.7001 19.5C35.9001 19.4 36.1001 19.3 36.3001 19.3C36.5001 19.2 36.8001 19.2 37.0001 19.2C37.1001 19.2 37.3001 19 37.4001 18.9C38.2001 18.5 38.9001 18.1 39.6001 17.6C40.2001 17.2 40.6001 16.9 41.4001 16.6C41.7001 16.5 42.1001 16.3 42.4001 16.2C43.1001 16 43.9001 15.8 44.4001 15.4C45.3001 14.9 45.9001 14.1 46.6001 13.4C47.3001 12.8 48.1001 12.1 48.9001 11.5C50.5001 10.2 52.1001 9.10005 53.6001 7.90005C54.4001 7.30005 55.2001 6.70004 56.1001 6.20004C57.8001 5.20004 59.6001 4.10005 62.1001 3.90005C63.1001 3.80005 64.1001 3.80005 65.1001 3.90005C65.4001 3.90005 65.7001 4.10005 66.0001 4.00005C66.3001 3.90005 66.5001 3.50004 66.6001 3.20004C67.0001 2.50004 67.2001 2.10005 67.6001 1.30005C67.8001 0.800049 67.7001 0.300049 68.2001 0.300049C68.7001 0.300049 68.6001 1.60004 68.6001 2.10004C68.6001 2.70004 68.5001 3.50005 68.6001 3.90005C68.7001 4.20005 69.1001 4.60004 69.5001 4.60004C69.8001 4.60004 70.0001 4.40004 70.2001 4.20004C70.5001 4.00004 70.7001 4.00005 70.9001 3.80005C71.3001 3.50005 71.8001 3.00004 72.2001 2.60004C72.5001 2.30004 73.1001 1.40005 73.6001 1.50005C74.6001 1.60005 73.6001 3.10005 73.4001 3.50005C72.9001 4.60005 72.4001 5.50005 71.8001 6.50005C71.6001 6.90005 71.0001 7.50005 71.0001 8.00005C71.0001 8.30005 71.3001 8.50005 71.4001 8.90005C71.5001 9.10005 71.5001 9.20005 71.6001 9.40005C71.9001 10.2 72.2001 11.3 72.5001 12.2C72.7001 13 72.9001 13.8 73.2001 14.5C73.5001 15.2 73.9001 15.9 74.2001 16.7C74.3001 16.9 74.3001 17.1 74.4001 17.3C75.0001 18.9 75.6001 20.7 76.4001 22.3C76.7001 22.9 77.1001 23.7 77.1001 24.6C77.1001 25.6 76.6001 26.1 76.1001 26.9C75.9001 27.3 75.5001 27.9 75.1001 28C74.8001 28.1 74.5001 28 74.2001 28C73.8001 28.1 73.5001 28.3 73.2001 28.3C72.3001 28.4 71.4001 27.7 71.2001 27C71.1001 26.8 71.2001 26.5 71.1001 26.2C70.9001 25.1 70.3001 24.6 69.6001 23.8C69.1001 23.3 68.7001 23 68.1001 22.7C67.2001 22.2 66.3001 22 65.3001 21.5C65.0001 21.3 64.5001 21.1 64.2001 21.2C63.7001 21.3 63.2001 22.1 62.8001 22.6C60.4001 25.8 58.2001 29.1 55.9001 32.2C54.3001 34.3 52.7001 36.4 51.4001 38.7C51.1001 39.3 50.9001 40 50.6001 40.7C50.4001 41.4 50.2001 42.1 50.0001 42.9C49.1001 45.5 48.8001 48.7 48.0001 51.4C47.9001 51.7 47.9001 52 47.8001 52.3C47.4001 53.7 47.0001 55.3 46.6001 56.8C46.3001 57.9 46.2001 59.4 46.1001 60.8C46.1001 62.2 46.0001 64.1 46.5001 64.9C46.8001 65.4 47.7001 65.5 48.0001 66C48.2001 66.3 48.4001 67 48.7001 67.4C48.9001 67.7 49.4001 68.3 49.3001 68.8C49.3001 69.1 49.0001 69.4 48.7001 69.5C48.4001 69.6 48.0001 69.6 47.7001 69.7C47.7001 70.1 47.8001 70.5 47.5001 70.7Z" fill="white"/>
<path d="M381.4 19C375.7 19 371.5 20.8 367.6 24.8C364.7 20.8 360.5 19 355.4 19C351.2 19 346.9 20.7 343.9 23.8V19.6H332.7V65.6H344.2V37.8C344.2 31.5 348.3 29.4 351.9 29.4C355.5 29.4 359.5 31.5 359.5 37.8V65.6H371V37.5C371 31.5 375.2 29.4 378.7 29.4C382.3 29.4 386.3 31.5 386.3 37.8V65.6H397.8V36.2C397.8 31.2 396.5 26.8 392.8 23.1C390.1 20.5 386 19 381.4 19Z" fill="white"/>
<path d="M431.3 47.4C431.3 53.7 427.2 55.8 423.6 55.8C420 55.8 416 53.7 416 47.4V19.5H404.5V49C404.5 54 405.5 58.4 409.2 62.1C411.8 64.7 415.5 66.2 420.1 66.2C424.3 66.2 428.6 64.6 431.6 61.4V65.6H442.8V19.6H431.3V47.4V47.4Z" fill="white"/>
<path d="M461.6 51.7V2.69995H450.1V52.3999C450.1 58.8999 454.1 65.6 463.5 65.6H470V55.8999H465.6C462.7 55.8999 461.6 54.5 461.6 51.7Z" fill="white"/>
<path d="M512.2 41C512.2 28.4 505 19 492.1 19C480.2 19 472 27.5 472 42.5C472 61.1 482.4 66.1 493.3 66.1C501.6 66.1 506.1 63.5 510.8 58.9L503.8 52.1C500.9 55 498.4 56.4 493.4 56.4C486.9 56.4 483.3 52.1 483.3 46.2H512.1L512.2 41ZM483.4 38.3C483.5 36.3 483.8 35 484.5 33.4C485.7 30.7 488.3 28.6 492.2 28.6C496.1 28.6 498.6 30.6 499.9 33.4C500.6 35.1 500.9 36.3 501 38.3H483.4Z" fill="white"/>
</svg>
