<svg id="ebfe4e82-f5e4-4a23-b961-4177f21216aa" data-name="Layer 1" xmlns="http://www.w3.org/2000/svg" width="117" height="71.6" viewBox="0 0 117 71.6">
  <g>
    <g>
      <path d="M82.16,38.58h0l-2.2.53a.12.12,0,0,0-.09.09L77.18,61.66a.08.08,0,0,0,0,.09.11.11,0,0,0,.08,0h0l2.53-.61a.12.12,0,0,0,.09-.09l.54-4.6,3.78-.91L87,66.08a.11.11,0,0,0,.11.08h0l2.42-.51a.13.13,0,0,0,.07-.06.11.11,0,0,0,0-.08L82.27,38.67A.12.12,0,0,0,82.16,38.58ZM80.72,54.12l1-8.28,2,7.57Z" fill="#fff"></path>
      <path d="M95.74,35.24c-1.49,0-3.94,2.29-4,2.35V36.42a.13.13,0,0,0,0-.09.1.1,0,0,0-.07,0h0l-2.33.57a.11.11,0,0,0-.09.11V57.32a.11.11,0,0,0,0,.09l.07,0h0l2.34-.55a.11.11,0,0,0,.09-.11V40.53c.26-.2,2.17-2.16,3.11-2.16q.78,0,.78,1.05V55.76a.12.12,0,0,0,.11.11h0l2.3-.55a.12.12,0,0,0,.09-.11V37.8C98.11,35.69,96.82,35.24,95.74,35.24Z" fill="#fff"></path>
      <path d="M99.82,33.3v2.2a.18.18,0,0,0,0,.09l.07,0h0l2.62-.68V51.25a.12.12,0,0,0,0,.09l.07,0h0l2.52-.61a.12.12,0,0,0,.09-.11V34.27L109,33.4a.11.11,0,0,0,.09-.1V31.11a.14.14,0,0,0,0-.09L109,31h0l-9,2.19A.12.12,0,0,0,99.82,33.3Z" fill="#fff"></path>
      <path d="M101.83,22.18c3.07-1.66,4.18-4.54,3.69-6.56-.44-1.79-2-2.86-4.23-2.86a9.11,9.11,0,0,0-2.11.27l-2.07.51a.11.11,0,0,0-.09.11V31.71a.11.11,0,0,0,0,.09.08.08,0,0,0,.07,0h0l2.25-.54a.12.12,0,0,0,.09-.11V22.89l6.7,6.69a.11.11,0,0,0,.08,0h0l2.17-.52a.11.11,0,0,0,.08-.08.11.11,0,0,0,0-.11S103.36,23.69,101.83,22.18Zm-2.33-7a5.24,5.24,0,0,1,1.69-.31,1.87,1.87,0,0,1,2.1,1.62c.17,1.46-1.1,3.35-3.79,4.05Z" fill="#fff"></path>
      <path d="M75.24,40.26h0L73,40.81a.1.1,0,0,0-.08.11V57.07a.1.1,0,0,0,0,.09l.07,0h0l2.22-.53a.11.11,0,0,0,.09-.1V40.37a.1.1,0,0,0,0-.08A.09.09,0,0,0,75.24,40.26Z" fill="#fff"></path>
      <path d="M58.78,17.37h0L49,19.73a.12.12,0,0,0-.08.11v2.42a.1.1,0,0,0,0,.09.09.09,0,0,0,.07,0h0l3.55-.85v21a.1.1,0,0,0,0,.09.09.09,0,0,0,.07,0L55,42a.12.12,0,0,0,.09-.11v-21L58.8,20a.12.12,0,0,0,.09-.11V17.49a.13.13,0,0,0,0-.09A.11.11,0,0,0,58.78,17.37Z" fill="#fff"></path>
      <path d="M45.59,35.2c-.64-1.13-1.24-2.2-1.66-3-1.44-2.7-.87-4,0-4.5a1,1,0,0,1,.52-.15c.42,0,1.44,0,2.34,2.92a.11.11,0,0,0,.06.07H47l2.63-1.2a.13.13,0,0,0,.07-.13c-1.14-4.06-3.17-4.91-4.67-4.91a5,5,0,0,0-2.68.87c-1.95,1.33-3.57,4.22-1.68,8,.75,1.49,1.58,2.93,2.4,4.32A43.94,43.94,0,0,1,45.86,43c.88,2.19.86,3.87.14,5.17a2.48,2.48,0,0,1-1.77,1.29,1.24,1.24,0,0,1-.27,0c-2.11,0-2.09-4.55-2.09-4.6a.12.12,0,0,0,0-.08.11.11,0,0,0-.08,0h0l-3.13.55a.11.11,0,0,0-.1.11c0,4.92,1.84,7.87,4.93,7.87a4.73,4.73,0,0,0,.9-.09,6.64,6.64,0,0,0,4.44-3.48,9.74,9.74,0,0,0,0-8.57C48.26,39.94,46.84,37.42,45.59,35.2Z" fill="#fff"></path>
      <path d="M73.9,32.1v0A.11.11,0,0,0,73.8,32h0l-2.35.57a.11.11,0,0,0-.08.09v.07c-.27,2.66-.89,3.2-1.72,3.2-1.36,0-2.15-2.48-2.15-7.38,0-5.78.88-8.37,2.15-8.37.65,0,1.43.37,1.74,3.25l0,.11a.09.09,0,0,0,0,.08l.06,0h0l2.27-.48a.11.11,0,0,0,.08-.12v-.09c-.46-3.83-2.39-5.54-4.1-5.54l-.3,0c-2.43,0-4.64,3.31-4.64,11.12,0,8.65,3.07,10.19,4.82,10.19,1.31,0,3.6-.84,4.28-6.48Z" fill="#fff"></path>
      <path d="M90.77,33.42c2.56,0,4-2,4.37-6.05v-.15a.11.11,0,0,0,0-.09l-.08,0h0l-2.27.48a.12.12,0,0,0-.1.1v.07c-.25,2.11-.87,3.19-1.85,3.19C90,31,89,30.37,89,25.38v-.49l5.27-1.09.84-.16a.12.12,0,0,0,.1-.11v-.1c-.47-6.31-3.22-7-4.38-7-1.67,0-4.47,1.16-4.47,8.94C86.3,32.84,89.72,33.42,90.77,33.42Zm0-14.45c.94,0,1.54,1.06,1.81,3.24L89,22.88C89.21,19.63,89.83,19,90.77,19Z" fill="#fff"></path>
      <path d="M69.8,49.5s0-.06,0-.07,0,0-.06,0h0L64.33,50.5a.12.12,0,0,0-.08.12l.2,2.16a.1.1,0,0,0,.11.09h0l2.73-.56c.09,1.28.08,3.44-.83,4.43a1.57,1.57,0,0,1-1.24.53h-.11c-.61,0-1.29-.77-1.81-2a11.17,11.17,0,0,1-.81-4.72c.12-3.7,1.52-6,2.77-6.24a1.76,1.76,0,0,1,.31,0c.79,0,1.27.9,1.54,2.89l0,.16s0,.06,0,.07,0,0,.06,0h0L69.47,47a.11.11,0,0,0,.09-.11l0-.15c-.47-3.46-1.75-5.21-3.81-5.21h-.28c-3,.22-5.43,4.16-5.59,9-.11,3.41.89,6.76,2.55,8.53A3.75,3.75,0,0,0,65,60.34h.16A4,4,0,0,0,68.34,59c2.3-2.65,1.64-8.22,1.48-9.31Z" fill="#fff"></path>
      <path d="M61.76,40.32V26a.11.11,0,0,0,0-.09l-.07,0h0l-2.34.57a.12.12,0,0,0-.09.11V40.89a.12.12,0,0,0,.05.09l.07,0h0l2.35-.57A.11.11,0,0,0,61.76,40.32Z" fill="#fff"></path>
      <path d="M60.48,24.54A1.44,1.44,0,1,0,59,23.1,1.44,1.44,0,0,0,60.48,24.54Z" fill="#fff"></path>
      <path d="M79.2,36.09V31.27l4.19,3.83a.11.11,0,0,0,.07,0h0l2.68-.64a.11.11,0,0,0,.08-.08.11.11,0,0,0,0-.11L79.83,28l6-10.48a.12.12,0,0,0,0-.13.18.18,0,0,0-.09,0h0l-3,.73a.18.18,0,0,0-.07,0l-3.45,6V8.24a.12.12,0,0,0,0-.09l-.07,0h0l-2.48.59a.1.1,0,0,0-.08.11V36.7a.09.09,0,0,0,0,.08.11.11,0,0,0,.07,0h0l2.47-.6A.12.12,0,0,0,79.2,36.09Z" fill="#fff"></path>
      <path d="M90.77,19c-.94,0-1.56.66-1.76,3.91l3.57-.67C92.31,20,91.71,19,90.77,19Z" fill="#ef3e24"></path>
      <path d="M99.53,3.74c-9.91-5.85-27.74-5.11-38.3,4.13A8.5,8.5,0,0,1,67.54,6.2c3.56.66,4.13,5.05,1.65,7.33-3.14,2.89-7.42-.16-10.52-1.38-8.3-3.24-21-1.4-24.49,8,3.69-6.17,8.22-4.91,9.54-2.48a4.21,4.21,0,0,1-2.85,6.07c-3.45.9-15.52-.25-21.81,10.66,4.14-5.2,8.75-5.85,11.14-3.39s1.45,6.89-3.43,7.74C14.14,40.9,6.84,44,0,49.15c15.4-8.82,24.1.36,25.31,1.48s7.27,6.95,13.9,8.28a15.48,15.48,0,0,0,11.93-2.24C53,55.58,55.28,55,56.3,57c.77,1.44.13,3.65-2.87,5.23-2.7,1.43-10.07,2.49-13.64,1.09,1.53,2.44,6.63,4.76,15,4S67.6,63.54,69.4,61.7c1.25-1.26,2.4-1.7,3.51-1a2.1,2.1,0,0,1,.32,3,11.28,11.28,0,0,1-9,3.75c1.55,1.44,8.12,5,18.82,4C96,70.27,116.74,59.24,117,33.35,117.13,20.56,109.67,9.73,99.53,3.74Zm-8.76,12.7c1.16,0,3.91.68,4.38,7v.1a.12.12,0,0,1-.1.11l-.84.16L89,24.89v.49c0,5,1,5.57,1.82,5.57,1,0,1.6-1.08,1.85-3.19v-.07a.12.12,0,0,1,.1-.1L95,27.11h0l.08,0a.11.11,0,0,1,0,.09v.15c-.34,4-1.81,6.05-4.37,6.05-1,0-4.47-.58-4.47-8C86.3,17.6,89.1,16.44,90.77,16.44Zm-42,33.26a6.64,6.64,0,0,1-4.44,3.48,4.73,4.73,0,0,1-.9.09c-3.09,0-4.93-3-4.93-7.87a.11.11,0,0,1,.1-.11l3.13-.55h0a.11.11,0,0,1,.08,0,.12.12,0,0,1,0,.08s0,4.6,2.09,4.6a1.24,1.24,0,0,0,.27,0A2.48,2.48,0,0,0,46,48.12c.72-1.3.74-3-.14-5.17A43.94,43.94,0,0,0,43,37.53c-.82-1.39-1.65-2.83-2.4-4.32-1.89-3.79-.27-6.68,1.68-8A5,5,0,0,1,45,24.33c1.5,0,3.53.85,4.67,4.91a.13.13,0,0,1-.07.13L47,30.57h-.09a.11.11,0,0,1-.06-.07c-.9-2.93-1.92-2.92-2.34-2.92a1,1,0,0,0-.52.15c-.88.54-1.45,1.8,0,4.5.42.77,1,1.84,1.66,3,1.25,2.22,2.67,4.74,3.18,5.93A9.74,9.74,0,0,1,48.77,49.7ZM58.89,19.91a.12.12,0,0,1-.09.11l-3.69.88v21A.12.12,0,0,1,55,42l-2.36.58a.09.09,0,0,1-.07,0,.1.1,0,0,1,0-.09v-21L49,22.37h0a.09.09,0,0,1-.07,0,.1.1,0,0,1,0-.09V19.84a.12.12,0,0,1,.08-.11l9.87-2.37h0a.11.11,0,0,1,.07,0,.13.13,0,0,1,0,.09Zm1.59,1.75A1.44,1.44,0,1,1,59,23.1,1.44,1.44,0,0,1,60.48,21.66ZM59.31,41l-.07,0a.12.12,0,0,1-.05-.09V26.61a.12.12,0,0,1,.09-.11l2.34-.57h0l.07,0a.11.11,0,0,1,0,.09V40.32a.11.11,0,0,1-.08.11L59.33,41Zm9,18a4,4,0,0,1-3.15,1.38H65A3.75,3.75,0,0,1,62.41,59c-1.66-1.77-2.66-5.12-2.55-8.53.16-4.81,2.61-8.75,5.59-9h.28c2.06,0,3.34,1.75,3.81,5.21l0,.15a.11.11,0,0,1-.09.11l-2.19.43h0s-.05,0-.06,0,0,0,0-.07l0-.16c-.27-2-.75-2.89-1.54-2.89a1.76,1.76,0,0,0-.31,0c-1.25.26-2.65,2.54-2.77,6.24a11.17,11.17,0,0,0,.81,4.72c.52,1.22,1.2,2,1.81,2h.11a1.57,1.57,0,0,0,1.24-.53c.91-1,.92-3.15.83-4.43l-2.73.56h0a.1.1,0,0,1-.11-.09l-.2-2.16a.12.12,0,0,1,.08-.12l5.34-1.09h0s0,0,.06,0,0,0,0,.07l0,.16C70,50.75,70.64,56.32,68.34,59Zm1.27-20.26c-1.75,0-4.82-1.54-4.82-10.19,0-7.81,2.21-11.12,4.64-11.12l.3,0c1.71,0,3.64,1.71,4.1,5.54V23a.11.11,0,0,1-.08.12l-2.27.48h0l-.06,0a.09.09,0,0,1,0-.08l0-.11c-.31-2.88-1.09-3.25-1.74-3.25-1.27,0-2.15,2.59-2.15,8.37,0,4.9.79,7.38,2.15,7.38.83,0,1.45-.54,1.72-3.2v-.07a.11.11,0,0,1,.08-.09L73.77,32h0a.11.11,0,0,1,.11.11v.15C73.21,37.87,70.92,38.71,69.61,38.71Zm5.74,17.84a.11.11,0,0,1-.09.1L73,57.18h0l-.07,0a.1.1,0,0,1,0-.09V40.92a.1.1,0,0,1,.08-.11l2.23-.54h0a.09.09,0,0,1,.06,0,.1.1,0,0,1,0,.08Zm1.26-19.74a.11.11,0,0,1-.07,0,.09.09,0,0,1,0-.08V8.83a.1.1,0,0,1,.08-.11l2.48-.59h0l.07,0a.12.12,0,0,1,0,.09V24.05l3.45-6a.18.18,0,0,1,.07,0l3-.73h0a.18.18,0,0,1,.09,0,.12.12,0,0,1,0,.13L79.83,28l6.39,6.35a.11.11,0,0,1,0,.11.11.11,0,0,1-.08.08l-2.68.64h0a.11.11,0,0,1-.07,0L79.2,31.27v4.82a.12.12,0,0,1-.09.11l-2.47.6Zm13,28.78a.13.13,0,0,1-.07.06l-2.42.51h0a.11.11,0,0,1-.11-.08L84.25,55.57l-3.78.91-.54,4.6a.12.12,0,0,1-.09.09l-2.53.61h0a.11.11,0,0,1-.08,0,.08.08,0,0,1,0-.09l2.67-22.45a.12.12,0,0,1,.09-.09l2.2-.53h0a.12.12,0,0,1,.11.09l7.37,26.84A.11.11,0,0,1,89.63,65.59Zm8.48-10.38a.12.12,0,0,1-.09.11l-2.3.55h0a.12.12,0,0,1-.11-.11V39.42q0-1.05-.78-1.05c-.94,0-2.85,2-3.11,2.16V56.77a.11.11,0,0,1-.09.11l-2.34.55h0l-.07,0a.11.11,0,0,1,0-.09V37a.11.11,0,0,1,.09-.11l2.33-.57h0a.1.1,0,0,1,.07,0,.13.13,0,0,1,0,.09v1.17c.1-.06,2.55-2.35,4-2.35,1.08,0,2.37.45,2.37,2.56ZM109,31l.06,0a.14.14,0,0,1,0,.09V33.3a.11.11,0,0,1-.09.1l-3.64.87V50.64a.12.12,0,0,1-.09.11l-2.52.61h0l-.07,0a.12.12,0,0,1,0-.09V34.92L100,35.6h0l-.07,0a.18.18,0,0,1,0-.09V33.3a.12.12,0,0,1,.09-.11l9-2.19Zm-.4-2a.11.11,0,0,1-.08.08l-2.17.52h0a.11.11,0,0,1-.08,0l-6.7-6.69v8.28a.12.12,0,0,1-.09.11l-2.25.54h0a.08.08,0,0,1-.07,0,.11.11,0,0,1,0-.09V13.65a.11.11,0,0,1,.09-.11L99.18,13a9.11,9.11,0,0,1,2.11-.27c2.21,0,3.79,1.07,4.23,2.86.49,2-.62,4.9-3.69,6.56,1.53,1.51,6.64,6.67,6.69,6.72A.11.11,0,0,1,108.55,29Z" fill="#ef3e24"></path>
      <path d="M103.29,16.48a1.87,1.87,0,0,0-2.1-1.62,5.24,5.24,0,0,0-1.69.31v5.36C102.19,19.83,103.46,17.94,103.29,16.48Z" fill="#ef3e24"></path>
      <polygon points="80.72 54.12 83.69 53.41 81.71 45.84 80.72 54.12" fill="#ef3e24"></polygon>
    </g>
    <path d="M92.58,60a1.67,1.67,0,1,1-1.66-1.62A1.63,1.63,0,0,1,92.58,60Zm-2.92,0a1.27,1.27,0,0,0,1.27,1.3,1.3,1.3,0,0,0,0-2.59A1.26,1.26,0,0,0,89.66,60Zm1,.85h-.37V59.23a3.13,3.13,0,0,1,.62,0,1,1,0,0,1,.56.12.45.45,0,0,1,.16.36.41.41,0,0,1-.34.37v0a.48.48,0,0,1,.3.4,1.25,1.25,0,0,0,.12.4H91.3a1.19,1.19,0,0,1-.12-.39c0-.18-.13-.26-.34-.26h-.18Zm0-.92h.18c.21,0,.37-.07.37-.23s-.1-.25-.34-.25l-.21,0Z" fill="#fff"></path>
  </g>
</svg>