<svg width="513" height="115" viewBox="0 0 513 115" fill="none" xmlns="http://www.w3.org/2000/svg">
<path d="M102.5 88.1C95.2999 88.1 88.6999 87.3 82.8999 81.5L90.3999 74C94.1999 77.8 99.0999 78.3 102.7 78.3C106.7 78.3 110.8 77 110.8 73.5C110.8 71.2 109.6 69.6 105.9 69.3L98.6999 68.6C90.3999 67.8 85.2999 64.2 85.2999 55.7C85.2999 46.2 93.6999 41 103.1 41C110.3 41 116.3 42.2 120.7 46.4L113.6 53.6C110.9 51.2 106.9 50.5 102.9 50.5C98.2999 50.5 96.3999 52.6 96.3999 54.9C96.3999 56.6 97.0999 58.5 101.2 58.9L108.4 59.6C117.5 60.5 122.1 65.3 122.1 73.1C122.1 83.3 113.4 88.1 102.5 88.1Z" fill="white"/>
<path d="M142.1 87.6001C132.7 87.6001 128.8 81 128.8 74.4V51.6H123.9V42.9H128.8V29.3H140.3V42.9H148.4V51.6H140.3V73.7C140.3 76.3 141.5 77.9 144.3 77.9H148.5V87.6001H142.1Z" fill="white"/>
<path d="M153.5 33.7V24.3H165.3V33.7H153.5ZM153.7 87.6001V41.6H165.2V87.6001H153.7Z" fill="white"/>
<path d="M191.1 88.1C181.9 88.1 170.5 83.2 170.5 64.5C170.5 45.9 181.9 41 191.1 41C197.5 41 202.2 42.9 206.3 47.2L198.5 55C196.1 52.4 194.1 51.4 191.1 51.4C188.4 51.4 186.2 52.4 184.6 54.4C182.8 56.6 182 59.7 182 64.6C182 69.5 182.8 72.6 184.6 74.9C186.3 76.9 188.4 77.9 191.1 77.9C194.1 77.9 196.1 76.8 198.5 74.3L206.3 82C202.2 86.1 197.5 88.1 191.1 88.1Z" fill="white"/>
<path d="M238 87.6L226.7 68.4L221.8 73.8999V87.6H210.3V24.7H221.8V60.4L237.1 41.6H251L234.6 60.2L252.3 87.7L238 87.6Z" fill="white"/>
<path d="M261.8 68.0999C261.8 73.9999 265.4 78.2999 271.9 78.2999C276.9 78.2999 279.4 76.8999 282.3 73.9999L289.3 80.7999C284.6 85.4999 280.1 87.9999 271.8 87.9999C260.9 87.9999 250.5 83.0999 250.5 64.3999C250.5 49.3999 258.6 40.8999 270.6 40.8999C283.4 40.8999 290.7 50.2999 290.7 62.8999V67.9999L261.8 68.0999ZM278.3 55.2999C277.1 52.5999 274.5 50.4999 270.6 50.4999C266.7 50.4999 264.1 52.4999 262.9 55.2999C262.2 56.9999 261.9 58.1999 261.8 60.1999H279.3C279.2 58.1999 279 56.9999 278.3 55.2999Z" fill="white"/>
<path d="M321.1 54.1001C319.3 52.3001 317.8 51.4001 315 51.4001C311.5 51.4001 307.6 54.1001 307.6 59.9001V87.6001H296.1V41.6001H307.3V46.0001C309.5 43.3001 313.9 41.1001 318.9 41.1001C323.4 41.1001 326.6 42.2001 329.8 45.4001L321.1 54.1001Z" fill="white"/>
<path d="M47.5001 92.7C46.8001 93 45.9001 92.9 45.0001 93C44.2001 93 43.1001 93.0001 42.6001 92.6001C42.3001 92.4001 42.3001 91.9001 42.3001 91.6001C42.3001 91.3001 42.4001 90.8 42.4001 90.5C42.5001 90.1 42.6001 89.5 42.4001 89.2C42.2001 88.9 41.5001 89 41.1001 88.8C40.7001 88.6 40.6001 88 40.5001 87.4C40.5001 87.2 40.3001 87 40.3001 86.9C40.2001 86 40.5001 84.7 40.7001 83.8C40.9001 82.8 41.2001 81.9 41.4001 80.9C41.7001 79.5 41.7001 77.9 41.6001 76.4C41.6001 75.6 41.4001 75 41.6001 74.4C41.7001 73.8 42.0001 73.3 42.1001 72.7C42.1001 72.5 42.1001 72.3001 42.1001 72.1001C42.1001 71.9001 42.2001 71.8001 42.2001 71.6001C42.2001 71.2001 42.1001 70.7 42.1001 70.2C42.0001 68.9 42.1001 67 42.2001 65.9C42.2001 65.5 42.4001 65.1 42.1001 64.9C40.7001 64.9 39.5001 65.1 38.2001 65.3C34.8001 65.7 30.4001 65.8 27.1001 65.1C26.8001 65 26.5001 65 26.2001 65C23.8001 64.5 21.7001 63.4 20.0001 62.1C19.7001 61.9 19.4001 61.7 19.1001 61.4C18.8001 61.2 18.5001 60.9 18.2001 60.7C16.9001 60.1 15.1001 60.8 14.5001 61.7C14.3001 62 14.1001 62.5 13.9001 62.9C13.7001 63.3 13.5001 63.7 13.4001 64.1C12.5001 66.1 11.5001 68.1001 10.6001 70.1001C10.1001 71.3001 9.50013 72.6 9.10013 73.9C8.30013 76.7 9.00013 80.4001 9.70013 83.1001C9.80013 83.3001 9.90014 83.6 10.0001 83.9C10.2001 84.5 10.6001 85.4 11.1001 85.8C11.4001 86 11.8001 86.2 12.1001 86.4C12.5001 86.7 12.7001 87.3 13.0001 87.9C13.1001 88.1 13.3001 88.4 13.4001 88.7C13.7001 89.3 13.9001 89.8 13.2001 90.2C12.7001 90.5 11.9001 90.5001 11.2001 90.6001C10.9001 90.7001 11.0001 91.1 10.8001 91.3C10.7001 91.4 10.2001 91.6 10.0001 91.7C9.10014 92 7.50014 92 6.80014 91.7C6.40014 91.6 6.00014 91.3 5.90014 91C5.70014 90.4 6.20014 89.7 5.80014 89.3C5.60014 89.1 5.20014 89.1 4.90014 89C4.40014 88.8 4.00013 88.3 3.70013 87.8C3.20013 86.4 3.50014 84.3001 3.40014 82.6001C3.40014 82.1001 3.30014 81.6 3.30014 81C3.30014 80 3.00014 79 2.90014 78C2.80014 77.5 2.70013 77.1 2.60013 76.7C2.40013 76 2.30013 75.2 2.10013 74.5C1.90013 73.7 1.90013 72.9 2.10013 72.3C2.20013 72.1 2.40014 71.9 2.50014 71.7C2.70014 71.3 2.70013 70.9 2.70013 70.5C2.60013 70.3 2.10014 70.5 2.00014 70.3C1.70014 68.1 1.40013 66 1.20013 63.7C1.10013 62.9 1.10013 62.2 1.10013 61.4C1.00013 59.9 1.10014 58.3 0.900137 56.8C0.800137 56.1 0.700134 55.4 0.600134 54.7C0.300134 52.7 -0.199868 50.2 0.200132 48.1C0.500132 46.8 0.900132 45.7 1.70013 44.7C2.20013 44 2.80014 43.4 3.40014 42.7C4.00014 42.1 4.70014 41.5 5.40014 41C5.90014 40.7 6.40014 40.3 6.90014 40C8.00014 39.5 9.50013 39 11.1001 38.9C12.7001 38.8 14.5001 38.8 16.0001 39.1C17.5001 39.4 19.0001 39.6 20.5001 39.9C21.9001 40.2 23.3001 40.6 24.7001 40.9C24.9001 40.9 25.0001 41.1 25.2001 41.1C25.6001 41.2 26.1001 41.2 26.6001 41.4C27.9001 41.7 29.5001 41.9 31.1001 41.9C32.8001 41.9 34.3001 41.9 35.7001 41.5C35.9001 41.4 36.1001 41.3 36.3001 41.3C36.5001 41.2 36.8001 41.2 37.0001 41.2C37.1001 41.2 37.3001 41 37.4001 40.9C38.2001 40.5 38.9001 40.1 39.6001 39.6C40.2001 39.2 40.6001 38.9 41.4001 38.6C41.7001 38.5 42.1001 38.3 42.4001 38.2C43.1001 38 43.9001 37.8 44.4001 37.4C45.3001 36.9 45.9001 36.1 46.6001 35.4C47.3001 34.8 48.1001 34.1 48.9001 33.5C50.5001 32.2 52.1001 31.1001 53.6001 29.9001C54.4001 29.3001 55.2001 28.7 56.1001 28.2C57.8001 27.2 59.6001 26.1 62.1001 25.9C63.1001 25.8 64.1001 25.8 65.1001 25.9C65.4001 25.9 65.7001 26.1 66.0001 26C66.3001 25.9 66.5001 25.5 66.6001 25.2C67.0001 24.5 67.2001 24.1 67.6001 23.3C67.8001 22.8 67.7001 22.3 68.2001 22.3C68.7001 22.3 68.6001 23.6 68.6001 24.1C68.6001 24.7 68.5001 25.5 68.6001 25.9C68.7001 26.2 69.1001 26.6 69.5001 26.6C69.8001 26.6 70.0001 26.4 70.2001 26.2C70.5001 26 70.7001 26 70.9001 25.8C71.3001 25.5 71.8001 25 72.2001 24.6C72.5001 24.3 73.1001 23.4 73.6001 23.5C74.6001 23.6 73.6001 25.1 73.4001 25.5C72.9001 26.6 72.4001 27.5001 71.8001 28.5001C71.6001 28.9001 71.0001 29.5 71.0001 30C71.0001 30.3 71.3001 30.5001 71.4001 30.9001C71.5001 31.1001 71.5001 31.2001 71.6001 31.4001C71.9001 32.2 72.2001 33.3 72.5001 34.2C72.7001 35 72.9001 35.8 73.2001 36.5C73.5001 37.2 73.9001 37.9 74.2001 38.7C74.3001 38.9 74.3001 39.1 74.4001 39.3C75.0001 40.9 75.6001 42.7 76.4001 44.3C76.7001 44.9 77.1001 45.7 77.1001 46.6C77.1001 47.6 76.6001 48.1 76.1001 48.9C75.9001 49.3 75.5001 49.9 75.1001 50C74.8001 50.1 74.5001 50 74.2001 50C73.8001 50.1 73.5001 50.3 73.2001 50.3C72.3001 50.4 71.4001 49.7 71.2001 49C71.1001 48.8 71.2001 48.5 71.1001 48.2C70.9001 47.1 70.3001 46.6 69.6001 45.8C69.1001 45.3 68.7001 45 68.1001 44.7C67.2001 44.2 66.3001 44 65.3001 43.5C65.0001 43.3 64.5001 43.1 64.2001 43.2C63.7001 43.3 63.2001 44.1 62.8001 44.6C60.4001 47.8 58.2001 51.1 55.9001 54.2C54.3001 56.3 52.7001 58.4 51.4001 60.7C51.1001 61.3 50.9001 62 50.6001 62.7C50.4001 63.4 50.2001 64.1 50.0001 64.9C49.1001 67.5 48.8001 70.7 48.0001 73.4C47.9001 73.7 47.9001 74 47.8001 74.3C47.4001 75.7 47.0001 77.3 46.6001 78.8C46.3001 79.9 46.2001 81.4 46.1001 82.8C46.1001 84.2 46.0001 86.1 46.5001 86.9C46.8001 87.4 47.7001 87.5 48.0001 88C48.2001 88.3 48.4001 89 48.7001 89.4C48.9001 89.7 49.4001 90.3 49.3001 90.8C49.3001 91.1 49.0001 91.4 48.7001 91.5C48.4001 91.6 48.0001 91.6 47.7001 91.7C47.7001 92.1 47.8001 92.5 47.5001 92.7Z" fill="white"/>
<path d="M381.4 41C375.7 41 371.5 42.8 367.6 46.8C364.7 42.8 360.5 41 355.4 41C351.2 41 346.9 42.7 343.9 45.8V41.6H332.7V87.6H344.2V59.8C344.2 53.5 348.3 51.4 351.9 51.4C355.5 51.4 359.5 53.5 359.5 59.8V87.6H371V59.5C371 53.5 375.2 51.4 378.7 51.4C382.3 51.4 386.3 53.5 386.3 59.8V87.6H397.8V58.2C397.8 53.2 396.5 48.8 392.8 45.1C390.1 42.5 386 41 381.4 41Z" fill="white"/>
<path d="M431.3 69.4C431.3 75.7 427.2 77.8 423.6 77.8C420 77.8 416 75.7 416 69.4V41.5H404.5V71C404.5 76 405.5 80.4 409.2 84.1C411.8 86.7 415.5 88.2 420.1 88.2C424.3 88.2 428.6 86.6 431.6 83.4V87.6H442.8V41.6H431.3V69.4Z" fill="white"/>
<path d="M461.6 73.7V24.7H450.1V74.3999C450.1 80.8999 454.1 87.6 463.5 87.6H470V77.8999H465.6C462.7 77.8999 461.6 76.5 461.6 73.7Z" fill="white"/>
<path d="M512.2 63C512.2 50.4 505 41 492.1 41C480.2 41 472 49.5 472 64.5C472 83.1 482.4 88.1 493.3 88.1C501.6 88.1 506.1 85.5 510.8 80.9L503.8 74.1C500.9 77 498.4 78.4 493.4 78.4C486.9 78.4 483.3 74.1 483.3 68.2H512.1L512.2 63ZM483.4 60.3C483.5 58.3 483.8 57 484.5 55.4C485.7 52.7 488.3 50.6 492.2 50.6C496.1 50.6 498.6 52.6 499.9 55.4C500.6 57.1 500.9 58.3 501 60.3H483.4Z" fill="white"/>
</svg>
