<svg id="Layer_1" data-name="Layer 1" xmlns="http://www.w3.org/2000/svg" viewBox="0 0 450 110"><defs><style>.cls-1{fill:#eee;}.cls-2,.cls-3,.cls-4{fill:#fff;}.cls-3{opacity:0.65;}.cls-4{opacity:0.8;}</style></defs><polygon class="cls-1" points="74.44 61.71 74.41 61.68 74.43 61.73 74.44 61.71"/><polygon class="cls-1" points="74.43 61.73 74.39 61.79 74.44 61.77 74.43 61.73"/><path class="cls-2" d="M173.88,36.33a3.51,3.51,0,0,0-1.28,1.61l-10,23c-.36.91-.69,1.8-1,2.68s-.46,1.41-.72,2.35a51.49,51.49,0,0,0-1.74-5L148.51,37.94a4.48,4.48,0,0,0-1.17-1.56,3.29,3.29,0,0,0-2.23-.68h-9.44l20,41L145.45,99h8.94a4.18,4.18,0,0,0,2.59-.66,4.62,4.62,0,0,0,1.39-1.92L185.51,35.7H175.9A3.43,3.43,0,0,0,173.88,36.33Z"/><path class="cls-2" d="M354.76,71a6.81,6.81,0,0,0-2.16-1.44A6.68,6.68,0,0,0,350,69a6.79,6.79,0,0,0-2.71.54A7.14,7.14,0,0,0,345.06,71a6.2,6.2,0,0,0-1.44,2.16,7.09,7.09,0,0,0,0,5.33,6.22,6.22,0,0,0,1.44,2.14A6.74,6.74,0,0,0,347.24,82a7,7,0,0,0,2.71.52A6.84,6.84,0,0,0,352.6,82a6.44,6.44,0,0,0,2.16-1.42,6.83,6.83,0,0,0,1.44-2.14,6.85,6.85,0,0,0,0-5.33A6.81,6.81,0,0,0,354.76,71Z"/><rect class="cls-2" x="319.6" y="14.99" width="11.12" height="66.91"/><path class="cls-2" d="M431.86,19.45a7.2,7.2,0,0,0-1.56-2.25A7.45,7.45,0,0,0,428,15.69a7.06,7.06,0,0,0-2.79-.56,6.76,6.76,0,0,0-2.72.56,7.26,7.26,0,0,0-2.23,1.51,7.06,7.06,0,0,0-1.51,2.25,6.89,6.89,0,0,0-.56,2.79,6.47,6.47,0,0,0,.56,2.7,7.18,7.18,0,0,0,3.74,3.72,6.76,6.76,0,0,0,2.72.56,7.06,7.06,0,0,0,2.79-.56,7.4,7.4,0,0,0,3.83-3.72,6.33,6.33,0,0,0,.58-2.7A6.74,6.74,0,0,0,431.86,19.45Z"/><rect class="cls-2" x="419.66" y="35.7" width="11.12" height="46.19"/><path class="cls-2" d="M409.32,54.15c-.05-2.66-.55-7.65-1.39-9.87a16.15,16.15,0,0,0-3.59-5.68A15.93,15.93,0,0,0,398.69,35a27.66,27.66,0,0,0-8.92-1.18,32.32,32.32,0,0,0-11,2.39c-5.89,2.49-8.2,4.84-8.2,4.84l4.67,7.73a29.86,29.86,0,0,1,14.69-6c2.57-.25,6.09.54,7.54,2,2.56,2.56,2.09,5.45,2.27,7.12,0,.24.07,1.31.13,2.86-.33-.06-2.79-.5-3.65-.58A48.15,48.15,0,0,0,385.16,54C370.84,55.86,367,66.56,370.13,74c1.63,3.95,5.1,6.91,10.17,8.39,6.34,1.86,16.32-.8,20.17-6.38v0s.53,2.89.68,3.64a2.66,2.66,0,0,0,1.44,1.92,5.67,5.67,0,0,0,2.57.43l5.5-.1a120.11,120.11,0,0,1-1.09-17.28C409.56,62.2,409.32,54.15,409.32,54.15Zm-11.1,14.64a22.25,22.25,0,0,1-1.75,1.61c-9.78,7.82-17.07,4.11-17.77-.67-.57-3.82,3.19-8,10.27-8.77a38.31,38.31,0,0,1,11.11.66c.05,1.71.1,3.48.15,5.17Z"/><path class="cls-2" d="M306.33,42.63a18,18,0,0,0-5.28-5.23,17,17,0,0,0-6.87-2.46,17.28,17.28,0,0,0-8.16.65,25.84,25.84,0,0,0-6.83,3.74V15H268.4V81.9h7a2.89,2.89,0,0,0,1.78-.5,2.8,2.8,0,0,0,.92-1.66l.5-3.11.23-1.22c.5.62,1,1.22,1.53,1.78A16.28,16.28,0,0,0,283,79.41,15.7,15.7,0,0,0,286.17,81a18.89,18.89,0,0,0,12.13.21A16,16,0,0,0,304.71,77a20.45,20.45,0,0,0,4.2-7.1,29.75,29.75,0,0,0,1.67-9.36,37.93,37.93,0,0,0-.95-10.16A24.33,24.33,0,0,0,306.33,42.63Zm-24,29c-1.41-.73-2.1-1.84-3.12-3.32V46.81a16,16,0,0,1,4.46-3.1C306.4,35.59,304.75,83.16,282.31,71.63Z"/><path class="cls-2" d="M131.59,62.72a11.14,11.14,0,0,0-3.05-3.15c-.24-.17-.49-.32-.74-.48a17.57,17.57,0,0,0-3.53-1.83,85.11,85.11,0,0,0-9.94-3,35,35,0,0,1-4.46-1.43,11.44,11.44,0,0,1-3.29-1.94,4,4,0,0,1-1.38-2.78,4.54,4.54,0,0,1,2.35-3.37c2.4-1.68,7.94-1.85,11-1.11a25.91,25.91,0,0,1,3.43,1c1,.36,1.85.68,2.6,1a4.08,4.08,0,0,0,3,.14,2.67,2.67,0,0,0,.9-.84h0l2.65-5A24.53,24.53,0,0,0,123.79,36a33.24,33.24,0,0,0-19-.23A19.34,19.34,0,0,0,98.54,39a12.88,12.88,0,0,0-3.67,4.58,12.09,12.09,0,0,0-1.12,5.5c0,.06,0,.12,0,.18s0,.35,0,.52A10.27,10.27,0,0,0,95,54.66a11.08,11.08,0,0,0,3.06,3.4,16.53,16.53,0,0,0,1.62,1,18.12,18.12,0,0,0,2.68,1.34,50,50,0,0,0,5,1.71c1.7.48,3.39.93,5,1.33a34.53,34.53,0,0,1,4.49,1.43,11.17,11.17,0,0,1,3.3,2,4.22,4.22,0,0,1,1.38,3,4.86,4.86,0,0,1-.46,1.64,5.18,5.18,0,0,1-1.72,2,12.74,12.74,0,0,1-7.18,1.85,18.79,18.79,0,0,1-5.18-.54,32.53,32.53,0,0,1-6.17-2.45,4.42,4.42,0,0,0-2.06-.48,3.87,3.87,0,0,0-1.74.34,3.43,3.43,0,0,0-1.18,1L93.21,78.3a22.56,22.56,0,0,0,3.37,2,31.47,31.47,0,0,0,4.6,1.81,36.43,36.43,0,0,0,5.17,1.18,34.29,34.29,0,0,0,5.49.38,33.12,33.12,0,0,0,9.23-1.28,19.92,19.92,0,0,0,6.61-3.34,13.65,13.65,0,0,0,3.95-5,14,14,0,0,0,1.21-6.29s0-.08,0-.13,0-.31,0-.47A8.82,8.82,0,0,0,131.59,62.72Z"/><path class="cls-2" d="M251.22,37.07a16.47,16.47,0,0,0-8.75-2.43A15.69,15.69,0,0,0,234,37.2s-1.09.74-1.53,1.09a26.66,26.66,0,0,0-4.58,5c-3.24-9.82-15.45-11.23-23-5a26.91,26.91,0,0,0-2.64,2.5l-.74-3.46a2.83,2.83,0,0,0-2.94-2h-7.05V81.9H203V47.76a15.81,15.81,0,0,1,4-3.3c3.06-1.82,8.82-1.62,11,.93,1.29,1.43,2.26,3.73,2.26,7.2V81.9h10V47.76a15.81,15.81,0,0,1,4-3.3c3.05-1.82,8.82-1.62,11,.93,1.29,1.43,2.26,3.73,2.26,7.2V81.9h11.57V56c0-6.91-.79-10.52-2.38-13.15A16.22,16.22,0,0,0,251.22,37.07Z"/><polygon class="cls-3" points="74.41 61.68 39.31 34.4 21.25 20.36 31.93 53.17 40.2 78.6 48.12 102.91 74.39 61.79 74.43 61.73 74.41 61.68"/><polygon class="cls-4" points="74.41 61.68 50.05 7.09 39.31 34.4 31.93 53.17 17.56 89.73 40.2 78.6 74.39 61.79 74.43 61.73 74.41 61.68"/></svg>