<svg viewBox="0 0 168 42" fill="none" xmlns="http://www.w3.org/2000/svg" class="header__ImageLogo-sc-1j5gc04-5 TopGa"><mask id="logo_title_dark_mode_svg__a" mask-type="alpha" maskUnits="userSpaceOnUse" x="0" y="0" width="42" height="42"><path fill-rule="evenodd" clip-rule="evenodd" d="M21 42c11.598 0 21-9.402 21-21S32.598 0 21 0 0 9.402 0 21s9.402 21 21 21z" fill="#fff"></path></mask><g mask="url(#logo_title_dark_mode_svg__a)"><path d="M48.712-1.112H-4.323v32.365h53.035V-1.112z" fill="#F64942"></path><path d="M9.251 34.311c-2.69-5.274-.095-11.66 6.923-13.376 20.387-3.33 17.33-9.644 23.575-11.895 11.618-4.188 8.68 10.388 6.343 14.463-2.337 4.076 3.198 11.807-4.735 12.37-4.993.353-6.448-2.46-15.249 1.172-4.526 1.868-4.79 1.455-9.49-.06l-4.022-2.033-3.345-.64z" fill="#F4CE45"></path><path d="M19.883-4.06c-5.42.723-33.158 6.56-35.135 7.463l4.824 27.38c2.896-.28 8.27 2.603 8.27-1.458 0-3.94.799-5.62 3.517-10.343 3.994-6.938 12.836-6.822 15.916-6.973 7.287-.356 15.259-2.688 19.332-8.604 13.958-20.27.713-12.273-16.724-7.465z" fill="#5B95BF"></path><path d="M14.03 27.737c-5.65.017-11.608 1.759-17.049 3.802l2.136 23.133c14.807-1.853 41.422-6.282 43.077-9.089 1.919-3.254-.785-5.425 4.791-8.39 4.46-2.371 9.4-11.75-1.119-11.855-5.825.047-7.316 1.255-11.859 2.96-7.488 2.809-15.648-.574-19.977-.561z" fill="#EF90A4"></path><path fill-rule="evenodd" clip-rule="evenodd" d="M21.168 6.794c.72 0 1.338.434 1.609 1.054a.16.16 0 00.147.096.152.152 0 00.118-.055 1.76 1.76 0 011.8-.57 1.755 1.755 0 011.282 1.438.158.158 0 00.246.104 1.76 1.76 0 011.011-.319 1.755 1.755 0 011.74 1.956.159.159 0 00.21.164c.195-.07.4-.106.604-.106a1.756 1.756 0 011.631 2.4.159.159 0 00.16.212 1.753 1.753 0 011.565 2.793.159.159 0 00.1.248 1.755 1.755 0 01.79 3.103.159.159 0 00.032.265 1.755 1.755 0 01-.038 3.2c-.106.047-.13.191-.041.266a1.755 1.755 0 01-.868 3.082.159.159 0 00-.105.246 1.755 1.755 0 01-1.653 2.751.159.159 0 00-.147.211 1.754 1.754 0 01-2.293 2.235.151.151 0 00-.056-.01.16.16 0 00-.157.17 1.755 1.755 0 01-2.793 1.566.151.151 0 00-.09-.03.16.16 0 00-.158.13 1.754 1.754 0 01-3.103.788.153.153 0 00-.12-.057.157.157 0 00-.145.09 1.755 1.755 0 01-3.2-.038.16.16 0 00-.147-.096.152.152 0 00-.118.054 1.759 1.759 0 01-1.8.57 1.755 1.755 0 01-1.282-1.437.158.158 0 00-.246-.105 1.744 1.744 0 01-1.886.084 1.755 1.755 0 01-.866-1.72.159.159 0 00-.21-.165 1.747 1.747 0 01-1.844-.407 1.756 1.756 0 01-.39-1.886.159.159 0 00-.16-.213 1.753 1.753 0 01-1.565-2.793.159.159 0 00-.1-.248 1.755 1.755 0 01-.79-3.103.159.159 0 00-.032-.265 1.755 1.755 0 01.038-3.2.159.159 0 00.041-.265 1.755 1.755 0 01.868-3.083.159.159 0 00.105-.245 1.755 1.755 0 011.653-2.752.158.158 0 00.147-.21 1.755 1.755 0 012.293-2.235.16.16 0 00.213-.16 1.755 1.755 0 012.793-1.566c.028.02.06.03.09.03a.16.16 0 00.158-.13 1.755 1.755 0 013.103-.789c.03.04.076.058.12.058a.158.158 0 00.145-.09c.28-.6.886-1.016 1.591-1.016z" fill="#fff"></path><path fill-rule="evenodd" clip-rule="evenodd" d="M27.536 27.892c-1.582 0-1.458-2.233 0-2.233s1.582 2.233 0 2.233zm-13.072 0c-1.582 0-1.458-2.233 0-2.233s1.582 2.233 0 2.233zm17.852-8.25h-.536a2.362 2.362 0 01-2.156-1.398 2.363 2.363 0 01-4.312 0 2.363 2.363 0 01-4.311 0 2.363 2.363 0 01-4.312 0 2.362 2.362 0 01-4.312 0 2.362 2.362 0 01-2.156 1.397h-.53c-.803.865-.293 1.596 1.692 1.596v4.441c0 4.174 4.806 6.261 9.612 6.261 4.807 0 9.613-2.087 9.613-6.26v-4.442c1.987 0 2.505-.73 1.708-1.596z" fill="#000"></path><path fill-rule="evenodd" clip-rule="evenodd" d="M21.154 5.353c-.704 0-1.378.22-1.937.609a3.402 3.402 0 00-3.834.976 3.401 3.401 0 00-3.448 1.932 3.4 3.4 0 00-2.831 2.762 3.405 3.405 0 00-1.578 1.411 3.401 3.401 0 00-.441 1.985 3.397 3.397 0 00-1.072 3.805 3.398 3.398 0 00-.05 3.952 3.398 3.398 0 00.974 3.831 3.398 3.398 0 001.933 3.45 3.4 3.4 0 002.76 2.833 3.397 3.397 0 003.399 2.019 3.397 3.397 0 002.653 1.273c.399 0 .788-.07 1.154-.202a3.397 3.397 0 003.947.05 3.396 3.396 0 002.118.115 3.4 3.4 0 001.715-1.091 3.367 3.367 0 002.074-.435 3.402 3.402 0 001.374-1.497 3.375 3.375 0 001.89-.958c.5-.499.82-1.133.941-1.804a3.406 3.406 0 001.578-1.412 3.4 3.4 0 00.442-1.984 3.395 3.395 0 001.071-3.805 3.399 3.399 0 00.05-3.953 3.4 3.4 0 00-.974-3.83 3.395 3.395 0 00-1.932-3.45 3.397 3.397 0 00-.957-1.89 3.375 3.375 0 00-1.804-.943 3.396 3.396 0 00-3.399-2.02 3.398 3.398 0 00-3.806-1.07 3.397 3.397 0 00-2.01-.659zm0 1.677c.707 0 1.314.427 1.58 1.036a.16.16 0 00.146.094.15.15 0 00.115-.054 1.729 1.729 0 011.77-.56c.684.184 1.16.754 1.259 1.413a.155.155 0 00.241.103c.292-.205.64-.314.994-.314a1.724 1.724 0 011.71 1.921.156.156 0 00.207.162 1.716 1.716 0 011.811.4c.501.501.628 1.233.385 1.853a.156.156 0 00.157.21 1.722 1.722 0 011.538 2.744.156.156 0 00.098.243 1.724 1.724 0 01.775 3.049.156.156 0 00.032.26 1.724 1.724 0 01-.037 3.145.155.155 0 00-.041.26 1.724 1.724 0 01-.853 3.029.156.156 0 00-.102.241 1.724 1.724 0 01-1.625 2.703.156.156 0 00-.145.208 1.723 1.723 0 01-2.253 2.196.144.144 0 00-.054-.011.157.157 0 00-.155.168 1.723 1.723 0 01-2.745 1.538.148.148 0 00-.088-.03.157.157 0 00-.155.128 1.724 1.724 0 01-3.049.775.15.15 0 00-.119-.056.154.154 0 00-.141.087 1.725 1.725 0 01-3.144-.036.158.158 0 00-.145-.095.148.148 0 00-.116.054 1.73 1.73 0 01-1.77.56 1.725 1.725 0 01-1.258-1.412.155.155 0 00-.242-.103c-.291.204-.64.313-.994.313a1.725 1.725 0 01-1.71-1.922.156.156 0 00-.206-.16 1.717 1.717 0 01-1.812-.4 1.725 1.725 0 01-.384-1.854.156.156 0 00-.158-.21 1.723 1.723 0 01-1.538-2.744.156.156 0 00-.098-.243 1.724 1.724 0 01-.775-3.049.156.156 0 00-.031-.26 1.724 1.724 0 01.037-3.144c.104-.046.128-.188.04-.26a1.724 1.724 0 01.853-3.03.156.156 0 00.103-.24 1.724 1.724 0 011.625-2.704c.103 0 .18-.107.144-.207a1.725 1.725 0 012.253-2.196c.018.007.036.01.054.01a.157.157 0 00.155-.168 1.724 1.724 0 012.745-1.538.156.156 0 00.243-.098 1.724 1.724 0 013.05-.775.15.15 0 00.118.057.154.154 0 00.141-.088c.275-.59.871-.999 1.564-.999z" fill="#000"></path></g><path fill-rule="evenodd" clip-rule="evenodd" d="M62.09 29.022c.239.248.358.568.358.959 0 .39-.158.71-.474.96-.316.248-.724.372-1.222.372h-.518a5.002 5.002 0 01-2.573-.68 4.89 4.89 0 01-1.826-1.851c-.44-.782-.661-1.661-.661-2.639v-6.582h-1.323c-.402 0-.728-.107-.977-.32a1.01 1.01 0 01-.374-.8c0-.355.125-.639.374-.852.249-.213.575-.32.977-.32h1.323v-3.837c0-.391.134-.711.403-.96.268-.249.613-.373 1.035-.373.421 0 .766.124 1.035.373.268.249.402.569.402.96v3.837h2.444c.403 0 .729.107.978.32.25.213.374.497.374.853 0 .32-.125.586-.374.8-.25.212-.575.319-.978.319H58.05v6.582c0 .711.211 1.306.633 1.786.422.48.94.72 1.552.72h.978c.345 0 .637.124.877.373zm14.807-11.42a7.467 7.467 0 012.846 2.665c.7 1.128 1.05 2.385 1.05 3.771v5.943c0 .39-.14.715-.417.973-.278.257-.628.386-1.05.386-.421 0-.771-.129-1.05-.386a1.27 1.27 0 01-.416-.973v-.986a6.988 6.988 0 01-2.444 1.785 7.552 7.552 0 01-3.105.64c-1.38 0-2.631-.32-3.753-.96a6.96 6.96 0 01-2.645-2.651c-.642-1.128-.963-2.385-.963-3.77 0-1.387.345-2.644 1.035-3.772.69-1.128 1.644-2.016 2.861-2.665 1.217-.648 2.564-.973 4.04-.973s2.813.325 4.01.973zm-1.41 10.767a4.78 4.78 0 001.827-1.786c.44-.755.661-1.603.661-2.545s-.22-1.794-.661-2.558a4.752 4.752 0 00-1.826-1.8c-.776-.434-1.644-.652-2.602-.652-.959 0-1.826.218-2.602.653a4.857 4.857 0 00-1.84 1.799c-.451.764-.676 1.616-.676 2.558 0 .942.225 1.79.675 2.545a4.886 4.886 0 001.84 1.786c.777.435 1.644.653 2.603.653.958 0 1.826-.218 2.602-.653zm11.43 2.491c-1.15-.373-2.05-.861-2.703-1.465a1.089 1.089 0 01-.373-.826c0-.427.191-.773.575-1.04.364-.249.7-.373 1.006-.373.383 0 .748.16 1.093.48.364.373.91.697 1.638.973a6.53 6.53 0 002.33.413c1.092 0 1.94-.17 2.544-.507.604-.337.906-.79.906-1.359 0-.55-.297-1.008-.892-1.372-.594-.365-1.6-.671-3.019-.92-3.68-.657-5.52-2.06-5.52-4.21 0-.871.278-1.608.834-2.212.556-.605 1.284-1.058 2.185-1.36.9-.302 1.86-.453 2.875-.453 1.246 0 2.363.187 3.35.56.987.373 1.768.888 2.343 1.546.25.284.374.568.374.853 0 .302-.163.577-.489.826-.21.142-.479.213-.805.213a2.05 2.05 0 01-1.351-.506 4.364 4.364 0 00-1.524-.867c-.537-.168-1.189-.253-1.955-.253-.882 0-1.606.138-2.171.413-.566.276-.848.662-.848 1.16 0 .355.096.652.287.892.192.24.556.462 1.093.667.537.204 1.313.404 2.329.6 2.09.39 3.57.932 4.442 1.625.872.693 1.308 1.59 1.308 2.691 0 .818-.24 1.56-.718 2.226-.48.666-1.184 1.19-2.114 1.572-.93.382-2.046.573-3.35.573-1.303 0-2.53-.187-3.68-.56zm25.475-.666c0 .391-.172.72-.517.986a1.52 1.52 0 01-.921.32c-.421 0-.766-.16-1.035-.48l-5.463-6.262-1.437 1.172v4.078c0 .39-.13.706-.388.946-.259.24-.599.36-1.021.36-.422 0-.762-.12-1.021-.36-.259-.24-.388-.556-.388-.946V11.806c0-.391.129-.706.388-.946s.599-.36 1.021-.36c.422 0 .762.12 1.021.36.258.24.388.555.388.946v10.846l6.987-5.783c.249-.23.546-.346.891-.346.402 0 .728.142.978.426.249.231.373.507.373.826 0 .373-.153.676-.46.907l-5.29 4.37 5.578 6.343c.211.213.316.48.316.8zm13.586-12.592a7.46 7.46 0 012.846 2.665c.7 1.128 1.05 2.385 1.05 3.771v5.943c0 .39-.139.715-.417.973-.278.257-.628.386-1.05.386-.421 0-.771-.129-1.049-.386a1.27 1.27 0 01-.417-.973v-.986a6.993 6.993 0 01-2.444 1.785 7.548 7.548 0 01-3.105.64c-1.38 0-2.631-.32-3.753-.96a6.961 6.961 0 01-2.645-2.651c-.642-1.128-.963-2.385-.963-3.77 0-1.387.345-2.644 1.035-3.772.69-1.128 1.644-2.016 2.861-2.665 1.217-.648 2.564-.973 4.04-.973s2.813.325 4.011.973zm-1.409 10.767a4.783 4.783 0 001.826-1.786c.441-.755.661-1.603.661-2.545s-.22-1.794-.661-2.558a4.755 4.755 0 00-1.826-1.8c-.776-.434-1.644-.652-2.602-.652-.959 0-1.826.218-2.602.653a4.857 4.857 0 00-1.841 1.799c-.45.764-.675 1.616-.675 2.558 0 .942.225 1.79.675 2.545a4.887 4.887 0 001.841 1.786c.776.435 1.643.653 2.602.653.958 0 1.826-.218 2.602-.653zm24.023-17.496c.268.249.402.578.402.986v12.152c0 1.386-.349 2.643-1.049 3.771a7.47 7.47 0 01-2.847 2.665c-1.198.649-2.535.973-4.011.973s-2.822-.324-4.039-.973c-1.218-.648-2.171-1.537-2.861-2.665-.69-1.128-1.035-2.385-1.035-3.77 0-1.386.321-2.643.963-3.771a6.962 6.962 0 012.645-2.652c1.121-.64 2.372-.96 3.752-.96 1.112 0 2.147.214 3.106.64a6.993 6.993 0 012.444 1.786v-7.196c0-.409.139-.737.417-.986.277-.249.627-.373 1.049-.373.441 0 .796.124 1.064.373zm-4.903 17.496a4.747 4.747 0 001.826-1.8c.441-.763.662-1.616.662-2.558 0-.941-.221-1.79-.662-2.545a4.777 4.777 0 00-1.826-1.785c-.776-.436-1.643-.653-2.602-.653-.958 0-1.825.218-2.602.653a4.893 4.893 0 00-1.84 1.785c-.45.755-.676 1.604-.676 2.545 0 .942.226 1.795.676 2.559a4.86 4.86 0 001.84 1.799c.777.435 1.644.653 2.602.653.959 0 1.826-.218 2.602-.653zm23.937-3.731c-.249.222-.565.333-.949.333h-10.926c.211 1.244.82 2.247 1.826 3.011 1.006.764 2.238 1.146 3.695 1.146a6.01 6.01 0 001.797-.293c.623-.195 1.136-.435 1.538-.72a1.57 1.57 0 01.949-.293c.364 0 .652.09.863.267.345.266.517.568.517.906 0 .32-.153.586-.46.8-.652.48-1.461.87-2.429 1.172-.969.302-1.893.453-2.775.453-1.572 0-2.981-.315-4.227-.946-1.246-.63-2.219-1.506-2.918-2.625-.7-1.12-1.05-2.39-1.05-3.81 0-1.422.331-2.697.992-3.825a6.915 6.915 0 012.761-2.638c1.178-.631 2.515-.947 4.011-.947 1.476 0 2.75.302 3.824.906a6.166 6.166 0 012.472 2.532c.575 1.084.863 2.328.863 3.731 0 .338-.125.618-.374.84zm-10.193-4.65c-.872.71-1.423 1.66-1.653 2.85h9.575c-.173-1.19-.652-2.14-1.438-2.85-.786-.711-1.811-1.067-3.076-1.067-1.4 0-2.535.356-3.408 1.066z" fill="#fff"></path></svg>