<?xml version="1.0" standalone="no"?>
<!DOCTYPE svg PUBLIC "-//W3C//DTD SVG 20010904//EN"
 "http://www.w3.org/TR/2001/REC-SVG-20010904/DTD/svg10.dtd">
<svg version="1.0" xmlns="http://www.w3.org/2000/svg"
 width="805.000000pt" height="155.000000pt" viewBox="0 0 805.000000 155.000000"
 preserveAspectRatio="xMidYMid meet">

<g transform="translate(0.000000,155.000000) scale(0.100000,-0.100000)"
fill="#000000" stroke="none">
<path d="M5080 900 l0 -490 70 0 70 0 0 490 0 490 -70 0 -70 0 0 -490z"/>
<path d="M4743 1345 c-47 -33 -35 -120 20 -138 62 -20 107 13 107 78 0 34 -5
47 -22 59 -28 20 -77 20 -105 1z"/>
<path d="M409 1183 c-24 -75 -27 -79 -77 -106 -44 -24 -52 -33 -52 -58 0 -28
1 -29 50 -29 l50 0 0 -212 c0 -124 5 -230 11 -253 28 -102 140 -146 289 -114
l50 11 0 52 0 53 -71 -5 c-78 -5 -110 6 -128 45 -7 15 -11 99 -11 223 l0 200
100 0 100 0 0 55 0 55 -100 0 -100 0 0 80 0 80 -43 0 -43 0 -25 -77z"/>
<path d="M2305 1248 c-46 -149 -43 -143 -95 -168 -45 -21 -50 -27 -50 -57 0
-32 1 -33 44 -33 l44 0 4 -223 c3 -215 4 -224 28 -271 42 -81 143 -114 266
-87 l54 12 0 53 0 53 -70 -5 c-129 -9 -142 18 -138 285 l3 178 98 3 97 3 0 54
0 55 -100 0 -100 0 0 80 0 80 -40 0 c-24 0 -42 -5 -45 -12z"/>
<path d="M1065 1101 c-94 -24 -169 -93 -206 -190 -17 -44 -22 -78 -22 -156 0
-166 48 -257 171 -317 63 -31 72 -33 177 -33 81 0 125 5 168 19 l57 19 0 59
c0 44 -3 58 -12 54 -62 -25 -135 -40 -203 -40 -67 -1 -87 3 -123 23 -46 27
-92 103 -92 153 l0 28 230 0 230 0 0 80 c0 188 -99 299 -273 306 -40 2 -85 0
-102 -5z m161 -117 c39 -19 70 -70 76 -124 l3 -35 -160 0 -160 0 3 30 c5 48
34 98 71 122 41 28 117 31 167 7z"/>
<path d="M1735 1101 c-118 -29 -178 -106 -162 -207 12 -72 41 -101 156 -155
163 -76 173 -82 195 -111 27 -37 13 -76 -34 -101 -45 -24 -169 -18 -254 12
-33 12 -61 21 -63 21 -2 0 -3 -28 -1 -62 l3 -63 70 -18 c150 -39 339 -5 393
70 29 41 42 108 33 161 -14 74 -61 110 -233 182 -100 41 -128 63 -128 101 0
66 107 88 234 49 37 -12 70 -18 75 -15 12 7 45 94 39 100 -2 3 -40 14 -83 25
-78 20 -183 25 -240 11z"/>
<path d="M3009 1096 c-45 -16 -73 -35 -100 -70 -25 -32 -32 -26 -43 37 l-7 37
-54 0 -55 0 0 -345 0 -345 69 0 69 0 4 228 c3 255 10 285 77 329 51 34 130 32
171 -4 19 -17 35 -44 40 -68 5 -22 10 -140 10 -262 l0 -223 69 0 70 0 3 233
c3 211 5 236 24 271 26 50 74 76 141 76 70 0 107 -31 122 -101 6 -27 11 -147
11 -264 l0 -215 71 0 71 0 -4 268 c-3 244 -5 271 -24 312 -37 80 -104 120
-205 120 -73 0 -138 -24 -184 -70 l-42 -41 -44 44 c-64 64 -169 86 -260 53z"/>
<path d="M4155 1103 c-54 -11 -155 -46 -155 -54 0 -5 10 -28 21 -52 l22 -44
66 23 c77 27 159 31 202 8 35 -17 59 -67 59 -119 0 -31 -3 -35 -27 -35 -90 -1
-237 -22 -284 -39 -94 -35 -129 -86 -129 -186 0 -142 85 -214 239 -203 76 6
120 25 173 76 27 26 39 31 42 21 2 -8 10 -31 16 -51 11 -37 13 -38 61 -38 l49
0 0 245 c0 139 -5 266 -11 295 -15 70 -65 122 -138 144 -50 15 -158 20 -206 9z
m212 -429 c-6 -79 -25 -110 -87 -141 -99 -51 -210 -13 -210 72 0 88 78 130
249 134 l54 1 -6 -66z"/>
<path d="M5935 1099 c-60 -14 -125 -41 -125 -50 0 -4 5 -21 12 -36 7 -15 12
-29 13 -30 0 -1 32 9 70 23 126 42 222 25 257 -46 21 -41 25 -140 6 -140 -101
-2 -253 -22 -300 -40 -97 -36 -146 -114 -135 -213 12 -95 79 -155 186 -164 89
-8 152 11 211 64 28 25 52 44 54 42 2 -2 8 -24 13 -49 8 -43 10 -45 47 -48
l38 -3 -4 273 c-3 268 -3 274 -28 323 -35 70 -85 96 -193 101 -45 2 -100 -1
-122 -7z m245 -400 c0 -76 -18 -125 -61 -164 -45 -41 -107 -59 -171 -52 -61 8
-94 30 -108 73 -22 64 12 133 79 162 33 13 132 27 224 31 l37 1 0 -51z"/>
<path d="M6727 1098 c-20 -6 -59 -30 -86 -54 -26 -24 -51 -41 -55 -37 -3 3 -6
19 -6 34 0 48 -9 59 -51 59 l-39 0 0 -500 0 -500 50 0 51 0 -1 198 c0 108 -1
200 0 205 0 4 17 -10 39 -32 96 -96 281 -93 372 6 66 71 89 144 89 284 0 149
-38 248 -118 302 -65 45 -158 58 -245 35z m174 -103 c22 -14 46 -43 60 -72 21
-42 24 -62 24 -168 0 -114 -1 -123 -29 -173 -47 -84 -120 -115 -217 -92 -104
25 -144 102 -144 275 0 157 35 224 132 251 61 17 128 9 174 -21z"/>
<path d="M7505 1095 c-22 -9 -58 -34 -80 -55 -23 -22 -44 -40 -48 -40 -4 0 -7
12 -7 28 0 59 -9 72 -51 72 l-39 0 0 -500 0 -500 51 0 51 0 -4 205 c-1 113 0
205 3 205 4 0 14 -11 23 -25 9 -13 37 -37 63 -52 43 -25 58 -28 133 -28 68 0
93 5 125 22 113 60 162 177 153 368 -7 149 -53 236 -153 287 -52 28 -164 34
-220 13z m175 -93 c56 -28 93 -112 98 -222 10 -201 -79 -315 -229 -295 -66 9
-109 40 -139 100 -23 45 -25 62 -25 170 0 108 2 125 25 169 14 28 37 59 52 69
53 39 150 43 218 9z"/>
<path d="M4720 755 l0 -345 70 0 70 0 0 345 0 345 -70 0 -70 0 0 -345z"/>
<path d="M5450 540 c-13 -13 -20 -33 -20 -60 0 -73 71 -107 118 -57 47 50 17
137 -48 137 -17 0 -39 -9 -50 -20z"/>
</g>
</svg>
