<?xml version="1.0" encoding="utf-8"?>
<!-- Generator: Adobe Illustrator 19.2.1, SVG Export Plug-In . SVG Version: 6.00 Build 0)  -->
<svg version="1.1" id="layer" xmlns="http://www.w3.org/2000/svg" xmlns:xlink="http://www.w3.org/1999/xlink" x="0px" y="0px"
	 viewBox="0 0 652 652" style="enable-background:new 0 0 652 652;" xml:space="preserve">
<style type="text/css">
	.st0{fill:#FF943A;}
	.st1{fill:#DD1100;}
	.st2{fill:#FF7D00;}
	.st3{fill:#F16850;}
	.st4{fill:#FD694F;}
	.st5{fill:#FF3413;}
	.st6{fill:#DC1D23;}
	.st7{fill:#FF9281;}
	.st8{fill:#FF8B79;}
	.st9{fill:#EF5240;}
	.st10{fill:#FF482C;}
	.st11{fill:#EC2101;}
	.st12{fill:#D21C22;}
	.st13{fill:#C90901;}
	.st14{fill:#B6171E;}
	.st15{fill:#B4151B;}
	.st16{fill:#E63320;}
	.st17{fill:#FF4527;}
	.st18{fill:#FD684D;}
	.st19{fill:#FD745C;}
</style>
<path class="st0" d="M488.6,313.8c-0.2,0-0.5,0-0.7-0.1c-0.7-0.2-1.2-0.6-1.6-1.2c-0.1-0.2-0.2-0.4-0.3-0.6
	c-0.1-0.2-0.1-0.5-0.1-0.7c0-0.2,0-0.5,0.1-0.7c0.1-0.4,0.4-0.9,0.7-1.2c0.2-0.2,0.3-0.3,0.5-0.4c0.8-0.5,1.9-0.5,2.7,0
	c0.2,0.1,0.4,0.3,0.5,0.4c0.3,0.3,0.6,0.7,0.7,1.2c0.1,0.2,0.1,0.5,0.1,0.7c0,0.5-0.1,0.9-0.4,1.4c-0.1,0.2-0.3,0.4-0.4,0.5
	c-0.2,0.2-0.3,0.3-0.5,0.4c-0.2,0.1-0.4,0.2-0.6,0.3C489.1,313.8,488.8,313.8,488.6,313.8z M488.6,313.4c0.2,0,0.4,0,0.6-0.1
	c0.2-0.1,0.4-0.1,0.5-0.2c0.2-0.1,0.3-0.2,0.4-0.3c0.3-0.3,0.5-0.6,0.6-1c0.1-0.5,0.1-1-0.1-1.4c-0.3-0.8-1.1-1.3-2-1.3
	c-0.3,0-0.6,0.1-0.9,0.2c-0.3,0.1-0.5,0.3-0.7,0.5c-0.2,0.2-0.4,0.4-0.5,0.7c-0.1,0.3-0.2,0.6-0.2,0.9c0,0.2,0,0.4,0.1,0.6
	c0,0.2,0.1,0.4,0.2,0.5c0.1,0.2,0.2,0.3,0.3,0.4c0.1,0.1,0.3,0.3,0.4,0.3c0.2,0.1,0.3,0.2,0.5,0.2
	C488.2,313.3,488.4,313.4,488.6,313.4L488.6,313.4z M487.6,312.5v-2.8h1c0.2,0,0.3,0,0.5,0c0.1,0,0.2,0.1,0.3,0.1
	c0.1,0.1,0.2,0.2,0.2,0.3c0.1,0.1,0.1,0.3,0.1,0.4c0,0.2,0,0.4-0.1,0.5c-0.1,0.1-0.2,0.2-0.4,0.3l0.8,1.2h-0.7l-0.7-1.1h-0.4v1.1
	L487.6,312.5z M488.2,310.9h0.4c0.1,0,0.2,0,0.3,0c0.1,0,0.1,0,0.2-0.1c0,0,0.1-0.1,0.1-0.1c0-0.1,0-0.1,0-0.2c0-0.1,0-0.1,0-0.2
	c0,0,0-0.1-0.1-0.1c0,0-0.1-0.1-0.1-0.1c-0.1,0-0.2,0-0.2,0h-0.4L488.2,310.9z"/>
<polygon class="st1" points="153.5,301.4 146.8,301.4 138.5,337.2 130.2,301.7 130.1,301.4 122.7,301.4 114.4,336.9 106.3,301.4 
	99.5,301.4 110.3,347.5 110.4,347.8 118.1,347.8 126.3,312.5 134.5,347.5 134.5,347.8 142.4,347.8 153.4,301.8 "/>
<path class="st1" d="M168.3,311.4c-4.4-0.3-8.6,1.5-11.5,4.7c-2.7,3.1-4,7.8-4,14.1c0,6.1,1.3,10.8,4,13.9c2.9,3.2,7.2,5,11.5,4.7
	c4.4,0.3,8.6-1.5,11.5-4.8c2.6-3.1,3.9-7.8,3.9-13.9c0-6.1-1.3-10.8-3.9-14C176.9,312.9,172.6,311.2,168.3,311.4z M174.9,340
	c-3.2,3.7-8.8,4.1-12.5,0.9c-0.3-0.3-0.7-0.6-0.9-1c-1.6-3-2.4-6.4-2.1-9.8c0-4.6,0.7-8,2.2-10c1.6-2.1,4.1-3.2,6.7-3.1
	c2.6-0.2,5.1,1,6.6,3c1.5,2.1,2.2,5.4,2.2,10C177.1,334.6,176.4,338,174.9,340z"/>
<rect x="190.1" y="297.9" class="st1" width="6.4" height="49.9"/>
<path class="st1" d="M224,298.2c-2.1-0.9-4.5-1.4-6.8-1.3c-4,0-6.9,1-8.5,3.1c-1.8,2.8-2.7,6.1-2.4,9.5v3h-5v5.5h5v29.9h6.4v-29.9
	h7.6v-5.5h-7.6v-3c-0.2-1.9,0.2-3.8,1-5.5c0.9-1,2.3-1.5,3.7-1.3c0.8,0,1.7,0.1,2.5,0.4c0.8,0.2,1.6,0.5,2.3,0.8l0.4,0.2l1.8-5.7
	L224,298.2z"/>
<path class="st1" d="M241.4,311.9c-2.2,0-4.3,0.7-6,1.9c-1.5,1.1-3,2.3-4.3,3.7v-5.1h-6.4v35.4h6.4v-24.1c1.5-1.6,3.3-3,5.2-4.1
	c1.5-0.7,3.1-1.1,4.7-1.1c0.8,0,1.7,0.1,2.5,0.4l0.4,0.2l1.4-6.2l-0.3-0.1C243.9,312.1,242.6,311.8,241.4,311.9z"/>
<path class="st1" d="M271.3,314.2c-2.2-1.9-5.8-2.8-10.8-2.8c-2.8-0.1-5.6,0.5-8.2,1.6c-2.1,1-3.8,2.6-5,4.6l-0.2,0.3l5.3,3.2
	l0.2-0.3c0.6-1,1.5-1.9,2.6-2.5c1.6-0.9,3.3-1.3,5.1-1.2c2.1-0.1,4.1,0.4,5.9,1.4c1.5,1.2,2.3,3.2,2,5.1v1.3l-8.1,0.7
	c-2.7,0.2-5.3,0.9-7.8,2c-1.7,0.9-3.2,2.2-4.2,3.9c-1,1.9-1.5,4-1.4,6.1c-0.1,2.9,0.9,5.8,2.8,8c2,2.2,4.9,3.3,7.9,3.1
	c2.2,0,4.3-0.5,6.2-1.6c1.7-1,3.2-2.1,4.7-3.3v3.9h6.4v-23.9C274.6,319.3,273.5,316.1,271.3,314.2z M259.1,343
	c-1.6,0.1-3.1-0.3-4.4-1.3c-1-1.1-1.6-2.6-1.4-4.2c-0.1-1.8,0.7-3.6,2.1-4.7c2.3-1.3,5-2.1,7.7-2.1l5.1-0.5v7.8
	c-0.7,0.5-1.4,1.1-2.1,1.7c-0.7,0.6-1.5,1.1-2.3,1.6c-0.8,0.5-1.6,0.8-2.4,1.2C260.7,342.8,259.9,343,259.1,343L259.1,343z"/>
<path class="st1" d="M326.4,316.9c-0.5-1.6-1.5-3-2.9-4c-1.6-1-3.4-1.5-5.3-1.4c-2.3,0-4.5,0.7-6.4,2c-1.8,1.3-3.5,2.7-5,4.3
	c-0.4-1.8-1.3-3.5-2.7-4.7c-1.7-1.2-3.7-1.8-5.8-1.7c-2.2,0-4.3,0.7-6.1,1.9c-1.6,1.1-3,2.3-4.4,3.6v-4.6h-6.4v35.4h6.4v-24.7
	c1.5-1.5,3.2-2.9,5-4c1.2-0.8,2.6-1.3,4.1-1.4c0.9-0.1,1.9,0.1,2.7,0.6c0.6,0.6,1.1,1.4,1.2,2.2c0.3,2.2,0.5,4.3,0.4,6.5v20.8h6.4
	v-24.7c1.6-1.6,3.4-3.1,5.4-4.3c1.1-0.7,2.3-1.1,3.6-1.2c1-0.1,1.9,0.1,2.8,0.6c0.7,0.5,1.1,1.2,1.2,2.1c0.3,2.2,0.5,4.5,0.4,6.7
	v20.8h6.4v-23.5C327.4,321.8,327.1,319.3,326.4,316.9z"/>
<path class="st2" d="M355.6,301.4h-8.4l-15.7,46.4h7l3.9-11.9h17.9l3.9,11.9h7.2l-15.6-46.2L355.6,301.4z M358.1,329.6h-13.6
	l6.8-20.6L358.1,329.6z"/>
<rect x="375.6" y="297.9" class="st2" width="6.4" height="49.9"/>
<path class="st2" d="M405.7,311.4c-2.1,0-4.1,0.4-6,1.3c-1.5,0.7-2.9,1.6-4.1,2.6v-3h-6.4v48h6.4v-15c2.6,2.2,5.8,3.4,9.2,3.4
	c4.1,0.1,8-1.8,10.4-5.2c2.7-4.1,4-8.9,3.8-13.8c0-5.9-1.2-10.4-3.5-13.6C413.2,313.1,409.5,311.3,405.7,311.4z M412.4,330
	c0,4.5-0.8,7.8-2.4,9.9c-1.4,2-3.6,3.1-6,3.1c-3.1-0.1-6.1-1.4-8.4-3.5v-18c1.2-1.1,2.6-2.1,4.1-2.9c1.5-0.9,3.2-1.3,4.9-1.3
	C409.8,317.2,412.4,321.4,412.4,330L412.4,330z"/>
<path class="st2" d="M442.4,311.4c-2.3,0-4.6,0.7-6.6,1.9c-1.8,1-3.5,2.3-5,3.7v-19.1h-6.4v49.9h6.4v-24.7c1.7-1.5,3.5-2.8,5.4-3.9
	c1.5-0.9,3.1-1.5,4.8-1.6c1.1-0.1,2.1,0.2,3.1,0.7c0.7,0.5,1.2,1.3,1.4,2.2c0.4,2.1,0.6,4.3,0.5,6.5v20.8h6.4v-23.5
	c0-4.6-0.8-7.9-2.4-9.9C448.1,312.3,445.3,311.2,442.4,311.4z"/>
<path class="st2" d="M482.5,314.2c-2.2-1.9-5.8-2.8-10.8-2.8c-2.8-0.1-5.6,0.5-8.2,1.6c-2.1,1-3.8,2.6-5,4.6l-0.2,0.3l5.3,3.2
	l0.2-0.3c0.6-1,1.5-1.9,2.6-2.5c1.6-0.9,3.3-1.3,5.1-1.2c2.1-0.1,4.1,0.4,5.9,1.4c1.5,1.2,2.3,3.2,2,5.1v1.3l-8.1,0.7
	c-2.7,0.2-5.3,0.9-7.8,2c-1.7,0.9-3.2,2.2-4.2,3.9c-1,1.9-1.5,4-1.4,6.1c-0.1,2.9,0.9,5.8,2.8,8c2,2.2,4.9,3.3,7.9,3.1
	c2.2,0,4.3-0.5,6.2-1.6c1.7-1,3.2-2.1,4.7-3.3v3.9h6.4v-23.9C485.8,319.3,484.7,316.1,482.5,314.2z M470.3,343
	c-1.6,0.1-3.1-0.3-4.4-1.3c-1-1.1-1.6-2.6-1.4-4.2c-0.1-1.8,0.7-3.6,2.1-4.7c2.3-1.3,5-2.1,7.7-2.1l5.1-0.5v7.8
	c-0.7,0.5-1.4,1.1-2.1,1.7c-0.7,0.6-1.5,1.1-2.3,1.6c-0.8,0.5-1.6,0.8-2.4,1.2C471.9,342.8,471.1,343,470.3,343L470.3,343z"/>
<polygon class="st3" points="91.7,335.1 77.6,338.1 79,352.1 65.8,346.5 58.6,358.6 51.3,346.5 38.1,352.1 39.5,338.1 25.4,335.1 
	35,324.6 25.4,314.1 39.5,311.1 38.1,297.1 51.3,302.7 58.6,290.6 65.8,302.7 79,297.1 77.6,311.1 91.7,314.1 82.1,324.6 "/>
<polygon class="st4" points="58.6,311.8 51.3,302.7 38.1,297.1 45.9,307.4 "/>
<polygon class="st5" points="39.5,311.1 25.4,314.1 35,324.6 46.3,320.5 "/>
<polygon class="st6" points="45.9,307.4 38.1,297.1 39.5,311.1 46.3,320.5 "/>
<polygon class="st7" points="65.8,302.7 58.6,290.6 51.3,302.7 58.6,311.8 "/>
<polygon class="st8" points="82.1,324.6 91.7,314.1 77.6,311.1 70.8,320.5 "/>
<polygon class="st4" points="70.8,320.5 77.6,311.1 79,297.1 71.2,307.4 "/>
<polygon class="st9" points="71.2,307.4 79,297.1 65.8,302.7 58.6,311.8 "/>
<polygon class="st10" points="79,330.9 91.7,335.1 82.1,324.6 70.8,320.5 "/>
<polygon class="st11" points="46.3,320.5 35,324.6 25.4,335.1 38.1,330.9 "/>
<polygon class="st12" points="58.6,345.4 58.6,358.6 65.8,346.5 66.1,334.6 "/>
<polygon class="st13" points="79,330.9 66.1,334.6 77.6,338.1 91.7,335.1 "/>
<polygon class="st11" points="65.8,346.5 79,352.1 77.6,338.1 66.1,334.6 "/>
<polygon class="st14" points="38.1,330.9 25.4,335.1 39.5,338.1 51,334.6 "/>
<polygon class="st15" points="51,334.6 51.3,346.5 58.6,358.6 58.6,345.4 "/>
<polygon class="st12" points="39.5,338.1 38.1,352.1 51.3,346.5 51,334.6 "/>
<polygon class="st16" points="70.8,320.5 71.2,307.4 58.6,311.8 58.6,324.5 "/>
<polygon class="st17" points="58.6,311.8 45.9,307.4 46.3,320.5 58.6,324.5 "/>
<polygon class="st7" points="51,334.6 58.6,345.4 66.1,334.6 58.6,324.5 "/>
<polygon class="st18" points="58.6,324.5 66.1,334.6 79,330.9 70.8,320.5 "/>
<polygon class="st19" points="46.3,320.5 38.1,330.9 51,334.6 58.6,324.5 "/>
<path class="st0" d="M507.6,323.1c-0.2,0.3-0.4,0.5-0.6,0.7c-0.2,0.2-0.5,0.4-0.8,0.6c-0.3,0.2-0.7,0.3-1,0.4
	c-0.4,0.1-0.9,0.1-1.3,0.1c-0.7,0-1.5-0.1-2.1-0.4c-0.6-0.2-1.1-0.6-1.5-1.1c-0.4-0.5-0.7-1.1-0.8-1.7c-0.3-1.4-0.3-2.9,0-4.3
	c0.2-0.6,0.4-1.2,0.8-1.7c0.4-0.5,0.9-0.8,1.4-1.1c1.4-0.5,2.9-0.5,4.3,0.1c0.6,0.3,1.1,0.8,1.5,1.3l-1.6,1.1
	c-0.2-0.3-0.5-0.6-0.8-0.8c-0.4-0.2-0.8-0.3-1.2-0.3c-0.7-0.1-1.5,0.3-1.9,0.9c-0.5,0.8-0.7,1.8-0.6,2.7c0,0.5,0,1,0.1,1.5
	c0.1,0.4,0.2,0.8,0.4,1.1c0.2,0.3,0.5,0.5,0.8,0.7c0.4,0.2,0.8,0.2,1.2,0.2c0.2,0,0.4,0,0.6-0.1c0.2,0,0.4-0.1,0.5-0.2
	c0.2-0.1,0.3-0.2,0.5-0.3c0.2-0.1,0.3-0.3,0.4-0.5L507.6,323.1z"/>
<path class="st0" d="M518.4,319.6c0,0.7-0.1,1.5-0.3,2.2c-0.2,0.6-0.4,1.2-0.8,1.7c-0.4,0.5-0.9,0.8-1.4,1.1c-1.4,0.5-2.8,0.5-4.2,0
	c-0.6-0.2-1.1-0.6-1.4-1.1c-0.4-0.5-0.7-1.1-0.8-1.7c-0.4-1.4-0.3-3,0-4.4c0.2-0.6,0.4-1.2,0.8-1.7c0.4-0.5,0.9-0.8,1.4-1.1
	c0.7-0.3,1.4-0.4,2.1-0.4c0.7,0,1.4,0.1,2.1,0.4c0.6,0.2,1,0.6,1.4,1.1c0.4,0.5,0.7,1.1,0.8,1.7
	C518.3,318.1,518.4,318.8,518.4,319.6z M516.2,319.6c0.1-0.9-0.1-1.8-0.6-2.7c-0.4-0.6-1.1-0.9-1.9-0.9c-0.7-0.1-1.5,0.3-1.9,0.9
	c-0.5,0.8-0.7,1.7-0.6,2.7c-0.1,0.9,0.1,1.8,0.6,2.6c0.4,0.6,1.2,0.9,1.9,0.9c0.7,0.1,1.4-0.3,1.9-0.9
	C516.1,321.4,516.3,320.5,516.2,319.6z"/>
<path class="st0" d="M532.6,324.6v-5.9c0-0.5,0-0.9,0-1.2c0-0.3-0.1-0.5-0.2-0.8c-0.1-0.2-0.2-0.3-0.4-0.4c-0.2-0.1-0.4-0.1-0.7-0.1
	c-0.2,0-0.4,0-0.6,0.1c-0.2,0.1-0.4,0.2-0.7,0.3c-0.2,0.2-0.4,0.3-0.6,0.5c-0.2,0.2-0.4,0.4-0.6,0.6v6.9h-2.1v-5.9
	c0-0.5,0-0.9,0-1.3c0-0.3-0.1-0.5-0.2-0.8c-0.1-0.2-0.2-0.3-0.4-0.4c-0.2-0.1-0.4-0.1-0.6-0.1c-0.2,0-0.5,0-0.7,0.1
	c-0.2,0.1-0.5,0.2-0.7,0.4c-0.2,0.2-0.4,0.3-0.6,0.5c-0.2,0.2-0.4,0.4-0.6,0.5v6.9h-2.1v-10h2.1v1.4c0.2-0.2,0.4-0.5,0.7-0.7
	c0.2-0.2,0.5-0.4,0.7-0.5c0.3-0.1,0.5-0.3,0.8-0.4c0.3-0.1,0.6-0.1,0.9-0.1c0.6,0,1.2,0.1,1.7,0.5c0.4,0.3,0.7,0.8,0.8,1.4
	c0.3-0.3,0.5-0.5,0.8-0.8c0.2-0.2,0.5-0.4,0.8-0.6c0.3-0.2,0.5-0.3,0.8-0.4c0.3-0.1,0.6-0.1,0.9-0.1c0.5,0,0.9,0.1,1.3,0.3
	c0.3,0.2,0.6,0.4,0.8,0.7c0.2,0.3,0.4,0.7,0.4,1.1c0.1,0.5,0.1,1,0.1,1.5v6.7H532.6z"/>
<path class="st0" d="M546.5,319.5c0,0.7-0.1,1.4-0.2,2c-0.1,0.6-0.4,1.2-0.7,1.7c-0.3,0.5-0.7,0.9-1.3,1.2c-0.6,0.3-1.2,0.5-1.8,0.4
	c-0.5,0-1-0.1-1.5-0.3c-0.5-0.2-0.9-0.5-1.3-0.8v4.6h-2.1v-13.8h1.9v1c0.4-0.4,0.9-0.7,1.4-0.9c0.5-0.2,1.1-0.4,1.7-0.4
	c0.6,0,1.2,0.1,1.7,0.4c0.5,0.3,0.9,0.6,1.2,1.1c0.3,0.5,0.6,1.1,0.7,1.7C546.4,318,546.5,318.8,546.5,319.5z M544.4,319.5
	c0.1-0.9-0.1-1.8-0.6-2.6c-0.3-0.6-1-0.9-1.6-0.9c-0.2,0-0.5,0-0.7,0.1c-0.2,0.1-0.5,0.1-0.7,0.2c-0.2,0.1-0.4,0.2-0.6,0.4
	c-0.2,0.1-0.4,0.3-0.5,0.4v4.8c0.2,0.1,0.3,0.3,0.5,0.4c0.2,0.1,0.4,0.2,0.6,0.3c0.2,0.1,0.4,0.2,0.6,0.2c0.2,0.1,0.4,0.1,0.7,0.1
	c0.3,0,0.6-0.1,0.9-0.2c0.3-0.1,0.6-0.4,0.8-0.6c0.2-0.3,0.4-0.7,0.5-1.1C544.3,320.6,544.4,320,544.4,319.5L544.4,319.5z"/>
<path class="st0" d="M555.3,324.6v-1.4c-0.2,0.2-0.5,0.4-0.7,0.6c-0.3,0.2-0.5,0.4-0.8,0.5c-0.3,0.2-0.6,0.3-0.9,0.4
	c-0.3,0.1-0.6,0.1-1,0.1c-0.5,0-1-0.1-1.4-0.2c-0.4-0.1-0.7-0.4-0.9-0.7c-0.2-0.3-0.4-0.7-0.5-1.1c-0.1-0.5-0.1-1-0.1-1.5v-6.7h2.1
	v5.7c0,0.5,0,0.9,0,1.3c0,0.3,0.1,0.6,0.2,0.8c0.1,0.2,0.2,0.4,0.4,0.5c0.2,0.1,0.5,0.2,0.8,0.1c0.2,0,0.5,0,0.7-0.1
	c0.3-0.1,0.5-0.2,0.7-0.3c0.3-0.1,0.5-0.3,0.7-0.5c0.2-0.2,0.5-0.4,0.7-0.6v-6.9h2.1v10H555.3z"/>
<path class="st0" d="M565.6,324.6c-0.3,0.1-0.6,0.2-1,0.2c-0.3,0.1-0.7,0.1-1,0.1c-0.5,0-0.9-0.1-1.4-0.2c-0.4-0.1-0.7-0.3-0.9-0.6
	c-0.3-0.3-0.4-0.7-0.5-1c-0.1-0.5-0.2-1-0.2-1.5v-5.3h-1.3v-1.7h1.3v-2.8h2.1v2.8h2.4v1.7h-2.4v5c0,0.3,0,0.6,0.1,0.9
	c0,0.2,0.1,0.4,0.2,0.6c0.1,0.1,0.2,0.3,0.4,0.3c0.2,0.1,0.4,0.1,0.6,0.1c0.2,0,0.5,0,0.7-0.1c0.2,0,0.4-0.1,0.6-0.2L565.6,324.6z"
	/>
<path class="st0" d="M573.2,324.6v-1.1c-0.5,0.4-1,0.8-1.5,1c-1,0.5-2.1,0.5-3.1,0.2c-0.4-0.1-0.7-0.4-1-0.6c-0.3-0.3-0.5-0.6-0.6-1
	c-0.1-0.4-0.2-0.8-0.2-1.3c0-0.5,0.1-1,0.3-1.5c0.2-0.4,0.5-0.7,0.8-1c0.4-0.3,0.8-0.5,1.3-0.6c0.5-0.1,1.1-0.2,1.6-0.3l2.3-0.2
	v-0.5c0-0.3,0-0.6-0.1-0.8c-0.1-0.2-0.2-0.4-0.4-0.5c-0.2-0.1-0.4-0.2-0.7-0.3c-0.3-0.1-0.6-0.1-0.9-0.1c-0.3,0-0.6,0-0.9,0.1
	c-0.2,0.1-0.4,0.1-0.7,0.2c-0.2,0.1-0.3,0.2-0.5,0.3c-0.1,0.1-0.2,0.2-0.3,0.4l-1.6-1c0.1-0.2,0.3-0.4,0.5-0.6
	c0.2-0.2,0.5-0.4,0.8-0.6c0.4-0.2,0.7-0.3,1.1-0.4c0.5-0.1,1-0.2,1.5-0.2c0.6,0,1.2,0.1,1.8,0.2c0.5,0.1,0.9,0.3,1.3,0.6
	c0.4,0.3,0.6,0.6,0.8,1.1c0.2,0.5,0.3,1.1,0.3,1.7v6.8H573.2z M573.1,319.7l-1.4,0.1c-0.4,0-0.8,0.1-1.2,0.2
	c-0.3,0.1-0.6,0.2-0.9,0.3c-0.2,0.1-0.4,0.3-0.5,0.5c-0.1,0.2-0.2,0.5-0.2,0.8c0,0.4,0.1,0.8,0.4,1.1c0.3,0.2,0.8,0.4,1.2,0.3
	c0.2,0,0.4,0,0.6-0.1c0.2-0.1,0.4-0.2,0.6-0.3c0.2-0.1,0.4-0.3,0.7-0.4c0.2-0.2,0.4-0.3,0.6-0.5V319.7z"/>
<path class="st0" d="M583.3,324.6c-0.3,0.1-0.6,0.2-1,0.2c-0.3,0.1-0.7,0.1-1,0.1c-0.5,0-0.9-0.1-1.4-0.2c-0.4-0.1-0.7-0.3-0.9-0.6
	c-0.3-0.3-0.4-0.7-0.5-1c-0.1-0.5-0.2-1-0.2-1.5v-5.3h-1.3v-1.7h1.3v-2.8h2.1v2.8h2.4v1.7h-2.4v5c0,0.3,0,0.6,0.1,0.9
	c0,0.2,0.1,0.4,0.2,0.6c0.1,0.1,0.2,0.3,0.4,0.3c0.2,0.1,0.4,0.1,0.6,0.1c0.2,0,0.5,0,0.7-0.1c0.2,0,0.4-0.1,0.6-0.2L583.3,324.6z"
	/>
<path class="st0" d="M587.3,311.9c0,0.3-0.1,0.6-0.3,0.9c-0.3,0.2-0.6,0.3-0.9,0.2c-0.3,0-0.7-0.1-1-0.3c-0.2-0.2-0.3-0.5-0.3-0.8
	c0-0.3,0.1-0.6,0.3-0.9c0.3-0.2,0.6-0.3,0.9-0.3c0.3,0,0.7,0.1,0.9,0.3C587.2,311.3,587.3,311.6,587.3,311.9z M585,324.6v-10h2.1v10
	H585z"/>
<path class="st0" d="M598.8,319.6c0,0.7-0.1,1.5-0.3,2.2c-0.2,0.6-0.4,1.2-0.8,1.7c-0.4,0.5-0.9,0.8-1.4,1.1c-1.4,0.5-2.8,0.5-4.2,0
	c-0.6-0.2-1.1-0.6-1.4-1.1c-0.4-0.5-0.7-1.1-0.8-1.7c-0.4-1.4-0.3-3,0-4.4c0.2-0.6,0.4-1.2,0.8-1.7c0.4-0.5,0.9-0.8,1.4-1.1
	c0.7-0.3,1.4-0.4,2.1-0.4c0.7,0,1.4,0.1,2.1,0.4c0.6,0.2,1,0.6,1.4,1.1c0.4,0.5,0.7,1.1,0.8,1.7
	C598.7,318.1,598.8,318.8,598.8,319.6z M596.6,319.6c0.1-0.9-0.1-1.8-0.6-2.7c-0.4-0.6-1.1-0.9-1.9-0.9c-0.7-0.1-1.5,0.3-1.9,0.9
	c-0.5,0.8-0.7,1.7-0.6,2.7c-0.1,0.9,0.1,1.8,0.6,2.6c0.4,0.6,1.2,0.9,1.9,0.9c0.7,0.1,1.4-0.3,1.9-0.9
	C596.5,321.4,596.7,320.5,596.6,319.6z"/>
<path class="st0" d="M607.6,324.6v-5.7c0-0.5,0-0.9,0-1.3c0-0.3-0.1-0.6-0.2-0.8c-0.1-0.2-0.2-0.4-0.4-0.5c-0.2-0.1-0.5-0.2-0.8-0.1
	c-0.2,0-0.5,0-0.7,0.1c-0.3,0.1-0.5,0.2-0.7,0.3c-0.3,0.2-0.5,0.3-0.7,0.5c-0.2,0.2-0.5,0.4-0.7,0.6v6.9h-2.1v-10h2.1v1.4
	c0.2-0.2,0.5-0.4,0.7-0.6c0.3-0.2,0.5-0.4,0.8-0.5c0.3-0.2,0.6-0.3,0.9-0.4c0.3-0.1,0.6-0.1,1-0.1c0.5,0,1,0.1,1.4,0.2
	c0.4,0.1,0.7,0.4,0.9,0.7c0.2,0.3,0.4,0.7,0.5,1.1c0.1,0.5,0.1,1,0.1,1.5v6.7H607.6z"/>
<path class="st0" d="M618.4,324.6v-1.1c-0.5,0.4-1,0.8-1.5,1c-1,0.5-2.1,0.5-3.1,0.2c-0.4-0.1-0.7-0.4-1-0.6c-0.3-0.3-0.5-0.6-0.6-1
	c-0.1-0.4-0.2-0.8-0.2-1.3c0-0.5,0.1-1,0.3-1.5c0.2-0.4,0.5-0.7,0.8-1c0.4-0.3,0.8-0.5,1.3-0.6c0.5-0.1,1.1-0.2,1.6-0.3l2.3-0.2
	v-0.5c0-0.3,0-0.6-0.1-0.8c-0.1-0.2-0.2-0.4-0.4-0.5c-0.2-0.1-0.4-0.2-0.7-0.3c-0.3-0.1-0.6-0.1-0.9-0.1c-0.3,0-0.6,0-0.9,0.1
	c-0.2,0.1-0.4,0.1-0.7,0.2c-0.2,0.1-0.3,0.2-0.5,0.3c-0.1,0.1-0.2,0.2-0.3,0.4l-1.6-1c0.1-0.2,0.3-0.4,0.5-0.6
	c0.2-0.2,0.5-0.4,0.8-0.6c0.4-0.2,0.7-0.3,1.1-0.4c0.5-0.1,1-0.2,1.5-0.2c0.6,0,1.2,0.1,1.8,0.2c0.5,0.1,0.9,0.3,1.3,0.6
	c0.4,0.3,0.6,0.6,0.8,1.1c0.2,0.5,0.3,1.1,0.3,1.7v6.8H618.4z M618.3,319.7l-1.4,0.1c-0.4,0-0.8,0.1-1.2,0.2
	c-0.3,0.1-0.6,0.2-0.9,0.3c-0.2,0.1-0.4,0.3-0.5,0.5c-0.1,0.2-0.2,0.5-0.2,0.8c0,0.4,0.1,0.8,0.4,1.1c0.3,0.2,0.8,0.4,1.2,0.3
	c0.2,0,0.4,0,0.6-0.1c0.2-0.1,0.4-0.2,0.6-0.3c0.2-0.1,0.4-0.3,0.7-0.4c0.2-0.2,0.4-0.3,0.6-0.5V319.7z"/>
<path class="st0" d="M623.3,324.6v-14.2h2.1v14.2H623.3z"/>
<path class="st0" d="M501.9,335.2c0,0.3-0.1,0.6-0.3,0.9c-0.3,0.2-0.6,0.3-0.9,0.2c-0.3,0-0.7-0.1-1-0.3c-0.2-0.2-0.3-0.5-0.3-0.8
	c0-0.3,0.1-0.6,0.3-0.9c0.3-0.2,0.6-0.3,0.9-0.3c0.3,0,0.7,0.1,0.9,0.3C501.9,334.6,502,334.9,501.9,335.2z M499.7,347.9v-10h2.1v10
	L499.7,347.9z"/>
<path class="st0" d="M511.1,347.9v-5.7c0-0.5,0-0.9,0-1.3c0-0.3-0.1-0.6-0.2-0.8c-0.1-0.2-0.2-0.4-0.4-0.5c-0.2-0.1-0.5-0.2-0.8-0.1
	c-0.2,0-0.5,0-0.7,0.1c-0.3,0.1-0.5,0.2-0.7,0.3c-0.3,0.2-0.5,0.3-0.7,0.5c-0.2,0.2-0.5,0.4-0.7,0.6v6.9h-2.1v-10h2.1v1.4
	c0.2-0.2,0.5-0.4,0.7-0.6c0.3-0.2,0.5-0.4,0.8-0.5c0.3-0.2,0.6-0.3,0.9-0.4c0.3-0.1,0.6-0.1,1-0.1c0.5,0,1,0.1,1.4,0.2
	c0.4,0.1,0.7,0.4,0.9,0.7c0.2,0.3,0.4,0.7,0.5,1.1c0.1,0.5,0.1,1,0.1,1.5v6.7L511.1,347.9z"/>
<path class="st0" d="M521.4,347.9c-0.3,0.1-0.6,0.2-1,0.2c-0.3,0.1-0.7,0.1-1,0.1c-0.5,0-0.9-0.1-1.4-0.2c-0.4-0.1-0.7-0.3-0.9-0.6
	c-0.3-0.3-0.4-0.7-0.5-1c-0.1-0.5-0.2-1-0.2-1.5v-5.3H515v-1.7h1.3v-2.8h2.1v2.8h2.4v1.7h-2.4v5c0,0.3,0,0.6,0.1,0.9
	c0,0.2,0.1,0.4,0.2,0.6c0.1,0.1,0.2,0.3,0.4,0.3c0.2,0.1,0.4,0.1,0.6,0.1c0.2,0,0.5,0,0.7-0.1c0.2,0,0.4-0.1,0.6-0.2L521.4,347.9z"
	/>
<path class="st0" d="M524.6,343.3c0,0.4,0.1,0.9,0.2,1.3c0.1,0.4,0.2,0.7,0.5,1c0.2,0.3,0.5,0.5,0.8,0.6c0.4,0.1,0.8,0.2,1.2,0.2
	c0.4,0,0.8-0.1,1.2-0.2c0.4-0.2,0.7-0.5,1-0.8l1.6,1.1c-0.2,0.3-0.4,0.5-0.6,0.8c-0.2,0.2-0.5,0.4-0.8,0.5c-0.3,0.2-0.7,0.3-1.1,0.3
	c-0.4,0.1-0.9,0.1-1.4,0.1c-1.3,0.1-2.6-0.4-3.5-1.3c-0.8-1.1-1.2-2.5-1.1-3.9c0-0.7,0.1-1.5,0.2-2.2c0.1-0.6,0.4-1.2,0.8-1.7
	c0.4-0.5,0.9-0.9,1.4-1.1c0.7-0.3,1.4-0.4,2.1-0.4c0.7,0,1.3,0.1,1.9,0.3c0.5,0.2,0.9,0.5,1.3,0.9c0.3,0.4,0.6,0.9,0.7,1.5
	c0.2,0.6,0.2,1.3,0.2,1.9v1.1L524.6,343.3z M529.2,341.8c0-0.7-0.1-1.3-0.5-1.9c-0.4-0.5-1-0.7-1.7-0.7c-0.3,0-0.7,0-1,0.2
	c-0.3,0.1-0.5,0.3-0.7,0.5c-0.2,0.2-0.3,0.5-0.4,0.8c-0.1,0.4-0.2,0.7-0.2,1.1L529.2,341.8z"/>
<path class="st0" d="M533.7,347.9v-14.2h2.1v14.2H533.7z"/>
<path class="st0" d="M538.8,347.9v-14.2h2.1v14.2H538.8z"/>
<path class="st0" d="M546.2,335.2c0,0.3-0.1,0.6-0.3,0.9c-0.3,0.2-0.6,0.3-0.9,0.2c-0.3,0-0.7-0.1-1-0.3c-0.2-0.2-0.3-0.5-0.3-0.8
	c0-0.3,0.1-0.6,0.3-0.9c0.3-0.2,0.6-0.3,0.9-0.3c0.3,0,0.7,0.1,0.9,0.3C546.1,334.6,546.2,334.9,546.2,335.2z M543.9,347.9v-10h2.1
	v10L543.9,347.9z"/>
<path class="st0" d="M557.4,347.7c0,0.6-0.1,1.2-0.3,1.7c-0.2,0.5-0.5,0.9-0.8,1.2c-0.4,0.4-0.9,0.6-1.5,0.7
	c-0.7,0.2-1.4,0.3-2.1,0.2c-0.7,0-1.4-0.1-2.1-0.2c-0.6-0.1-1.2-0.4-1.7-0.7l0.7-1.7c0.5,0.2,0.9,0.4,1.4,0.6
	c0.6,0.2,1.1,0.2,1.7,0.2c0.4,0,0.8,0,1.2-0.1c0.3-0.1,0.6-0.2,0.8-0.4c0.2-0.2,0.4-0.4,0.5-0.7c0.1-0.3,0.2-0.7,0.1-1v-1
	c-0.4,0.4-0.8,0.6-1.3,0.9c-0.5,0.2-1.1,0.3-1.7,0.3c-0.6,0-1.2-0.1-1.7-0.4c-0.5-0.2-0.9-0.6-1.2-1.1c-0.3-0.5-0.6-1-0.7-1.6
	c-0.2-0.7-0.2-1.4-0.2-2.1c0-0.6,0.1-1.3,0.2-1.9c0.1-0.6,0.4-1.2,0.7-1.7c0.3-0.5,0.8-0.9,1.3-1.2c1.1-0.5,2.3-0.6,3.5-0.1
	c0.5,0.2,0.9,0.5,1.3,0.9l0.2-0.9h1.8L557.4,347.7z M555.3,340.4c-0.3-0.3-0.7-0.5-1.1-0.7c-0.4-0.2-0.8-0.3-1.3-0.3
	c-0.3,0-0.7,0.1-1,0.3c-0.3,0.2-0.5,0.4-0.7,0.7c-0.2,0.3-0.4,0.7-0.5,1.1c-0.1,0.4-0.2,0.9-0.2,1.3c0,0.5,0,0.9,0.1,1.4
	c0.1,0.4,0.2,0.7,0.4,1.1c0.2,0.3,0.4,0.5,0.7,0.7c0.3,0.2,0.6,0.2,1,0.2c0.5,0,0.9-0.1,1.3-0.3c0.4-0.2,0.9-0.5,1.2-0.8
	L555.3,340.4z"/>
<path class="st0" d="M562,343.3c0,0.4,0.1,0.9,0.2,1.3c0.1,0.4,0.2,0.7,0.5,1c0.2,0.3,0.5,0.5,0.8,0.6c0.4,0.1,0.8,0.2,1.2,0.2
	c0.4,0,0.8-0.1,1.2-0.2c0.4-0.2,0.7-0.5,1-0.8l1.6,1.1c-0.2,0.3-0.4,0.5-0.6,0.8c-0.2,0.2-0.5,0.4-0.8,0.5c-0.3,0.2-0.7,0.3-1.1,0.3
	c-0.4,0.1-0.9,0.1-1.4,0.1c-1.3,0.1-2.6-0.4-3.5-1.3c-0.8-1.1-1.2-2.5-1.1-3.9c0-0.7,0.1-1.5,0.2-2.2c0.1-0.6,0.4-1.2,0.8-1.7
	c0.4-0.5,0.9-0.9,1.4-1.1c0.7-0.3,1.4-0.4,2.1-0.4c0.7,0,1.3,0.1,1.9,0.3c0.5,0.2,0.9,0.5,1.3,0.9c0.3,0.4,0.6,0.9,0.7,1.5
	c0.2,0.6,0.2,1.3,0.2,1.9v1.1L562,343.3z M566.5,341.8c0-0.7-0.1-1.3-0.5-1.9c-0.4-0.5-1-0.7-1.7-0.7c-0.3,0-0.7,0-1,0.2
	c-0.3,0.1-0.5,0.3-0.7,0.5c-0.2,0.2-0.3,0.5-0.4,0.8c-0.1,0.4-0.2,0.7-0.2,1.1L566.5,341.8z"/>
<path class="st0" d="M577.4,347.9v-5.7c0-0.5,0-0.9,0-1.3c0-0.3-0.1-0.6-0.2-0.8c-0.1-0.2-0.2-0.4-0.4-0.5c-0.2-0.1-0.5-0.2-0.8-0.1
	c-0.2,0-0.5,0-0.7,0.1c-0.3,0.1-0.5,0.2-0.7,0.3c-0.3,0.2-0.5,0.3-0.7,0.5c-0.2,0.2-0.5,0.4-0.7,0.6v6.9H571v-10h2.1v1.4
	c0.2-0.2,0.5-0.4,0.7-0.6c0.3-0.2,0.5-0.4,0.8-0.5c0.3-0.2,0.6-0.3,0.9-0.4c0.3-0.1,0.6-0.1,1-0.1c0.5,0,1,0.1,1.4,0.2
	c0.4,0.1,0.7,0.4,0.9,0.7c0.2,0.3,0.4,0.7,0.5,1.1c0.1,0.5,0.1,1,0.1,1.5v6.7L577.4,347.9z"/>
<path class="st0" d="M590.2,346.4c-0.2,0.3-0.4,0.5-0.6,0.7c-0.2,0.2-0.5,0.4-0.8,0.6c-0.3,0.2-0.7,0.3-1,0.4
	c-0.4,0.1-0.9,0.1-1.3,0.1c-0.7,0-1.5-0.1-2.1-0.4c-0.6-0.2-1.1-0.6-1.5-1.1c-0.4-0.5-0.7-1.1-0.8-1.7c-0.3-1.4-0.3-2.9,0-4.3
	c0.2-0.6,0.4-1.2,0.8-1.7c0.4-0.5,0.9-0.8,1.4-1.1c1.4-0.5,2.9-0.5,4.3,0.1c0.6,0.3,1.1,0.8,1.5,1.3l-1.6,1.1
	c-0.2-0.3-0.5-0.6-0.8-0.8c-0.4-0.2-0.8-0.3-1.2-0.3c-0.7-0.1-1.5,0.3-1.9,0.9c-0.5,0.8-0.7,1.8-0.6,2.7c0,0.5,0,1,0.1,1.5
	c0.1,0.4,0.2,0.8,0.4,1.1c0.2,0.3,0.5,0.5,0.8,0.7c0.4,0.2,0.8,0.2,1.2,0.2c0.2,0,0.4,0,0.6-0.1c0.2,0,0.4-0.1,0.5-0.2
	c0.2-0.1,0.3-0.2,0.5-0.3c0.2-0.1,0.3-0.3,0.4-0.5L590.2,346.4z"/>
<path class="st0" d="M593.9,343.3c0,0.4,0.1,0.9,0.2,1.3c0.1,0.4,0.2,0.7,0.5,1c0.2,0.3,0.5,0.5,0.8,0.6c0.4,0.1,0.8,0.2,1.2,0.2
	c0.4,0,0.8-0.1,1.2-0.2c0.4-0.2,0.7-0.5,1-0.8l1.6,1.1c-0.2,0.3-0.4,0.5-0.6,0.8c-0.2,0.2-0.5,0.4-0.8,0.5c-0.3,0.2-0.7,0.3-1.1,0.3
	c-0.4,0.1-0.9,0.1-1.4,0.1c-1.3,0.1-2.6-0.4-3.5-1.3c-0.8-1.1-1.2-2.5-1.1-3.9c0-0.7,0.1-1.5,0.2-2.2c0.1-0.6,0.4-1.2,0.8-1.7
	c0.4-0.5,0.9-0.9,1.4-1.1c0.7-0.3,1.4-0.4,2.1-0.4c0.7,0,1.3,0.1,1.9,0.3c0.5,0.2,0.9,0.5,1.3,0.9c0.3,0.4,0.6,0.9,0.7,1.5
	c0.2,0.6,0.2,1.3,0.2,1.9v1.1L593.9,343.3z M598.5,341.8c0-0.7-0.1-1.3-0.5-1.9c-0.4-0.5-1-0.7-1.7-0.7c-0.3,0-0.7,0-1,0.2
	c-0.3,0.1-0.5,0.3-0.7,0.5c-0.2,0.2-0.3,0.5-0.4,0.8c-0.1,0.4-0.2,0.7-0.2,1.1L598.5,341.8z"/>
<path class="st0" d="M603.8,344.9v2.8h-0.5v-2.8h-0.9v-0.5h2.4v0.5H603.8z"/>
<path class="st0" d="M607.2,347.7v-2.5l-0.8,1.6h-0.3l-0.7-1.6v2.5H605v-3.3h0.6l0.8,1.7l0.8-1.7h0.6v3.3H607.2z"/>
</svg>
